<svg id="megaphone" xmlns="http://www.w3.org/2000/svg" width="33.306" height="35.167" viewBox="0 0 33.306 35.167">
  <path id="Path_1" data-name="Path 1" d="M24.451,18.566c-3.432-5.049-8.016-7.733-10.416-6.088a2.769,2.769,0,0,0-.679.683c0,.019-5.557,11.265-5.557,11.265l-3.1,2.1a4.382,4.382,0,0,0-1.163,6.088l.14.206a4.39,4.39,0,0,0,6.061,1.163l4.983,7.341a2.828,2.828,0,0,0,3.878.745,2.625,2.625,0,0,0,1.163-1.784,2.777,2.777,0,0,0-.43-2.094l-4.39-6.476s10.377-.826,10.416-.842a2.486,2.486,0,0,0,.9-.388c1.233-.838,1.675-2.594,1.249-4.948a18.976,18.976,0,0,0-3.056-6.973ZM4.8,32.057l-.14-.206a3.021,3.021,0,0,1,.807-4.2l2.68-1.823,3.537,5.208L9.005,32.86a3.025,3.025,0,0,1-4.2-.8Zm13.41,6.9a1.435,1.435,0,0,1-2.381,1.6L10.863,33.24l2-1.357.527-.043ZM12.969,30.51,9.114,24.833l3.676-7.5A18.662,18.662,0,0,0,15.858,24.4a18.722,18.722,0,0,0,5.429,5.456Zm11.44-.9c-1.854-.12-4.871-2.21-7.426-5.976s-3.385-7.329-2.815-9.1a1.652,1.652,0,0,1,1.551-1.163c1.838,0,4.968,2.1,7.6,5.976a16.545,16.545,0,0,1,2.854,6.453C26.747,29.607,24.408,29.607,24.408,29.607Z" transform="translate(-2.776 -7.382)" fill="#c31231"/>
  <path id="Path_2" data-name="Path 2" d="M41.347,29.2a3.641,3.641,0,0,0-2.761.57.681.681,0,0,0,.776,1.121,2.327,2.327,0,0,1,2.614,3.851.679.679,0,0,0,.388,1.237.663.663,0,0,0,.388-.116A3.68,3.68,0,0,0,41.375,29.2Z" transform="translate(-24.519 -17.875)" fill="#c31231"/>
  <path id="Path_3" data-name="Path 3" d="M59.869,6.565h.066a.679.679,0,0,0,.675-.609L61.133.868a.679.679,0,1,0-1.35-.14l-.52,5.092a.679.679,0,0,0,.6.745Z" transform="translate(-37.356 -0.1)" fill="#c31231"/>
  <path id="Path_4" data-name="Path 4" d="M74.018,13.588a.683.683,0,0,0-.942-.194l-4.727,3.1a.679.679,0,0,0,.388,1.245.69.69,0,0,0,.388-.109l4.727-3.1A.679.679,0,0,0,74.018,13.588Z" transform="translate(-42.733 -8.171)" fill="#c31231"/>
  <path id="Path_5" data-name="Path 5" d="M77.236,33.852l-5.5-.989A.68.68,0,0,0,71.5,34.2l5.5.989h.12a.679.679,0,0,0,.12-1.35Z" transform="translate(-44.504 -20.151)" fill="#c31231"/>
</svg>
