<svg width="207" height="33" viewBox="0 0 207 33" fill="none" xmlns="http://www.w3.org/2000/svg">
<path d="M22.9232 11.9157L20.0044 14.4224C18.2874 12.4651 16.0897 11.5036 13.4113 11.5036C11.0075 11.5036 8.98152 12.3277 7.36759 13.976C5.75365 15.5899 4.96385 17.616 4.96385 20.0884C4.96385 22.5264 5.75365 24.5524 7.40193 26.1664C9.01586 27.7803 11.0419 28.5701 13.4799 28.5701C16.1927 28.5701 18.4248 27.5743 20.1074 25.5483L22.9919 28.055C20.6568 30.8021 17.2229 32.4504 13.4799 32.4504C9.94302 32.4504 6.88684 31.2829 4.41443 28.9478C1.97636 26.5784 0.705811 23.6253 0.705811 20.0884C0.705811 16.5514 1.94202 13.564 4.38009 11.1946C6.8525 8.82516 9.87434 7.62329 13.4113 7.62329C17.2572 7.62329 20.4164 9.03119 22.9232 11.9157Z" fill="#2C303D"/>
<path d="M24.9837 32.0039L24.9493 8.00092H29.07L29.1044 32.0039H24.9837Z" fill="#2C303D"/>
<path d="M32.332 14.6285H36.4871L36.5214 24.7585C36.5214 27.3682 37.998 28.6388 40.333 28.6388C42.6337 28.6388 44.1103 27.3339 44.1103 24.6898L44.076 14.5941H48.231L48.2654 24.9645C48.2654 27.3682 47.5099 29.2226 45.999 30.5274C44.4881 31.798 42.5994 32.4161 40.2987 32.4161C37.998 32.4161 36.1093 31.798 34.5984 30.5274C33.1218 29.2569 32.3664 27.4713 32.332 25.1019C32.3664 25.1019 32.332 14.6285 32.332 14.6285Z" fill="#2C303D"/>
<path d="M64.3361 27.0249C65.3319 26.0291 65.8126 24.7585 65.8126 23.2476C65.8126 21.7367 65.3319 20.4661 64.3361 19.4703C63.3746 18.4745 62.1727 17.9594 60.6961 17.9594C59.2195 17.9594 57.949 18.4745 56.9188 19.4703C55.923 20.4661 55.4079 21.7367 55.4079 23.2476C55.4079 24.7585 55.923 26.0291 56.9188 27.0249C57.949 28.0207 59.2195 28.5358 60.6961 28.5358C62.1384 28.5358 63.3402 28.0207 64.3361 27.0249ZM51.5619 31.9354L51.5276 7.93237H55.6483L55.6826 17.1009C56.2664 15.4183 58.3611 14.2164 61.2112 14.1821C63.6493 14.1821 65.7096 15.0406 67.3922 16.7919C69.0748 18.5088 69.899 20.6378 69.9333 23.2133C69.9333 25.7887 69.1092 27.9177 67.4266 29.7033C65.7783 31.4203 63.718 32.2788 61.2799 32.3131C58.4297 32.3131 56.3351 31.1112 55.717 29.4286V31.9354H51.5619Z" fill="#2C303D"/>
<path d="M72.4744 31.9011L72.4401 7.89807H76.5264L76.5608 16.9636C77.3505 15.3153 79.2392 14.2165 81.6086 14.1821C85.5919 14.1821 87.9613 16.8262 87.9613 21.1186L87.9957 31.8667H83.9093L83.875 21.7024C83.875 19.333 82.6044 17.8564 80.3724 17.8564C78.1403 17.8564 76.5608 19.5047 76.5608 21.9084L76.5951 31.9011C76.5607 31.9011 72.4744 31.9011 72.4744 31.9011Z" fill="#2C303D"/>
<path d="M103.62 27.0592C104.65 25.9947 105.165 24.7241 105.165 23.1789C105.165 21.6336 104.65 20.363 103.62 19.3329C102.59 18.2684 101.319 17.7533 99.8084 17.7533C98.2631 17.7533 96.9926 18.2684 95.9624 19.3329C94.9666 20.363 94.4515 21.6336 94.4515 23.1789C94.4515 24.7241 94.9666 25.9947 95.9624 27.0592C96.9926 28.0893 98.2631 28.6044 99.8084 28.6044C101.319 28.6044 102.59 28.0893 103.62 27.0592ZM90.3308 23.1789C90.3308 20.6034 91.258 18.4057 93.0779 16.6201C94.8979 14.8688 97.1299 13.976 99.7741 13.9417C102.418 13.9417 104.65 14.8345 106.505 16.5858C108.324 18.337 109.252 20.5347 109.286 23.1102C109.32 25.6856 108.359 27.8833 106.539 29.6689C104.719 31.4546 102.487 32.313 99.8427 32.3474C97.1986 32.3474 94.9666 31.4546 93.1123 29.7033C91.258 27.9863 90.3308 25.7543 90.3308 23.1789Z" fill="#2C303D"/>
<path d="M111.586 14.4568H115.741L115.776 24.5868C115.776 27.1966 117.252 28.4671 119.587 28.4671C121.888 28.4671 123.365 27.1622 123.365 24.5181L123.33 14.4224H127.485L127.52 24.7928C127.52 27.1965 126.764 29.0509 125.253 30.3557C123.742 31.6263 121.854 32.2444 119.553 32.2787C117.252 32.2787 115.364 31.6606 113.853 30.3901C112.376 29.1195 111.621 27.3339 111.586 24.9645V14.4568Z" fill="#2C303D"/>
<path d="M131.709 26.4754C132.499 27.7116 134.182 28.6388 136.276 28.6388C138.44 28.6388 139.367 27.8146 139.367 26.7501C139.367 26.1663 138.955 25.6856 138.371 25.3766C137.993 25.1362 137.272 24.8958 136.757 24.7241C136.242 24.5524 135.212 24.2434 134.628 24.003C131.847 23.0072 130.37 21.5993 130.336 19.1268C130.336 17.5129 130.919 16.2767 132.087 15.3495C133.289 14.4224 134.731 13.9417 136.448 13.9417C138.886 13.9417 140.74 14.8001 142.08 16.4827L139.779 18.9208C139.024 17.9593 137.89 17.4786 136.414 17.4786C135.143 17.4786 134.319 18.0967 134.319 19.0238C134.319 19.6076 134.628 19.9166 135.109 20.2257C135.384 20.3974 136.07 20.6721 136.517 20.8438C137.032 20.9811 137.993 21.3245 138.68 21.5649C141.874 22.6981 143.35 24.2434 143.35 26.7158C143.35 29.9093 140.947 32.2444 136.242 32.2444C132.774 32.2444 130.164 30.9051 129.065 28.7418L131.709 26.4754Z" fill="#2C303D"/>
<path d="M158.082 21.1871C158.082 20.1569 157.635 19.2641 156.777 18.543C155.918 17.7875 154.922 17.4098 153.721 17.4098C152.45 17.4098 151.317 17.7875 150.39 18.5086C149.463 19.2298 148.947 20.1226 148.844 21.1871H158.082ZM144.621 23.0757C144.621 20.3286 145.479 18.1309 147.162 16.414C148.879 14.7313 151.042 13.9072 153.686 13.8729C156.193 13.8729 158.253 14.697 159.867 16.3796C161.481 18.0622 162.271 20.1226 162.305 22.595C162.305 23.1101 162.271 23.5908 162.237 24.0372L148.741 24.0716C148.879 26.8187 150.905 28.6043 153.995 28.6043C155.781 28.6043 157.326 27.9519 158.665 26.6127L161.138 29.0164C159.18 31.0767 156.777 32.1412 153.858 32.1412C151.145 32.1412 148.913 31.3171 147.196 29.7032C145.514 28.0892 144.655 25.9259 144.621 23.2131V23.0757Z" fill="#2C303D"/>
<path d="M168.59 26.1663C166.941 26.1663 165.602 27.5055 165.602 29.1538C165.602 30.802 166.941 32.1413 168.59 32.1413C170.238 32.1413 171.577 30.802 171.577 29.1538C171.577 27.5055 170.238 26.1663 168.59 26.1663Z" fill="#2C303D"/>
<path d="M183.733 15.2466L169.036 19.9511L169.002 8.65352L183.699 3.94907L183.733 15.2466ZM186.515 6.04375V0.103088L166.255 6.62751L166.289 23.8314L186.549 17.307L186.515 6.04375Z" fill="#2C303D"/>
<path d="M201.521 15.4526L186.514 20.26L186.48 8.96249L200.284 4.49841L197.125 11.1945L201.521 15.4526ZM205.298 0L183.733 6.90215V24.106L206.706 16.7231L200.456 10.6451L205.298 0Z" fill="#2C303D"/>
</svg>