<svg width="180" height="51" viewBox="0 0 180 51" fill="none" xmlns="http://www.w3.org/2000/svg">
<path d="M9.64281 0.17856C5.9762 1.71658 1.94537 6.06169 0.672301 11.5157C-0.939939 18.4262 5.76935 21.3485 6.31964 20.3903C6.96734 19.2645 5.11742 18.8837 4.73663 15.2982C4.24448 10.6673 6.39289 5.49271 9.09672 3.22226C9.59932 2.80044 9.57541 3.38755 9.57541 4.47353C9.57541 6.41552 9.46833 23.8489 9.46833 27.4872C9.46833 32.4104 9.26541 33.965 8.90098 35.5012C8.53172 37.058 7.93808 38.1099 8.38791 38.5151C8.89048 38.9683 11.0363 37.8902 12.2785 36.1528C13.7681 34.069 14.2896 31.5665 14.3832 28.8489C14.4963 25.5728 14.4915 20.3744 14.4963 17.4093C14.5008 14.6898 14.542 6.72655 14.4487 1.93935C14.4258 0.76515 11.1762 -0.466761 9.64263 0.177131L9.64281 0.17856ZM139.844 23.2186C139.726 25.778 139.16 27.7785 138.459 29.1896C137.1 31.9214 134.282 32.7697 133.085 28.8426C132.433 26.702 132.402 23.1269 132.871 20.1397C133.348 17.0966 134.681 14.7984 136.888 15.0056C139.065 15.2105 140.084 18.0213 139.844 23.2186ZM103.148 39.0979C103.118 43.3506 102.45 47.0792 101.018 48.1622C98.9868 49.6978 96.2565 48.5459 96.8219 45.4427C97.3221 42.6967 99.6879 39.8923 103.154 36.4657C103.154 36.4657 103.161 37.2471 103.148 39.0979ZM102.593 23.1938C102.469 25.5249 101.866 27.8668 101.208 29.1899C99.8498 31.9217 97.0106 32.7757 95.834 28.8429C95.0296 26.1559 95.2222 22.6782 95.6203 20.4869C96.1368 17.6438 97.3887 15.0062 99.6372 15.0062C101.823 15.0062 102.901 17.4095 102.593 23.1938ZM81.335 23.1581C81.2017 25.627 80.7211 27.6909 79.9498 29.1899C78.5543 31.9029 75.7935 32.7633 74.5759 28.8429C73.6982 26.016 73.997 22.1615 74.3621 20.0793C74.904 16.9893 76.2609 14.7986 78.3791 15.0062C80.555 15.2193 81.6127 18.0214 81.335 23.1581ZM178.756 26.0419C178.224 26.0419 177.981 26.5913 177.781 27.5162C177.084 30.7318 176.352 31.4579 175.408 31.4579C174.353 31.4579 173.405 29.8656 173.162 26.6783C172.97 24.172 173.001 19.5578 173.246 14.9679C173.296 14.0248 173.036 13.0918 170.512 12.1729C169.426 11.7776 167.847 11.1957 167.061 13.0972C164.84 18.4694 163.971 22.7344 163.767 24.467C163.756 24.5567 163.646 24.575 163.627 24.3655C163.497 22.9778 163.206 20.4561 163.169 15.158C163.162 14.1242 162.944 13.2443 161.805 12.524C161.067 12.0565 158.823 11.2298 158.015 12.2134C157.316 13.0177 156.505 15.1824 155.663 17.7484C154.978 19.8339 154.502 21.2448 154.502 21.2448C154.502 21.2448 154.511 15.6175 154.519 13.4831C154.522 12.6778 153.971 12.4095 153.805 12.3608C153.057 12.1432 151.583 11.7798 150.958 11.7798C150.186 11.7798 149.997 12.2122 149.997 12.8422C149.997 12.9247 149.875 20.2509 149.875 25.3738C149.875 25.5963 149.875 25.8391 149.877 26.097C149.45 28.4515 148.065 31.6478 146.56 31.6478C145.052 31.6478 144.341 30.3115 144.341 24.2043C144.341 20.6414 144.447 19.0922 144.5 16.5154C144.53 15.0312 144.589 13.8914 144.586 13.6327C144.575 12.8396 143.206 12.4398 142.569 12.2921C141.929 12.1431 141.373 12.0854 140.939 12.1101C140.325 12.1449 139.89 12.5489 139.89 13.1046C139.89 13.4025 139.893 13.969 139.893 13.969C139.102 12.7226 137.829 11.8551 136.982 11.6037C134.7 10.9248 132.32 11.5264 130.524 14.0443C129.097 16.0449 128.237 18.3108 127.898 21.5664C127.65 23.9464 127.731 26.3599 128.171 28.401C127.64 30.7042 126.653 31.6478 125.572 31.6478C124.003 31.6478 122.866 29.0816 122.998 24.6436C123.085 21.7245 123.668 19.676 124.305 16.7124C124.577 15.449 124.356 14.7876 123.802 14.1537C123.295 13.5723 122.213 13.2753 120.657 13.6406C119.55 13.9011 117.966 14.1812 116.516 14.3963C116.516 14.3963 116.604 14.0467 116.676 13.4303C117.053 10.1977 113.547 10.46 112.429 11.4925C111.761 12.1089 111.307 12.8359 111.134 14.1431C110.861 16.2175 112.549 17.1959 112.549 17.1959C111.995 19.7368 110.638 23.056 109.236 25.4558C108.485 26.7416 107.911 27.6943 107.169 28.7071C107.166 28.33 107.164 27.9529 107.163 27.5775C107.146 22.2356 107.217 18.0313 107.248 16.5159C107.279 15.0317 107.338 13.9221 107.335 13.6635C107.326 13.0833 106.988 12.8643 106.285 12.5869C105.663 12.3415 104.928 12.1717 104.166 12.1125C103.203 12.0372 102.623 12.5488 102.638 13.1537C102.641 13.2679 102.641 13.9693 102.641 13.9693C101.85 12.7228 100.577 11.8553 99.7299 11.6039C97.4485 10.9253 95.0679 11.5269 93.2723 14.0445C91.8455 16.0451 90.911 18.8525 90.6463 21.5418C90.3997 24.0482 90.4452 26.1782 90.7814 27.9724C90.4187 29.7691 89.3757 31.648 88.1964 31.648C86.6887 31.648 85.8309 30.3117 85.8309 24.2045C85.8309 20.6417 85.9376 19.0925 85.9901 16.5159C86.0205 15.0317 86.0793 13.8916 86.076 13.6333C86.0649 12.8401 84.6962 12.4403 84.0594 12.2923C83.393 12.1379 82.8177 12.081 82.3759 12.1137C81.7931 12.1572 81.3833 12.6802 81.3833 13.0703V13.9693C80.5918 12.7228 79.3188 11.8553 78.4717 11.6039C76.1904 10.9253 73.8231 11.5366 72.0142 14.0445C70.8346 15.6798 69.8797 17.4928 69.3882 21.5061C69.2462 22.6659 69.1834 23.752 69.1916 24.7671C68.7212 27.6498 66.6437 30.9723 64.9442 30.9723C63.9498 30.9723 63.0027 29.0394 63.0027 24.92C63.0027 19.4327 63.3416 11.6199 63.3989 10.867C63.3989 10.867 65.5461 10.8304 65.9619 10.8255C67.0329 10.8138 68.003 10.8391 69.4295 10.766C70.145 10.7295 70.8343 8.15623 70.0959 7.83776C69.7612 7.69362 67.3957 7.56733 66.4579 7.54738C65.6694 7.52947 63.4743 7.36668 63.4743 7.36668C63.4743 7.36668 63.6712 2.18093 63.717 1.63312C63.7559 1.17655 63.1664 0.941474 62.8284 0.798833C62.0065 0.450446 61.271 0.283642 60.3993 0.103555C59.195 -0.145415 58.6486 0.0981159 58.5419 1.11671C58.3812 2.6626 58.2979 7.19051 58.2979 7.19051C57.4142 7.19051 54.3952 7.01739 53.5112 7.01739C52.6898 7.01739 51.8033 10.5572 52.9389 10.6007C54.2454 10.6515 56.5222 10.6953 58.0317 10.741C58.0317 10.741 57.9644 18.6824 57.9644 21.1342C57.9644 21.395 57.9667 21.6462 57.9672 21.89C57.1364 26.229 54.2104 28.5729 54.2104 28.5729C54.8388 25.7024 53.5552 23.5467 51.2431 21.722C50.3912 21.0495 48.7096 19.7765 46.8281 18.3815C46.8281 18.3815 47.9178 17.3052 48.8842 15.1399C49.569 13.6061 49.5985 11.8508 47.9178 11.4638C45.1407 10.8238 42.8509 12.8676 42.1679 15.0496C41.6387 16.7399 41.921 17.9942 42.9576 19.2971C43.0333 19.3923 43.1153 19.4896 43.2001 19.5875C42.5732 20.7983 41.712 22.4285 40.9826 23.6927C38.9581 27.2026 37.4288 29.9789 36.273 29.9789C35.3491 29.9789 35.3615 27.1602 35.3615 24.5212C35.3615 22.2461 35.5292 18.8257 35.663 15.2843C35.7074 14.1132 35.123 13.446 34.1433 12.8417C33.5481 12.4745 32.2778 11.7527 31.542 11.7527C30.4408 11.7527 27.2636 11.9028 24.2616 20.6049C23.8833 21.7017 23.1401 23.7002 23.1401 23.7002L23.204 13.2357C23.204 12.9903 23.0736 12.7531 22.775 12.5908C22.2692 12.3156 20.918 11.7527 19.7166 11.7527C19.1442 11.7527 18.8586 12.0195 18.8586 12.5513L18.7538 28.9231C18.7538 30.1671 18.7861 31.6183 18.9089 32.253C19.0311 32.8885 19.2292 33.4055 19.4746 33.7131C19.7196 34.0201 20.003 34.2542 20.4702 34.3509C20.9051 34.4406 23.2864 34.747 23.4101 33.8351C23.5584 32.7422 23.5641 31.5602 24.8145 27.1515C26.7611 20.2879 29.2992 16.939 30.4923 15.7497C30.7009 15.5418 30.9391 15.5294 30.9276 15.8696C30.8767 17.3744 30.6976 21.1345 30.577 24.329C30.2538 32.8779 31.8057 34.4624 34.0235 34.4624C35.7202 34.4624 38.1119 32.773 40.6758 28.4965C42.2742 25.8314 43.8262 23.2183 44.9412 21.3349C45.7183 22.0557 46.5903 22.8316 47.4617 23.6604C49.4868 25.5864 50.1517 27.4166 49.7105 29.1528C49.3731 30.4801 48.1025 31.8479 45.841 30.5184C45.1819 30.1306 44.9005 29.8309 44.2378 29.3936C43.8817 29.1587 43.338 29.0885 43.0121 29.3346C42.1654 29.9743 41.6811 30.788 41.4046 31.7954C41.1357 32.7757 42.1153 33.2939 43.1309 33.7471C44.0053 34.1372 45.8847 34.4907 47.0833 34.531C51.7534 34.6875 55.4945 32.2713 58.0988 26.0389C58.5649 31.4214 60.549 34.4672 63.9961 34.4672C66.3007 34.4672 68.6113 31.482 69.6217 28.5454C69.9118 29.7425 70.3412 30.7834 70.8957 31.6637C73.5518 35.881 78.7047 34.9733 81.293 31.3921C82.0933 30.2856 82.2151 29.8879 82.2151 29.8879C82.5926 33.2694 85.31 34.4509 86.8659 34.4509C88.6084 34.4509 90.4076 33.6254 91.6686 30.7805C91.8164 31.0893 91.9777 31.3841 92.1538 31.6636C94.81 35.8809 99.9628 34.9732 102.551 31.3921C102.673 31.2241 102.779 31.0717 102.872 30.9349L102.948 33.156C102.948 33.156 101.471 34.5134 100.565 35.3461C96.5754 39.0138 93.542 41.7964 93.3189 45.0368C93.0325 49.1686 96.3764 50.7042 98.9062 50.9055C101.593 51.1191 103.894 49.6319 105.308 47.5505C106.551 45.7185 107.366 41.7756 107.306 37.8813C107.282 36.3218 107.243 34.339 107.212 32.2136C108.614 30.5819 110.194 28.5196 111.649 26.1057C113.234 23.475 114.933 19.9421 115.802 17.1927C115.802 17.1927 117.278 17.2054 118.854 17.1021C119.357 17.0691 119.502 17.1722 119.409 17.5423C119.297 17.9895 117.419 25.2469 119.133 30.0815C120.305 33.3911 122.95 34.456 124.517 34.456C126.352 34.456 128.108 33.0672 129.049 31.005C129.162 31.2349 129.28 31.4573 129.41 31.6627C132.066 35.88 137.201 34.9669 139.807 31.3911C140.395 30.5844 140.729 29.8869 140.729 29.8869C141.289 33.3866 144.004 34.4677 145.56 34.4677C147.18 34.4677 148.718 33.802 149.966 30.8436C150.018 32.1462 150.1 33.2113 150.23 33.5471C150.309 33.7525 150.769 34.0103 151.104 34.1348C152.587 34.6857 154.098 34.4252 154.658 34.3119C155.045 34.2333 155.347 33.9218 155.389 33.1174C155.497 31.0053 155.431 27.4566 156.07 24.8193C157.142 20.3932 158.143 18.6763 158.617 17.8264C158.883 17.3501 159.183 17.2716 159.193 17.7756C159.216 18.7954 159.266 21.7902 159.682 25.8138C159.987 28.773 160.395 30.5221 160.708 31.0757C161.602 32.6587 162.706 32.7337 163.605 32.7337C164.177 32.7337 165.374 32.5753 165.266 31.5679C165.214 31.0768 165.306 28.0422 166.363 23.6817C167.054 20.8341 168.205 18.2611 168.62 17.3205C168.773 16.9736 168.844 17.2471 168.842 17.3003C168.755 19.2614 168.558 25.6757 169.356 29.1839C170.436 33.9363 173.562 34.4681 174.652 34.4681C176.978 34.4681 178.88 32.6953 179.52 28.0305C179.675 26.9079 179.446 26.0411 178.761 26.0411" fill="#2C303D"/>
</svg>