<svg width="205" height="61" viewBox="0 0 205 61" fill="none" xmlns="http://www.w3.org/2000/svg">
<path d="M31.2557 0C14.3838 0 0.705811 13.6556 0.705811 30.5002C0.705811 47.3455 14.3838 61 31.2557 61C48.1294 61 61.8059 47.3455 61.8059 30.5002C61.8059 13.6566 48.1294 0.00145686 31.2553 0.00145686L31.2557 0ZM45.2657 43.99C44.7184 44.886 43.5438 45.1701 42.6464 44.6201C35.4736 40.2459 26.4439 39.2552 15.8098 41.6809C14.7851 41.914 13.7636 41.273 13.5302 40.2495C13.2956 39.2261 13.9351 38.2063 14.9624 37.9732C26.5997 35.3188 36.5818 36.4617 44.6345 41.3749C45.532 41.9249 45.8165 43.094 45.2657 43.99ZM49.0049 35.6852C48.3154 36.804 46.8489 37.1573 45.729 36.469C37.5172 31.4297 24.9996 29.9702 15.2867 32.9138C14.027 33.2937 12.6966 32.585 12.3143 31.3295C11.9349 30.0719 12.6452 28.7461 13.9026 28.3637C24.9974 25.0027 38.7904 26.6307 48.2206 32.4163C49.3405 33.1047 49.6944 34.5688 49.0049 35.6855V35.6852ZM49.3259 27.0372C39.4798 21.1985 23.2351 20.6616 13.8344 23.5101C12.3249 23.9672 10.7285 23.1164 10.271 21.6093C9.81353 20.1014 10.665 18.5087 12.1756 18.0505C22.9669 14.7799 40.9062 15.4118 52.2422 22.1305C53.6029 22.935 54.048 24.6858 53.2417 26.0396C52.4392 27.3952 50.6808 27.8421 49.3274 27.0372H49.3259ZM83.8219 28.1561C78.5468 26.9003 77.6093 26.0189 77.6093 24.1668C77.6093 22.4171 79.2582 21.2396 81.7133 21.2396C84.0919 21.2396 86.4485 22.1338 88.9219 23.9745C88.9948 24.0302 89.0897 24.0525 89.1809 24.0379C89.2757 24.0241 89.356 23.9734 89.4107 23.8973L91.9862 20.2726C92.092 20.1233 92.0628 19.9175 91.9206 19.8035C88.9766 17.4459 85.6642 16.2998 81.7899 16.2998C76.0953 16.2998 72.1153 19.7121 72.1153 24.5944C72.1153 29.83 75.5481 31.6839 81.4798 33.1149C86.5251 34.2756 87.3787 35.2481 87.3787 36.9861C87.3787 38.9128 85.6569 40.1111 82.8843 40.1111C79.8054 40.1111 77.2919 39.0731 74.4829 36.6474C74.4136 36.5855 74.3187 36.56 74.2312 36.5636C74.1363 36.5709 74.0524 36.6146 73.994 36.6838L71.1048 40.1148C70.9844 40.2604 70.999 40.4717 71.1376 40.5955C74.4063 43.5093 78.4264 45.0462 82.7676 45.0462C88.9036 45.0462 92.8691 41.6991 92.8691 36.5163C92.88 32.1432 90.2571 29.7211 83.8328 28.1608L83.8219 28.1561ZM106.754 22.9624C104.094 22.9624 101.913 24.0084 100.11 26.1518V23.7392C100.11 23.5488 99.9572 23.3936 99.7675 23.3936H95.0433C94.8536 23.3936 94.7004 23.5488 94.7004 23.7392V50.5459C94.7004 50.7353 94.8536 50.8919 95.0433 50.8919H99.7675C99.9572 50.8919 100.11 50.7353 100.11 50.5459V42.0852C101.913 44.0993 104.094 45.0863 106.754 45.0863C111.697 45.0863 116.702 41.2875 116.702 34.0254C116.709 26.7619 111.704 22.962 106.757 22.962L106.754 22.9624ZM111.208 34.0254C111.208 37.7219 108.928 40.3041 105.659 40.3041C102.431 40.3041 99.9937 37.6053 99.9937 34.0254C99.9937 30.4452 102.431 27.7471 105.659 27.7471C108.873 27.7467 111.208 30.3865 111.208 34.0251V34.0254ZM129.525 22.9624C123.159 22.9624 118.172 27.856 118.172 34.1045C118.172 40.2859 123.126 45.1264 129.448 45.1264C135.836 45.1264 140.837 40.2495 140.837 34.0254C140.837 27.8225 135.869 22.9631 129.525 22.9631V22.9624ZM129.525 40.3406C126.139 40.3406 123.586 37.6235 123.586 34.0236C123.586 30.4073 126.052 27.7831 129.448 27.7831C132.855 27.7831 135.424 30.4991 135.424 34.1026C135.424 37.7182 132.943 40.3406 129.525 40.3406ZM154.43 23.3936H149.231V18.0884C149.231 17.8983 149.078 17.7431 148.889 17.7431H144.164C143.975 17.7431 143.818 17.8983 143.818 18.0884V23.3936H141.549C141.359 23.3936 141.206 23.5488 141.206 23.7392V27.7919C141.206 27.982 141.359 28.1375 141.549 28.1375H143.818V38.6251C143.818 42.8609 145.93 45.0098 150.1 45.0098C151.792 45.0098 153.197 44.6602 154.521 43.9099C154.631 43.8516 154.696 43.7351 154.696 43.6112V39.7505C154.696 39.634 154.634 39.5211 154.532 39.4592C154.43 39.3936 154.302 39.39 154.196 39.4446C153.288 39.8999 152.409 40.1111 151.424 40.1111C149.91 40.1111 149.231 39.4227 149.231 37.8858V28.1393H154.43C154.62 28.1393 154.773 27.9842 154.773 27.7937V23.7414C154.78 23.5509 154.627 23.3958 154.434 23.3958L154.43 23.3936ZM172.539 23.4144V22.7628C172.539 20.8459 173.276 19.9911 174.925 19.9911C175.91 19.9911 176.701 20.1863 177.588 20.4813C177.697 20.5156 177.81 20.4984 177.898 20.4333C177.989 20.3681 178.04 20.2635 178.04 20.1528V16.1792C178.04 16.0273 177.945 15.8929 177.796 15.8481C176.862 15.5702 175.665 15.2851 173.87 15.2851C169.511 15.2851 167.202 17.7377 167.202 22.3752V23.3732H164.933C164.743 23.3732 164.586 23.5284 164.586 23.7185V27.7919C164.586 27.982 164.743 28.1375 164.933 28.1375H167.202V44.3105C167.202 44.5036 167.359 44.6565 167.548 44.6565H172.269C172.462 44.6565 172.615 44.5036 172.615 44.3105V28.1386H177.026L183.782 44.3105C183.016 46.0078 182.261 46.3465 181.232 46.3465C180.4 46.3465 179.521 46.0988 178.627 45.6071C178.544 45.5634 178.441 45.5561 178.354 45.5816C178.263 45.6144 178.186 45.68 178.15 45.7674L176.548 49.2748C176.471 49.4423 176.537 49.6354 176.698 49.7228C178.368 50.626 179.875 51.0121 181.739 51.0121C185.227 51.0121 187.157 49.3877 188.853 45.0244L197.046 23.8864C197.09 23.78 197.076 23.6598 197.01 23.5655C196.948 23.4719 196.842 23.4155 196.729 23.4155H191.811C191.662 23.4155 191.531 23.5091 191.483 23.6471L186.445 38.0096L180.929 23.6376C180.878 23.504 180.751 23.4155 180.608 23.4155H172.539V23.4144ZM162.04 23.3936H157.316C157.126 23.3936 156.969 23.5488 156.969 23.7392V44.3105C156.969 44.5036 157.126 44.6565 157.316 44.6565H162.04C162.229 44.6565 162.386 44.5036 162.386 44.3105V23.7407C162.386 23.5502 162.233 23.3951 162.04 23.3951V23.3936ZM159.705 14.0263C157.834 14.0263 156.316 15.5385 156.316 17.4066C156.316 19.2758 157.834 20.7898 159.705 20.7898C161.576 20.7898 163.09 19.2758 163.09 17.4066C163.09 15.5389 161.573 14.0263 159.705 14.0263ZM201.081 30.0081C199.213 30.0081 197.758 28.5094 197.758 26.6894C197.758 24.8694 199.232 23.3535 201.099 23.3535C202.967 23.3535 204.423 24.8519 204.423 26.6704C204.423 28.4904 202.949 30.0081 201.081 30.0081ZM201.099 23.6835C199.396 23.6835 198.108 25.0348 198.108 26.6894C198.108 28.3433 199.389 29.6763 201.081 29.6763C202.785 29.6763 204.073 28.3262 204.073 26.6704C204.073 25.0165 202.792 23.6835 201.099 23.6835ZM201.836 27.0117L202.778 28.3258H201.982L201.136 27.1203H200.41V28.3258H199.746V24.8424H201.3C202.114 24.8424 202.646 25.2566 202.646 25.9537C202.65 26.5248 202.318 26.8737 201.84 27.0117H201.836ZM201.275 25.4401H200.41V26.5419H201.275C201.705 26.5419 201.964 26.331 201.964 25.9905C201.964 25.6321 201.705 25.4401 201.275 25.4401Z" fill="#2C303D"/>
</svg>