<svg width="189" height="30" viewBox="0 0 189 30" fill="none" xmlns="http://www.w3.org/2000/svg">
<path d="M63.6938 26.178C61.1177 25.484 58.7538 23.5269 57.5443 21.0871C56.6175 19.2173 56.6186 19.2304 56.6164 10.6369C56.5066 3.20318 56.5486 2.96332 57.0442 2.24639C58.0967 0.491195 60.4176 0.116374 61.9394 1.45585C63.0078 2.39629 63.0927 2.71565 63.0927 5.79276V8.46128H67.5813C70.3268 8.46128 72.3312 8.51735 72.743 8.60566C75.0855 9.10802 75.9747 11.9092 74.3483 13.6625C74.1567 13.8692 73.7619 14.1666 73.471 14.3236C72.9606 14.599 72.7711 14.6104 68.0174 14.6494L63.0927 14.6898V15.8799C63.0927 17.6107 63.2722 18.177 64.0756 18.9804C65.0138 19.9186 65.2643 19.9628 69.6625 19.9663C73.0747 19.9688 73.3816 19.9886 73.9337 20.2385C76.0286 21.1867 76.5504 23.7115 75.0058 25.4249C74.1029 26.4264 74.0433 26.4364 69.0421 26.4307C65.1385 26.4263 64.504 26.3963 63.6938 26.178ZM83.6818 26.2348C81.6479 25.742 79.5488 24.1967 78.2658 22.2477C77.0835 20.4516 76.853 19.1879 76.8469 14.4677C76.8417 10.397 76.9235 9.88434 77.7065 9.07803C78.4314 8.33168 78.8932 8.13823 79.9596 8.13425C80.7739 8.13103 80.9794 8.1827 81.5426 8.53087C81.9433 8.77863 82.3421 9.17728 82.5899 9.57773C83.0859 10.4373 82.9949 10.7979 83.0561 14.3337C83.1208 18.3581 83.1286 18.4533 83.4322 18.9416C84.4577 20.591 86.5782 20.8341 87.9849 19.4634C88.7969 18.6721 88.8733 18.2072 88.8733 14.0509C88.8733 10.6332 88.8886 10.4032 89.1526 9.87724C89.6814 8.8236 90.448 8.26588 91.5812 8.11056C92.7938 7.94435 94.1015 8.65915 94.728 9.83061C95.0073 10.3527 95.024 10.567 95.087 14.4208C95.0645 17.6267 95.2153 18.5649 95.5178 19.0139C96.4853 20.4746 98.519 20.7888 99.7889 19.6738C100.699 18.8746 100.699 18.8773 100.773 14.4106C100.838 10.5766 100.855 10.3514 101.132 9.83061C102.296 7.64487 105.24 7.5071 106.52 9.57852C107.348 10.7264 106.985 13.1554 106.985 14.7218C107.045 16.783 106.924 19.426 106.564 20.2405C105.583 23.0081 103.399 25.2062 100.772 26.0701C99.5802 26.462 96.9538 26.556 95.7705 26.2492C94.6296 25.9534 93.6423 25.5003 92.7028 24.8412L91.914 24.2879L91.1254 24.8411C90.1718 25.5101 89.2065 25.9632 88.1514 26.237C87.168 26.4923 84.7396 26.4911 83.6818 26.2348ZM111.14 26.2541C110.538 25.9918 109.786 25.2836 109.457 24.6693C109.17 24.1323 109.167 24.073 109.167 17.3192C109.167 10.8201 109.179 10.4867 109.427 9.98737C110.456 7.91112 113.114 7.44382 114.726 9.05576C115.729 10.0583 115.726 10.0335 115.683 17.5328C115.646 24.0056 115.64 24.1378 115.36 24.6568C114.99 25.3397 114.32 25.9779 113.7 26.2366C113.1 26.4867 111.696 26.4963 111.14 26.2541ZM125.014 26.1796C122.075 25.4091 119.516 23.0874 118.436 20.2105C117.853 18.6581 117.807 17.8672 117.851 10.18C117.892 3.08964 117.897 2.96621 118.178 2.44582C119.579 -0.149278 123.411 0.179233 124.243 2.9656C124.383 3.4357 124.437 4.28979 124.437 6.02724V8.4369L127.577 8.48475C130.481 8.52899 130.757 8.55392 131.246 8.81536C133.544 10.044 133.554 13.0924 131.265 14.3158C130.751 14.5901 130.52 14.6112 127.566 14.6524L124.416 14.6963L124.459 16.2391C124.511 18.0396 124.716 18.5792 125.609 19.264C126.391 19.8637 126.884 19.9616 129.131 19.9639C130.933 19.9656 131.175 19.9943 131.782 20.2772C134.321 21.4596 134.319 25.0399 131.778 26.1942C130.992 26.551 126.393 26.5411 125.014 26.1796ZM141.845 26.186C138.516 25.2753 135.783 22.4785 134.921 19.1004C134.709 18.27 134.685 17.4318 134.684 10.6428C134.735 3.59578 134.385 3.87134 135.045 2.42102C135.805 0.97985 137.373 0.34483 139.034 0.805877C139.726 0.998087 140.891 2.16281 141.083 2.85505C141.163 3.14319 141.226 4.49594 141.227 5.91633L141.228 8.46134H143.92C147.004 8.46134 147.822 8.57556 148.565 9.10935C150.174 10.2651 150.21 12.8549 148.634 13.9967C147.848 14.5663 147.104 14.6751 143.998 14.6751H141.228V15.8726C141.228 17.4497 141.409 18.1128 142.033 18.8219C142.884 19.7887 143.2 19.8808 145.932 19.9601C148.31 20.0292 148.326 20.0316 148.973 20.4309C149.713 20.8882 150.399 21.8989 150.531 22.7304C150.724 23.9339 150.093 25.2892 149.006 26.0094L148.453 26.3755L145.601 26.4042C143.165 26.4286 142.616 26.3967 141.845 26.186ZM158.349 26.2458C156.416 25.7239 154.992 24.8661 153.598 23.3842C151.904 21.5842 151.141 19.6003 151.146 17.0132C151.149 15.4328 151.419 14.1974 152.049 12.8903C152.714 11.5096 153.443 10.6093 154.517 9.84264C157.645 7.61046 163.206 7.47098 166.708 9.53682C167.961 10.2763 169.265 11.6758 169.9 12.9641C171.185 15.5691 171.056 17.9287 169.586 18.6958C169.078 18.9612 168.841 18.9733 163.472 19.0091L157.886 19.0462V19.3931C157.886 19.9338 158.747 20.6666 159.694 20.9325C160.34 21.1137 161.12 21.1535 164.042 21.1541C166.02 21.1541 167.816 21.2139 168.081 21.2876C170.357 21.9198 170.813 24.934 168.811 26.1076C168.162 26.5461 167.771 26.4359 163.625 26.433C160.188 26.4265 158.841 26.3787 158.349 26.2458ZM164.161 14.5098C163.912 13.6757 163.198 13.1819 161.894 12.9406C160.506 12.6841 158.565 13.2582 158.19 14.0361C158.026 14.3787 157.868 14.7687 157.868 14.7687C157.868 14.7687 159.023 14.8073 161.072 14.8073H164.25L164.161 14.5098ZM174.138 26.1871C173.456 25.8169 172.731 24.9571 172.558 24.3153C172.457 23.9401 172.425 22.4723 172.458 19.7797C172.506 15.8578 172.512 15.7828 172.869 14.7128C173.808 11.8946 176.318 9.55708 179.237 8.78227C180.311 8.49744 185.266 8.36096 186.346 8.58645C187.847 8.89958 188.823 10.0578 188.823 11.5272C188.823 12.7803 188.253 13.75 187.186 14.3138C186.684 14.5792 186.396 14.6074 183.534 14.6716C180.567 14.7381 180.405 14.7551 179.929 15.0512C179.3 15.442 178.842 16.0445 178.656 16.7243C178.569 17.0433 178.512 18.6199 178.511 20.6977C178.51 24.1413 178.51 24.1423 178.167 24.8319C177.935 25.2976 177.623 25.6598 177.208 25.9473C176.668 26.321 176.472 26.3772 175.602 26.4084C174.823 26.4363 174.509 26.3889 174.138 26.1871ZM110.978 6.13574C108.879 5.08988 108.498 2.32761 110.241 0.797247C110.92 0.201083 111.466 0 112.406 0C113.721 0 114.743 0.614472 115.334 1.7608C116.746 4.50179 113.746 7.51515 110.978 6.13574Z" fill="#2C303D"/>
<path d="M12.1381 30C26.1408 30 33.7742 18.4355 33.7742 8.46774C33.7742 8.12903 33.7742 7.79032 33.7742 7.5C35.2814 6.43548 36.5455 5.08065 37.5665 3.58065C36.2052 4.16129 34.7466 4.59677 33.1907 4.79032C34.7466 3.87097 35.9621 2.37097 36.5455 0.580645C35.0869 1.45161 33.4338 2.08065 31.7321 2.41935C30.3221 0.919355 28.3773 0 26.1894 0C21.9594 0 18.556 3.3871 18.556 7.59677C18.556 8.17742 18.6046 8.75806 18.7505 9.33871C12.4299 9 6.83854 6 3.04616 1.40323C2.4141 2.51613 2.02514 3.82258 2.02514 5.17742C2.02514 7.79032 3.3865 10.1129 5.42855 11.4677C4.16443 11.4194 2.99754 11.0806 1.97652 10.5C1.97652 10.5484 1.97652 10.5484 1.97652 10.5968C1.97652 14.2742 4.60201 17.3226 8.10267 18C7.4706 18.1935 6.78992 18.2903 6.10924 18.2903C5.62303 18.2903 5.13683 18.2419 4.69925 18.1452C5.67165 21.1452 8.49163 23.3226 11.7978 23.4194C9.17231 25.4516 5.91475 26.6613 2.36548 26.6613C1.73341 26.6613 1.14997 26.6129 0.566528 26.5645C3.8727 28.7419 7.85956 30 12.1381 30Z" fill="#2C303D"/>
</svg>