<svg width="202" height="45" viewBox="0 0 202 45" fill="none" xmlns="http://www.w3.org/2000/svg">
<path d="M62.9471 7.04118C62.2059 4.28824 60.0353 2.11765 57.2823 1.37647C52.2529 0 32.1353 0 32.1353 0C32.1353 0 12.0176 0 6.98823 1.32353C4.28824 2.06471 2.06471 4.28824 1.32353 7.04118C0 12.0706 0 22.5 0 22.5C0 22.5 0 32.9824 1.32353 37.9588C2.06471 40.7118 4.23529 42.8824 6.98823 43.6235C12.0706 45 32.1353 45 32.1353 45C32.1353 45 52.2529 45 57.2823 43.6765C60.0353 42.9353 62.2059 40.7647 62.9471 38.0118C64.2706 32.9824 64.2706 22.5529 64.2706 22.5529C64.2706 22.5529 64.3235 12.0706 62.9471 7.04118Z" fill="#2C303D"/>
<path d="M25.7294 12.8647V32.1353L42.4588 22.5L25.7294 12.8647Z" fill="#1A1D25"/>
<path d="M93.3354 40.9765C92.0648 40.1295 91.1648 38.806 90.6354 36.953C90.106 35.153 89.8413 32.7177 89.8413 29.753V25.6765C89.8413 22.6589 90.159 20.2236 90.7413 18.3707C91.3766 16.5177 92.3295 15.1942 93.6001 14.3471C94.9237 13.5001 96.6178 13.0765 98.7354 13.0765C100.8 13.0765 102.494 13.5001 103.765 14.3471C105.035 15.1942 105.935 16.5707 106.518 18.3707C107.1 20.1707 107.418 22.6059 107.418 25.6765V29.753C107.418 32.7707 107.153 35.153 106.571 37.006C105.988 38.806 105.088 40.1824 103.818 41.0295C102.547 41.8765 100.8 42.3001 98.6295 42.3001C96.406 42.2471 94.606 41.8236 93.3354 40.9765ZM100.482 36.5295C100.853 35.6295 101.012 34.0942 101.012 32.0295V23.2412C101.012 21.2295 100.853 19.7471 100.482 18.7942C100.112 17.8412 99.5295 17.4177 98.6295 17.4177C97.7825 17.4177 97.1472 17.8942 96.8295 18.7942C96.459 19.7471 96.3001 21.2295 96.3001 23.2412V32.0295C96.3001 34.0942 96.459 35.6295 96.8295 36.5295C97.1472 37.4295 97.7825 37.906 98.6825 37.906C99.5295 37.906 100.112 37.4824 100.482 36.5295Z" fill="#2C303D"/>
<path d="M191.065 29.806V31.2354C191.065 33.0354 191.118 34.4119 191.223 35.3119C191.329 36.2119 191.541 36.9001 191.912 37.2707C192.229 37.6942 192.759 37.906 193.5 37.906C194.453 37.906 195.088 37.5354 195.459 36.7942C195.829 36.0531 195.988 34.8354 196.041 33.0883L201.494 33.406C201.547 33.6707 201.547 33.9883 201.547 34.4119C201.547 37.006 200.859 38.9648 199.429 40.2354C198 41.506 195.988 42.1413 193.394 42.1413C190.271 42.1413 188.1 41.1354 186.829 39.1766C185.559 37.2178 184.923 34.2001 184.923 30.0707V25.1472C184.923 20.9119 185.559 17.8413 186.882 15.8825C188.206 13.9236 190.429 12.9707 193.553 12.9707C195.723 12.9707 197.418 13.3942 198.582 14.1883C199.747 14.9825 200.541 16.2531 201.018 17.8942C201.494 19.5883 201.706 21.9178 201.706 24.8825V29.7001H191.065V29.806ZM191.859 17.9472C191.541 18.3707 191.329 19.006 191.223 19.906C191.118 20.806 191.065 22.1825 191.065 24.0354V26.0472H195.723V24.0354C195.723 22.2354 195.671 20.8589 195.565 19.906C195.459 18.9531 195.194 18.3178 194.876 17.9472C194.559 17.5766 194.029 17.3648 193.394 17.3648C192.653 17.3119 192.176 17.5236 191.859 17.9472Z" fill="#2C303D"/>
<path d="M77.8766 29.2765L70.6766 3.17651H76.9766L79.5178 14.9824C80.1531 17.8942 80.6296 20.3824 80.9472 22.4471H81.106C81.3178 20.9648 81.7943 18.5295 82.5355 15.0353L85.1825 3.17651H91.4825L84.1766 29.2765V41.7706H77.9296V29.2765H77.8766Z" fill="#2C303D"/>
<path d="M127.906 13.606V41.8236H122.93L122.4 38.3824H122.242C120.918 40.9765 118.853 42.3001 116.153 42.3001C114.3 42.3001 112.924 41.6648 112.024 40.4471C111.124 39.2295 110.7 37.3236 110.7 34.6765V13.606H117.053V34.306C117.053 35.5765 117.212 36.4765 117.477 37.006C117.742 37.5354 118.218 37.8001 118.853 37.8001C119.383 37.8001 119.912 37.6413 120.442 37.2707C120.971 36.953 121.342 36.5295 121.553 36.0001V13.606H127.906Z" fill="#2C303D"/>
<path d="M160.465 13.606V41.8236H155.488L154.959 38.3824H154.8C153.476 40.9765 151.412 42.3001 148.712 42.3001C146.859 42.3001 145.482 41.6648 144.582 40.4471C143.682 39.2295 143.259 37.3236 143.259 34.6765V13.606H149.612V34.306C149.612 35.5765 149.771 36.4765 150.035 37.006C150.3 37.5354 150.776 37.8001 151.412 37.8001C151.941 37.8001 152.471 37.6413 153 37.2707C153.529 36.953 153.9 36.5295 154.112 36.0001V13.606H160.465Z" fill="#2C303D"/>
<path d="M145.165 8.31181H138.865V41.7706H132.671V8.31181H126.371V3.17651H145.165V8.31181Z" fill="#2C303D"/>
<path d="M181.482 18.106C181.112 16.306 180.477 15.0354 179.63 14.2413C178.782 13.4471 177.565 13.0236 176.083 13.0236C174.918 13.0236 173.806 13.3413 172.8 14.0295C171.794 14.6648 171 15.5648 170.471 16.6236H170.418V1.74713H164.277V41.7707H169.518L170.153 39.1236H170.312C170.788 40.0765 171.53 40.8177 172.535 41.4001C173.541 41.9295 174.6 42.2471 175.818 42.2471C177.988 42.2471 179.524 41.2412 180.53 39.2824C181.535 37.3236 182.065 34.2001 182.065 30.0177V25.5707C182.012 22.3412 181.853 19.853 181.482 18.106ZM175.659 29.5942C175.659 31.6589 175.553 33.2471 175.394 34.4118C175.235 35.5765 174.918 36.4236 174.547 36.9001C174.124 37.3765 173.594 37.6412 172.959 37.6412C172.43 37.6412 171.953 37.5354 171.53 37.2707C171.106 37.006 170.735 36.6354 170.471 36.1589V20.1707C170.682 19.4295 171.053 18.7942 171.583 18.2648C172.112 17.7883 172.694 17.5236 173.277 17.5236C173.912 17.5236 174.441 17.7883 174.759 18.2648C175.13 18.7942 175.341 19.6413 175.5 20.806C175.659 22.0236 175.712 23.7177 175.712 25.8883V29.5942H175.659Z" fill="#2C303D"/>
</svg>