<svg width="251" height="75" viewBox="0 0 251 75" fill="none" xmlns="http://www.w3.org/2000/svg">
<g filter="url(#filter0_b)">
<rect x="0.530029" y="0.0229492" width="250" height="74.6269" rx="37.3134" fill="url(#paint0_linear)"/>
<rect x="1.03003" y="0.522949" width="249" height="73.6269" rx="36.8134" stroke="url(#paint1_linear)"/>
</g>
<path d="M139.821 43.5984C137.528 43.5984 135.927 42.4438 135.642 40.6626C135.596 40.3691 135.828 40.1039 136.133 40.1039H137.818C138.045 40.1039 138.24 40.2551 138.299 40.4678C138.476 41.0952 139.095 41.4081 139.923 41.4081C140.677 41.4081 141.353 41.0758 141.353 40.4225C141.353 39.7546 140.481 39.5525 139.418 39.3795C137.812 39.12 135.767 38.702 135.767 36.3993C135.767 34.5502 137.386 33.2735 139.814 33.2735C142.003 33.2735 143.513 34.34 143.797 35.9797C143.848 36.2723 143.612 36.5383 143.307 36.5383H141.695C141.471 36.5383 141.277 36.392 141.216 36.1826C141.059 35.6449 140.538 35.3789 139.747 35.3789C138.901 35.3789 138.402 35.7557 138.402 36.3152C138.402 36.9669 139.26 37.1181 140.305 37.3024C141.946 37.5886 144.04 37.9258 144.04 40.3061C144.039 42.3007 142.361 43.5992 139.821 43.5984Z" fill="white"/>
<path d="M160.268 37.1949V42.84C160.268 43.1068 160.046 43.3227 159.771 43.3227H158.045C157.77 43.3227 157.548 43.1068 157.548 42.84V37.6307C157.548 36.3265 157.021 35.6385 156.036 35.6385C154.822 35.6385 154.102 36.5068 154.102 38.0366V42.8392C154.102 43.106 153.88 43.3219 153.605 43.3219H151.947C151.673 43.3219 151.45 43.106 151.45 42.8392V37.6299C151.45 36.3257 150.939 35.6377 149.965 35.6377C148.735 35.6377 148.001 36.506 148.001 38.0358V42.8384C148.001 43.1052 147.778 43.3211 147.504 43.3211H145.777C145.503 43.3211 145.28 43.1052 145.28 42.8384V34.0344C145.28 33.7675 145.503 33.5517 145.777 33.5517H146.847C147.048 33.5517 147.231 33.6705 147.307 33.8516L147.399 34.0724C147.528 34.3772 147.929 34.4766 148.184 34.2591C148.866 33.6762 149.753 33.3204 150.691 33.3204C151.745 33.3204 152.649 33.7158 153.261 34.4047C153.454 34.6222 153.792 34.6351 153.999 34.4297C154.692 33.7433 155.662 33.3204 156.724 33.3204C158.807 33.3196 160.268 34.9051 160.268 37.1949Z" fill="white"/>
<path d="M176.994 37.1949V42.84C176.994 43.1068 176.771 43.3227 176.497 43.3227H174.77C174.496 43.3227 174.273 43.1068 174.273 42.84V37.6307C174.273 36.3265 173.747 35.6385 172.762 35.6385C171.548 35.6385 170.828 36.5068 170.828 38.0366V42.8392C170.828 43.106 170.606 43.3219 170.331 43.3219H168.673C168.398 43.3219 168.176 43.106 168.176 42.8392V37.6299C168.176 36.3257 167.665 35.6377 166.691 35.6377C165.461 35.6377 164.727 36.506 164.727 38.0358V42.8384C164.727 43.1052 164.504 43.3211 164.23 43.3211H162.503C162.229 43.3211 162.006 43.1052 162.006 42.8384V34.0344C162.006 33.7675 162.229 33.5517 162.503 33.5517H163.573C163.774 33.5517 163.957 33.6705 164.033 33.8516L164.126 34.0724C164.254 34.3772 164.656 34.4766 164.91 34.2591C165.593 33.6762 166.479 33.3204 167.417 33.3204C168.471 33.3204 169.376 33.7158 169.987 34.4047C170.181 34.6222 170.519 34.6351 170.726 34.4297C171.418 33.7433 172.388 33.3204 173.45 33.3204C175.532 33.3196 176.994 34.9051 176.994 37.1949Z" fill="white"/>
<path d="M182.4 43.6428C179.908 43.6428 178.305 42.481 178.009 40.6804C177.961 40.3861 178.194 40.1193 178.5 40.1193H180.853C181.077 40.1193 181.281 40.2575 181.342 40.4653C181.483 40.9407 181.924 41.1623 182.464 41.1623C182.971 41.1623 183.452 40.9108 183.452 40.4063C183.452 39.8428 182.69 39.6819 181.724 39.5266C180.164 39.2808 178.097 38.824 178.097 36.4542C178.097 34.496 179.815 33.2315 182.392 33.2315C184.7 33.2315 186.276 34.3068 186.594 35.9683C186.651 36.2634 186.414 36.5351 186.105 36.5351H183.831C183.611 36.5351 183.424 36.3928 183.355 36.1907C183.221 35.8042 182.846 35.6215 182.348 35.6215C181.793 35.6215 181.42 35.8883 181.42 36.3419C181.42 36.8981 182.189 37.0275 183.145 37.1932C184.734 37.4673 186.846 37.7883 186.846 40.2664C186.846 42.3063 185.072 43.6428 182.4 43.6428Z" fill="white"/>
<path d="M198.872 38.4367C198.872 41.4808 196.673 43.6533 193.598 43.6533C192.967 43.6533 192.373 43.5418 191.832 43.334C191.503 43.2078 191.147 43.4366 191.147 43.7803V46.3692C191.147 46.636 190.924 46.8519 190.65 46.8519H188.218C187.944 46.8519 187.721 46.636 187.721 46.3692V34.0343C187.721 33.7675 187.944 33.5516 188.218 33.5516H189.782C189.965 33.5516 190.132 33.6487 190.219 33.8039L190.234 33.8314C190.373 34.0796 190.703 34.1637 190.945 34.0052C191.698 33.5104 192.603 33.2315 193.599 33.2315C196.673 33.2315 198.872 35.3926 198.872 38.4367ZM195.386 38.4367C195.386 37.1528 194.432 36.2004 193.135 36.2004C191.837 36.2004 190.883 37.1528 190.883 38.4367C190.883 39.7207 191.837 40.6731 193.135 40.6731C194.424 40.6731 195.386 39.7207 195.386 38.4367Z" fill="white"/>
<path d="M199.13 38.4367C199.13 35.408 201.49 33.2315 204.769 33.2315C208.038 33.2315 210.408 35.408 210.408 38.4367C210.408 41.455 208.038 43.6428 204.769 43.6428C201.49 43.6428 199.13 41.4558 199.13 38.4367ZM204.769 40.6198C206.032 40.6198 206.938 39.7296 206.938 38.4375C206.938 37.1536 206.033 36.2553 204.769 36.2553C203.505 36.2553 202.599 37.1455 202.599 38.4375C202.6 39.7288 203.506 40.6198 204.769 40.6198Z" fill="white"/>
<path d="M218.047 40.8575V42.84C218.047 43.1068 217.825 43.3227 217.55 43.3227H215.663C213.439 43.3227 212.087 42.0016 212.087 39.8307V36.6265C212.087 36.3597 211.865 36.1438 211.59 36.1438H210.743C210.468 36.1438 210.246 35.9279 210.246 35.6611V35.5479C210.246 35.425 210.294 35.307 210.381 35.2172L214.605 30.8471C214.699 30.7501 214.83 30.6951 214.967 30.6951C215.242 30.6951 215.464 30.911 215.464 31.1778V33.0698C215.464 33.3366 215.687 33.5525 215.961 33.5525H217.495C217.769 33.5525 217.992 33.7683 217.992 34.0352V35.6619C217.992 35.9287 217.769 36.1446 217.495 36.1446H216.049C215.774 36.1446 215.552 36.3605 215.552 36.6273V39.2542C215.552 39.9536 215.986 40.3764 216.717 40.3764H217.55C217.825 40.3748 218.047 40.5907 218.047 40.8575Z" fill="white"/>
<path d="M125.087 37.1981C125.087 34.289 123.968 31.5611 121.935 29.5179C117.722 25.2837 110.868 25.2837 106.655 29.5179C104.623 31.5611 103.503 34.2882 103.503 37.1981C103.503 40.108 104.622 42.8351 106.655 44.8783L108.477 46.7096C108.566 46.7993 108.711 46.7993 108.8 46.7096L111.735 43.7601C111.825 43.6704 111.969 43.6704 112.058 43.7601L114.134 45.8461C114.223 45.9358 114.367 45.9358 114.457 45.8461L116.532 43.7593C116.621 43.6695 116.766 43.6695 116.855 43.7593L119.791 46.7088C119.88 46.7985 120.025 46.7985 120.114 46.7088L121.936 44.8775C123.968 42.8351 125.087 40.108 125.087 37.1981ZM120.801 42.7292L120.114 43.4189C120.025 43.5086 119.88 43.5086 119.791 43.4189L118.413 42.0339C118.338 41.9579 118.324 41.839 118.381 41.7493C119.621 39.8307 119.373 37.2571 117.741 35.6166C115.841 33.7069 112.75 33.7069 110.85 35.6166C109.218 37.2571 108.97 39.8307 110.209 41.7493C110.267 41.839 110.252 41.9579 110.177 42.0339L108.801 43.4181C108.712 43.5078 108.567 43.5078 108.478 43.4181L107.791 42.7284C105.939 40.8664 105.193 38.136 105.845 35.6045C106.928 31.3969 110.245 28.6779 114.296 28.6779C118.347 28.6779 121.664 31.3969 122.747 35.6045C123.399 38.1368 122.653 40.8672 120.801 42.7292ZM114.394 42.6201C114.34 42.6743 114.253 42.6743 114.199 42.6201L112.487 40.9003C112.356 40.7694 112.239 40.6214 112.138 40.4621C111.503 39.4515 111.65 38.1069 112.487 37.2644C112.986 36.7631 113.641 36.5125 114.296 36.5125C114.951 36.5125 115.606 36.7631 116.105 37.2644C116.943 38.1069 117.09 39.4515 116.453 40.4621C116.356 40.619 116.238 40.7661 116.105 40.8995L114.394 42.6201Z" fill="white"/>
<path d="M117.715 49.356C116.597 49.6794 115.434 49.8427 114.258 49.8427C113.089 49.8427 111.931 49.6802 110.815 49.36C110.727 49.3349 110.632 49.3648 110.575 49.4376L109.275 51.0757C109.178 51.1994 109.231 51.3845 109.379 51.4363C110.945 51.9845 112.586 52.2618 114.258 52.2618C115.933 52.2618 117.579 51.982 119.152 51.4314C119.3 51.3797 119.353 51.1945 119.255 51.0708L117.956 49.4328C117.899 49.3608 117.803 49.3301 117.715 49.356Z" fill="white"/>
<path d="M114.259 22.411C106.072 22.411 99.4106 29.1064 99.4106 37.3364C99.4106 42.3226 101.874 46.9603 106 49.7416C106.089 49.8014 106.207 49.7909 106.284 49.7165L107.731 48.3267C107.838 48.2232 107.821 48.0445 107.694 47.9653C106.889 47.4608 106.138 46.8592 105.459 46.1792C103.11 43.8183 101.816 40.6772 101.816 37.3364C101.816 33.9948 103.111 30.8545 105.461 28.4936C107.809 26.1311 110.934 24.8301 114.259 24.8301C117.583 24.8301 120.708 26.1311 123.056 28.4936C125.406 30.8545 126.701 33.9948 126.701 37.3364C126.701 40.678 125.406 43.8183 123.056 46.1792C122.386 46.8536 121.637 47.4519 120.834 47.958C120.708 48.0372 120.689 48.2159 120.797 48.3194L122.244 49.7093C122.321 49.7836 122.44 49.7942 122.529 49.7335C126.648 46.9522 129.106 42.3177 129.106 37.3364C129.106 29.1064 122.446 22.411 114.259 22.411Z" fill="white"/>
<path d="M36.2166 39.7021L34.4106 34.4782H32.2912L35.1271 41.9409H37.3211L40.1569 34.4782H38.0375L36.2166 39.7021ZM47.9659 41.9409V39.9558H44.0405L46.0853 37.911C47.2346 36.7618 47.8017 35.6573 47.8017 34.5678C47.8017 33.5678 47.4584 32.7618 46.7868 32.1797C46.1152 31.5827 45.2943 31.2842 44.354 31.2842C42.8764 31.2842 41.5629 32.0603 40.9062 33.4931L42.6376 34.5081C43.0107 33.6872 43.5928 33.2842 44.3838 33.2842C45.1749 33.2842 45.742 33.8215 45.742 34.6424C45.742 35.1946 45.339 35.8961 44.548 36.7319L40.9808 40.4036V41.9409H47.9659ZM51.7756 41.7618C52.2681 41.2692 52.2681 40.4633 51.7756 39.9707C51.2831 39.4782 50.4771 39.4782 49.9846 39.9707C49.492 40.4633 49.492 41.2692 49.9846 41.7618C50.4771 42.2543 51.2831 42.2543 51.7756 41.7618ZM57.4966 42.1498C58.81 42.1498 59.8399 41.6573 60.5712 40.6722C61.3025 39.6722 61.6757 38.3588 61.6757 36.717C61.6757 35.0752 61.3025 33.7618 60.5712 32.7767C59.8399 31.7767 58.81 31.2842 57.4966 31.2842C56.1981 31.2842 55.1682 31.7767 54.4219 32.7767C53.6906 33.7618 53.3175 35.0752 53.3175 36.717C53.3175 38.3588 53.6906 39.6722 54.4219 40.6722C55.1682 41.6573 56.1981 42.1498 57.4966 42.1498ZM59.6309 36.717C59.6309 38.926 58.8846 40.1349 57.4966 40.1349C56.1085 40.1349 55.3772 38.9409 55.3772 36.717C55.3772 34.4931 56.1085 33.2842 57.4966 33.2842C58.8846 33.2842 59.6309 34.4931 59.6309 36.717ZM71.8978 34.2692C70.853 34.2692 70.0471 34.6275 69.4799 35.3588V31.4931H67.5545V41.9409H69.4799V41.0603C70.0471 41.7916 70.853 42.1498 71.8978 42.1498C72.8978 42.1498 73.7635 41.7767 74.465 41.0155C75.1814 40.2543 75.5396 39.314 75.5396 38.2095C75.5396 37.1051 75.1814 36.1797 74.465 35.4185C73.7635 34.6573 72.8978 34.2692 71.8978 34.2692ZM70.062 39.7319C69.6739 39.3289 69.4799 38.8215 69.4799 38.2095C69.4799 37.5976 69.6739 37.0901 70.062 36.7021C70.4501 36.2991 70.9426 36.1051 71.5396 36.1051C72.1366 36.1051 72.6292 36.2991 73.0172 36.7021C73.4202 37.0901 73.6142 37.5976 73.6142 38.2095C73.6142 38.8215 73.4202 39.3289 73.0172 39.7319C72.6292 40.12 72.1366 40.314 71.5396 40.314C70.9426 40.314 70.4501 40.12 70.062 39.7319ZM80.188 39.4931L78.2477 34.4782H76.1433L79.203 41.7021C78.8448 42.717 78.2776 43.1498 77.2477 43.1349V44.926C79.1582 45.0304 80.4119 44.0901 81.188 41.9409L83.9045 34.4782H81.8448L80.188 39.4931Z" fill="white"/>
<defs>
<filter id="filter0_b" x="-49.47" y="-49.9771" width="350" height="174.627" filterUnits="userSpaceOnUse" color-interpolation-filters="sRGB">
<feFlood flood-opacity="0" result="BackgroundImageFix"/>
<feGaussianBlur in="BackgroundImage" stdDeviation="25"/>
<feComposite in2="SourceAlpha" operator="in" result="effect1_backgroundBlur"/>
<feBlend mode="normal" in="SourceGraphic" in2="effect1_backgroundBlur" result="shape"/>
</filter>
<linearGradient id="paint0_linear" x1="244.115" y1="37.3364" x2="-36.3142" y2="45.9675" gradientUnits="userSpaceOnUse">
<stop stop-color="#1B1D25"/>
<stop offset="1" stop-color="#1A1D25" stop-opacity="0.55"/>
</linearGradient>
<linearGradient id="paint1_linear" x1="250.53" y1="30.5892" x2="0.530036" y2="37.3364" gradientUnits="userSpaceOnUse">
<stop stop-color="#2B2E38"/>
<stop offset="1" stop-color="#2B2E38" stop-opacity="0"/>
</linearGradient>
</defs>
</svg>
