<svg width="342" height="156" viewBox="0 0 342 156" fill="none" xmlns="http://www.w3.org/2000/svg">
<path d="M317.911 0.861206H14.9405C6.77317 0.861206 0.152222 7.48215 0.152222 15.6495V127.303C0.152222 135.47 6.77317 142.091 14.9405 142.091H317.911C326.078 142.091 332.699 135.47 332.699 127.303V15.6495C332.699 7.48215 326.078 0.861206 317.911 0.861206Z" fill="url(#paint0_linear)"/>
<path d="M317.911 1.36121H14.9405C7.04931 1.36121 0.652222 7.7583 0.652222 15.6495V127.303C0.652222 135.194 7.04931 141.591 14.9405 141.591H317.911C325.802 141.591 332.199 135.194 332.199 127.303V15.6495C332.199 7.7583 325.802 1.36121 317.911 1.36121Z" stroke="#2B2E38"/>
<path d="M23.9293 31.8317V33.7295H27.3454V43.9088H29.3295V33.7295H32.7284V31.8317H23.9293ZM35.8308 33.9883C36.2449 33.5742 36.2449 32.9186 35.8308 32.5218C35.434 32.1077 34.7784 32.1077 34.3643 32.5218C33.9675 32.9186 33.9675 33.5742 34.3643 33.9883C34.7784 34.3851 35.434 34.3851 35.8308 33.9883ZM39.1089 33.9883C39.523 33.5742 39.523 32.9186 39.1089 32.5218C38.7121 32.1077 38.0564 32.1077 37.6424 32.5218C37.2456 32.9186 37.2456 33.5742 37.6424 33.9883C38.0564 34.3851 38.7121 34.3851 39.1089 33.9883ZM38.8156 39.9061C38.8156 41.5797 37.9357 42.3906 36.6244 42.3906C35.434 42.3906 34.6921 41.6832 34.6921 40.3892V35.2823H32.8288V40.579C32.8288 42.7874 34.1573 44.1331 36.1414 44.1331C37.3663 44.1331 38.2462 43.6845 38.8156 42.8046V43.9088H40.6789V35.2823H38.8156V39.9061ZM52.586 35.058C51.3956 35.058 50.5157 35.5066 49.9463 36.421C49.4115 35.5066 48.6006 35.058 47.4964 35.058C46.4094 35.058 45.5813 35.4721 45.0292 36.3175V35.2823H43.1659V43.9088H45.0292V39.078C45.0292 37.577 45.8228 36.8006 46.9443 36.8006C47.9795 36.8006 48.5661 37.4907 48.5661 38.6812V43.9088H50.4294V39.078C50.4294 37.5597 51.154 36.8006 52.31 36.8006C53.3452 36.8006 53.9835 37.4907 53.9835 38.6812V43.9088H55.8469V38.5604C55.8469 36.421 54.5356 35.058 52.586 35.058ZM66.9113 44.1331C68.188 44.1331 69.2232 43.8226 69.9996 43.1842C70.7932 42.5458 71.19 41.6659 71.19 40.579C71.2763 39.423 70.5862 38.5949 69.9478 38.0945C69.758 37.9393 69.4647 37.7667 69.0679 37.6115C68.6883 37.4562 68.395 37.3354 68.1707 37.2664C67.9637 37.1801 67.6359 37.0766 67.1701 36.9213C65.324 36.352 64.7374 35.9379 64.7374 35.0408C64.7374 34.1263 65.4793 33.5397 66.6352 33.5397C67.8257 33.5397 68.6711 34.1091 69.1714 35.2305L70.845 34.2644C70.0686 32.6081 68.5676 31.6074 66.6352 31.6074C65.5655 31.6074 64.6511 31.918 63.892 32.5563C63.1328 33.1774 62.7533 34.0228 62.7533 35.0925C62.7533 36.1795 63.1501 36.9731 63.9265 37.5252C64.7374 38.06 65.3067 38.2843 66.4627 38.6294C67.4806 38.9399 68.2052 39.2332 68.6021 39.492C68.9989 39.7508 69.2059 40.1132 69.2059 40.6135C69.2059 41.5624 68.464 42.2008 66.963 42.2008C65.4448 42.2008 64.4441 41.5279 63.961 40.1649L62.2529 41.1656C62.8913 43.0117 64.5821 44.1331 66.9113 44.1331ZM77.6476 35.2823H75.5082V32.8669L73.6449 33.419V35.2823H72.0576V37.0766H73.6449V41.2174C73.6449 43.4775 74.8009 44.2539 77.6476 43.9088V42.2353C76.2329 42.3043 75.5082 42.3215 75.5082 41.2174V37.0766H77.6476V35.2823ZM86.1241 36.5073C85.4167 35.5411 84.416 35.058 83.1048 35.058C81.9143 35.058 80.9137 35.4893 80.0683 36.3692C79.2229 37.2491 78.8088 38.3188 78.8088 39.5956C78.8088 40.855 79.2229 41.942 80.0683 42.8219C80.9137 43.7018 81.9143 44.1331 83.1048 44.1331C84.416 44.1331 85.4167 43.65 86.1241 42.6666V43.9088H87.9874V35.2823H86.1241V36.5073ZM81.4485 41.5797C80.9309 41.0448 80.6721 40.3892 80.6721 39.5956C80.6721 38.8019 80.9309 38.1463 81.4485 37.6287C81.9661 37.0939 82.6217 36.8351 83.3981 36.8351C84.1745 36.8351 84.8301 37.0939 85.3477 37.6287C85.8653 38.1463 86.1241 38.8019 86.1241 39.5956C86.1241 40.3892 85.8653 41.0448 85.3477 41.5797C84.8301 42.0973 84.1745 42.3561 83.3981 42.3561C82.6217 42.3561 81.9661 42.0973 81.4485 41.5797ZM95.35 35.058C94.0388 35.058 93.0381 35.5411 92.3307 36.5073V31.8317H90.4674V43.9088H92.3307V42.6666C93.0381 43.65 94.0388 44.1331 95.35 44.1331C96.5404 44.1331 97.5411 43.7018 98.3865 42.8219C99.2319 41.942 99.646 40.855 99.646 39.5956C99.646 38.3188 99.2319 37.2491 98.3865 36.3692C97.5411 35.4893 96.5404 35.058 95.35 35.058ZM93.1071 41.5797C92.5895 41.0448 92.3307 40.3892 92.3307 39.5956C92.3307 38.8019 92.5895 38.1463 93.1071 37.6287C93.6247 37.0939 94.2803 36.8351 95.0567 36.8351C95.8331 36.8351 96.4887 37.0939 97.0063 37.6287C97.5239 38.1463 97.7827 38.8019 97.7827 39.5956C97.7827 40.3892 97.5239 41.0448 97.0063 41.5797C96.4887 42.0973 95.8331 42.3561 95.0567 42.3561C94.2803 42.3561 93.6247 42.0973 93.1071 41.5797ZM103.403 33.6433C103.886 33.1602 103.886 32.4355 103.42 31.9697C102.954 31.4866 102.195 31.4866 101.729 31.9697C101.263 32.4355 101.263 33.1602 101.729 33.6433C102.212 34.1091 102.937 34.1091 103.403 33.6433ZM103.506 43.9088V35.2823H101.643V43.9088H103.506ZM107.841 43.9088V31.3141H105.978V43.9088H107.841ZM119.075 44.1331C120.352 44.1331 121.387 43.8226 122.163 43.1842C122.957 42.5458 123.354 41.6659 123.354 40.579C123.44 39.423 122.75 38.5949 122.111 38.0945C121.922 37.9393 121.628 37.7667 121.231 37.6115C120.852 37.4562 120.559 37.3354 120.334 37.2664C120.127 37.1801 119.799 37.0766 119.334 36.9213C117.488 36.352 116.901 35.9379 116.901 35.0408C116.901 34.1263 117.643 33.5397 118.799 33.5397C119.989 33.5397 120.835 34.1091 121.335 35.2305L123.009 34.2644C122.232 32.6081 120.731 31.6074 118.799 31.6074C117.729 31.6074 116.815 31.918 116.056 32.5563C115.296 33.1774 114.917 34.0228 114.917 35.0925C114.917 36.1795 115.314 36.9731 116.09 37.5252C116.901 38.06 117.47 38.2843 118.626 38.6294C119.644 38.9399 120.369 39.2332 120.766 39.492C121.162 39.7508 121.369 40.1132 121.369 40.6135C121.369 41.5624 120.628 42.2008 119.127 42.2008C117.608 42.2008 116.608 41.5279 116.125 40.1649L114.416 41.1656C115.055 43.0117 116.746 44.1331 119.075 44.1331ZM133.819 40.3892C133.871 40.0614 133.888 39.8026 133.888 39.6128C133.888 38.3533 133.474 37.2664 132.663 36.3865C131.853 35.5066 130.817 35.058 129.558 35.058C128.229 35.058 127.125 35.4893 126.28 36.3692C125.434 37.2319 125.003 38.3016 125.003 39.5956C125.003 40.9068 125.434 41.9937 126.297 42.8564C127.16 43.7018 128.298 44.1331 129.696 44.1331C131.369 44.1331 132.629 43.512 133.474 42.2525L131.939 41.3554C131.438 42.0628 130.697 42.4251 129.713 42.4251C128.281 42.4251 127.229 41.7004 126.953 40.3892H133.819ZM126.935 38.8709C127.194 37.5597 128.16 36.7488 129.541 36.7488C130.766 36.7488 131.749 37.4734 132.008 38.8709H126.935ZM137.699 35.2823H135.836V43.9088H137.699V39.5611C137.699 38.6812 137.958 38.0428 138.493 37.6632C139.028 37.2664 139.649 37.0939 140.356 37.1456V35.127C139.062 35.127 138.165 35.6619 137.699 36.7316V35.2823ZM145.492 41.8385L143.076 35.2823H141.041L144.405 43.9088H146.562L149.926 35.2823H147.89L145.492 41.8385ZM153.174 33.6433C153.657 33.1602 153.657 32.4355 153.191 31.9697C152.725 31.4866 151.966 31.4866 151.5 31.9697C151.034 32.4355 151.034 33.1602 151.5 33.6433C151.983 34.1091 152.708 34.1091 153.174 33.6433ZM153.277 43.9088V35.2823H151.414V43.9088H153.277ZM157.372 37.6632C157.372 37.0594 157.924 36.7488 158.631 36.7488C159.408 36.7488 159.96 37.0766 160.253 37.7322L161.823 36.8523C161.219 35.7309 160.063 35.058 158.631 35.058C157.734 35.058 156.975 35.2996 156.371 35.7826C155.767 36.2657 155.474 36.9041 155.474 37.6977C155.439 39.5093 157.182 40.0269 158.476 40.3547C159.39 40.579 160.115 40.9068 160.115 41.4589C160.115 42.0973 159.632 42.4251 158.649 42.4251C157.665 42.4251 157.027 42.011 156.733 41.1828L155.129 42.1145C155.681 43.374 156.941 44.1331 158.649 44.1331C159.615 44.1331 160.408 43.8916 161.047 43.4257C161.685 42.9599 162.013 42.3043 162.013 41.4761C162.047 39.6301 160.322 39.078 158.994 38.7847C158.096 38.5259 157.372 38.2326 157.372 37.6632ZM165.721 43.9088V31.3141H163.858V43.9088H165.721ZM176.526 40.3892C176.578 40.0614 176.595 39.8026 176.595 39.6128C176.595 38.3533 176.181 37.2664 175.37 36.3865C174.559 35.5066 173.524 35.058 172.265 35.058C170.936 35.058 169.832 35.4893 168.986 36.3692C168.141 37.2319 167.71 38.3016 167.71 39.5956C167.71 40.9068 168.141 41.9937 169.004 42.8564C169.866 43.7018 171.005 44.1331 172.403 44.1331C174.076 44.1331 175.336 43.512 176.181 42.2525L174.645 41.3554C174.145 42.0628 173.403 42.4251 172.42 42.4251C170.988 42.4251 169.935 41.7004 169.659 40.3892H176.526ZM169.642 38.8709C169.901 37.5597 170.867 36.7488 172.247 36.7488C173.472 36.7488 174.456 37.4734 174.714 38.8709H169.642ZM180.406 35.2823H178.543V43.9088H180.406V39.5611C180.406 38.6812 180.665 38.0428 181.2 37.6632C181.735 37.2664 182.356 37.0939 183.063 37.1456V35.127C181.769 35.127 180.872 35.6619 180.406 36.7316V35.2823Z" fill="white"/>
<path d="M44.5172 122.374C58.1295 122.374 69.1644 111.339 69.1644 97.7267C69.1644 84.1144 58.1295 73.0795 44.5172 73.0795C30.9049 73.0795 19.87 84.1144 19.87 97.7267C19.87 111.339 30.9049 122.374 44.5172 122.374Z" fill="#C31331"/>
<path d="M162.824 122.374C176.436 122.374 187.471 111.339 187.471 97.7267C187.471 84.1144 176.436 73.0795 162.824 73.0795C149.212 73.0795 138.177 84.1144 138.177 97.7267C138.177 111.339 149.212 122.374 162.824 122.374Z" fill="#C31331"/>
<path d="M103.671 122.374C117.283 122.374 128.318 111.339 128.318 97.7267C128.318 84.1144 117.283 73.0795 103.671 73.0795C90.0587 73.0795 79.0238 84.1144 79.0238 97.7267C79.0238 111.339 90.0587 122.374 103.671 122.374Z" fill="#C31331"/>
<path d="M221.977 122.374C235.589 122.374 246.624 111.339 246.624 97.7267C246.624 84.1144 235.589 73.0795 221.977 73.0795C208.365 73.0795 197.33 84.1144 197.33 97.7267C197.33 111.339 208.365 122.374 221.977 122.374Z" fill="#C31331"/>
<path d="M53.4121 92.7905C53.4447 92.9207 53.4609 93.1323 53.4609 93.4252C53.4609 95.1505 53.1354 96.8758 52.4844 98.601C51.8333 100.294 50.9056 101.856 49.7012 103.289C48.5293 104.688 46.9993 105.828 45.1113 106.706C43.2233 107.585 41.14 108.025 38.8613 108.025C35.9967 108.025 33.3763 107.26 31 105.73C31.3581 105.762 31.765 105.779 32.2207 105.779C34.597 105.779 36.7292 105.046 38.6172 103.581C37.4779 103.581 36.4688 103.256 35.5898 102.605C34.7435 101.921 34.1576 101.075 33.832 100.066C34.1576 100.098 34.4668 100.115 34.7598 100.115C35.2155 100.115 35.6712 100.066 36.127 99.9682C35.3457 99.8054 34.6458 99.4799 34.0273 98.9916C33.4089 98.5034 32.9206 97.9174 32.5625 97.2338C32.2044 96.5177 32.0254 95.7527 32.0254 94.9389V94.8412C32.7415 95.2644 33.5065 95.4923 34.3203 95.5248C32.7904 94.4832 32.0254 93.0509 32.0254 91.228C32.0254 90.3165 32.2695 89.4539 32.7578 88.6401C34.0273 90.2351 35.5736 91.5047 37.3965 92.4487C39.252 93.3927 41.2214 93.9135 43.3047 94.0112C43.2396 93.6205 43.207 93.2299 43.207 92.8393C43.207 91.4396 43.6953 90.2351 44.6719 89.226C45.681 88.2169 46.8854 87.7123 48.2852 87.7123C49.7826 87.7123 51.0358 88.2495 52.0449 89.3237C53.2168 89.0958 54.3073 88.6889 55.3164 88.103C54.9258 89.3074 54.1771 90.2514 53.0703 90.935C54.0469 90.8048 55.0234 90.5281 56 90.1049C55.2839 91.1466 54.4212 92.0418 53.4121 92.7905Z" fill="white"/>
<path d="M99.6534 93.8966C100.76 92.7898 102.095 92.2365 103.657 92.2365C105.22 92.2365 106.538 92.7898 107.612 93.8966C108.719 94.9708 109.273 96.2892 109.273 97.8517C109.273 99.4142 108.719 100.749 107.612 101.856C106.538 102.93 105.22 103.467 103.657 103.467C102.095 103.467 100.76 102.93 99.6534 101.856C98.5792 100.749 98.0421 99.4142 98.0421 97.8517C98.0421 96.2892 98.5792 94.9708 99.6534 93.8966ZM101.069 100.44C101.786 101.156 102.648 101.514 103.657 101.514C104.666 101.514 105.529 101.156 106.245 100.44C106.961 99.7234 107.319 98.8608 107.319 97.8517C107.319 96.8426 106.961 95.9799 106.245 95.2638C105.529 94.5476 104.666 94.1896 103.657 94.1896C102.648 94.1896 101.786 94.5476 101.069 95.2638C100.353 95.9799 99.9952 96.8426 99.9952 97.8517C99.9952 98.8608 100.353 99.7234 101.069 100.44ZM110.396 91.1134C110.656 91.3413 110.786 91.6342 110.786 91.9923C110.786 92.3504 110.656 92.6596 110.396 92.92C110.168 93.1805 109.875 93.3107 109.517 93.3107C109.159 93.3107 108.849 93.1805 108.589 92.92C108.329 92.6596 108.198 92.3504 108.198 91.9923C108.198 91.6342 108.329 91.3413 108.589 91.1134C108.849 90.853 109.159 90.7228 109.517 90.7228C109.875 90.7228 110.168 90.853 110.396 91.1134ZM114.546 93.3595C114.579 94.2384 114.595 95.7358 114.595 97.8517C114.595 99.9676 114.579 101.465 114.546 102.344C114.448 104.33 113.846 105.876 112.739 106.983C111.665 108.057 110.135 108.626 108.15 108.692C107.271 108.757 105.773 108.789 103.657 108.789C101.541 108.789 100.044 108.757 99.1652 108.692C97.1795 108.594 95.6495 108.008 94.5753 106.934C94.1521 106.543 93.8103 106.087 93.5499 105.567C93.2895 105.046 93.0942 104.541 92.964 104.053C92.8663 103.565 92.8175 102.995 92.8175 102.344C92.7524 101.465 92.7198 99.9676 92.7198 97.8517C92.7198 95.7358 92.7524 94.2221 92.8175 93.3107C92.9152 91.3575 93.5011 89.8439 94.5753 88.7697C95.6495 87.6629 97.1795 87.0607 99.1652 86.963C100.044 86.9305 101.541 86.9142 103.657 86.9142C105.773 86.9142 107.271 86.9305 108.15 86.963C110.135 87.0607 111.665 87.6629 112.739 88.7697C113.846 89.8439 114.448 91.3738 114.546 93.3595ZM112.202 104.297C112.3 104.037 112.381 103.711 112.446 103.32C112.512 102.897 112.56 102.409 112.593 101.856C112.625 101.27 112.642 100.798 112.642 100.44C112.642 100.082 112.642 99.5769 112.642 98.9259C112.642 98.2749 112.642 97.9168 112.642 97.8517C112.642 97.754 112.642 97.396 112.642 96.7775C112.642 96.1264 112.642 95.6219 112.642 95.2638C112.642 94.9057 112.625 94.45 112.593 93.8966C112.56 93.3107 112.512 92.8224 112.446 92.4318C112.381 92.0086 112.3 91.6668 112.202 91.4064C111.812 90.3973 111.112 89.6974 110.103 89.3068C109.842 89.2091 109.5 89.1277 109.077 89.0626C108.687 88.9975 108.198 88.9487 107.612 88.9161C107.059 88.8836 106.603 88.8673 106.245 88.8673C105.92 88.8673 105.415 88.8673 104.732 88.8673C104.081 88.8673 103.722 88.8673 103.657 88.8673C103.592 88.8673 103.234 88.8673 102.583 88.8673C101.932 88.8673 101.428 88.8673 101.069 88.8673C100.711 88.8673 100.239 88.8836 99.6534 88.9161C99.1001 88.9487 98.6118 88.9975 98.1886 89.0626C97.798 89.1277 97.4725 89.2091 97.212 89.3068C96.2029 89.6974 95.5031 90.3973 95.1124 91.4064C95.0148 91.6668 94.9334 92.0086 94.8683 92.4318C94.8032 92.8224 94.7544 93.3107 94.7218 93.8966C94.6892 94.45 94.673 94.9057 94.673 95.2638C94.673 95.5893 94.673 96.0939 94.673 96.7775C94.673 97.4285 94.673 97.7866 94.673 97.8517C94.673 97.9819 94.673 98.2911 94.673 98.7794C94.673 99.2351 94.673 99.6258 94.673 99.9513C94.673 100.244 94.673 100.635 94.673 101.123C94.7055 101.611 94.7381 102.035 94.7706 102.393C94.8032 102.718 94.852 103.06 94.9171 103.418C94.9822 103.776 95.0473 104.069 95.1124 104.297C95.5356 105.306 96.2355 106.006 97.212 106.397C97.4725 106.494 97.798 106.576 98.1886 106.641C98.6118 106.706 99.1001 106.755 99.6534 106.787C100.239 106.82 100.695 106.836 101.021 106.836C101.379 106.836 101.883 106.836 102.534 106.836C103.218 106.836 103.592 106.836 103.657 106.836C103.755 106.836 104.113 106.836 104.732 106.836C105.383 106.836 105.887 106.836 106.245 106.836C106.603 106.836 107.059 106.82 107.612 106.787C108.198 106.755 108.687 106.706 109.077 106.641C109.5 106.576 109.842 106.494 110.103 106.397C111.112 105.973 111.812 105.274 112.202 104.297Z" fill="white"/>
<path d="M175.179 91.4234C175.277 91.814 175.358 92.3023 175.424 92.8882C175.521 93.4742 175.586 94.0601 175.619 94.646C175.651 95.1994 175.668 95.7203 175.668 96.2085C175.7 96.6968 175.717 97.1037 175.717 97.4292V97.8687C175.717 100.798 175.538 102.963 175.179 104.363C175.017 104.916 174.724 105.404 174.301 105.828C173.877 106.251 173.373 106.544 172.787 106.706C172.168 106.869 170.997 106.999 169.271 107.097C167.546 107.162 165.967 107.211 164.535 107.244H162.386C156.82 107.244 153.353 107.065 151.986 106.706C150.717 106.348 149.919 105.567 149.594 104.363C149.431 103.744 149.301 102.898 149.203 101.824C149.138 100.717 149.089 99.7893 149.056 99.0406V97.8687C149.056 94.9716 149.235 92.8231 149.594 91.4234C149.756 90.8374 150.049 90.3329 150.472 89.9097C150.896 89.4865 151.4 89.1936 151.986 89.0308C152.605 88.868 153.776 88.7541 155.502 88.689C157.227 88.5913 158.806 88.5262 160.238 88.4937H162.386C167.953 88.4937 171.42 88.6727 172.787 89.0308C173.373 89.1936 173.877 89.4865 174.301 89.9097C174.724 90.3329 175.017 90.8374 175.179 91.4234ZM159.652 101.872L166.635 97.8687L159.652 93.9136V101.872Z" fill="white"/>
<path d="M227.6 99.4312H223.938V110.369H219.055V99.4312H215.1V94.8902H219.055V91.4722C219.055 90.1701 219.299 89.0634 219.788 88.1519C220.276 87.2404 220.959 86.5568 221.838 86.1011C222.75 85.6128 223.792 85.3687 224.963 85.3687C225.484 85.3687 226.038 85.4012 226.624 85.4663C227.209 85.4989 227.665 85.5477 227.991 85.6128L228.479 85.6617V89.5191H226.526C225.614 89.5191 224.947 89.7632 224.524 90.2515C224.133 90.7072 223.938 91.2769 223.938 91.9605V94.8902H228.284L227.6 99.4312Z" fill="white"/>
<g filter="url(#filter0_d)">
<path d="M311.642 96.2599C311.642 82.1778 300.226 70.762 286.144 70.762C272.062 70.762 260.646 82.1778 260.646 96.2599C260.646 110.342 272.062 121.758 286.144 121.758C300.226 121.758 311.642 110.342 311.642 96.2599Z" fill="#C31331" stroke="#F02245" stroke-width="1.23236"/>
<path d="M300.942 83.2028H271.346V109.317H300.942V83.2028Z" fill="#C31331"/>
<path d="M291.525 86.6847C289.157 86.6847 287.11 88.046 286.15 89.9987C285.189 88.046 283.153 86.6847 280.775 86.6847C277.493 86.6847 274.828 89.2846 274.828 92.487C274.828 97.073 281.667 102.953 284.709 105.341C285.555 106 286.744 106 287.579 105.341C290.633 102.942 297.46 97.0619 297.46 92.487C297.471 89.2846 294.807 86.6847 291.525 86.6847Z" stroke="white" stroke-width="1.84854" stroke-miterlimit="10" stroke-linecap="round" stroke-linejoin="round"/>
</g>
<defs>
<filter id="filter0_d" x="231.03" y="45.1458" width="110.228" height="110.228" filterUnits="userSpaceOnUse" color-interpolation-filters="sRGB">
<feFlood flood-opacity="0" result="BackgroundImageFix"/>
<feColorMatrix in="SourceAlpha" type="matrix" values="0 0 0 0 0 0 0 0 0 0 0 0 0 0 0 0 0 0 127 0" result="hardAlpha"/>
<feOffset dy="4"/>
<feGaussianBlur stdDeviation="14.5"/>
<feColorMatrix type="matrix" values="0 0 0 0 0.941176 0 0 0 0 0.133333 0 0 0 0 0.270588 0 0 0 0.5 0"/>
<feBlend mode="normal" in2="BackgroundImageFix" result="effect1_dropShadow"/>
<feBlend mode="normal" in="SourceGraphic" in2="effect1_dropShadow" result="shape"/>
</filter>
<linearGradient id="paint0_linear" x1="332.7" y1="50.6033" x2="-11.946" y2="121.937" gradientUnits="userSpaceOnUse">
<stop stop-color="#1E2028"/>
<stop offset="1" stop-color="#1E2028" stop-opacity="0.5"/>
</linearGradient>
</defs>
</svg>
