<svg width="36" height="33" viewBox="0 0 36 33" fill="none" xmlns="http://www.w3.org/2000/svg">
<path d="M24.8889 9.6865L35.5556 0.797607V22.1309H0V0.797607L10.6667 9.6865L17.7778 0.797607L24.8889 9.6865ZM23.1111 15.0198C23.1111 14.5483 22.9238 14.0961 22.5904 13.7628C22.257 13.4294 21.8048 13.2421 21.3333 13.2421H14.2222C13.7507 13.2421 13.2985 13.4294 12.9651 13.7628C12.6317 14.0961 12.4444 14.5483 12.4444 15.0198C12.4444 15.4913 12.6317 15.9435 12.9651 16.2769C13.2985 16.6103 13.7507 16.7976 14.2222 16.7976H21.3333C21.8048 16.7976 22.257 16.6103 22.5904 16.2769C22.9238 15.9435 23.1111 15.4913 23.1111 15.0198Z" fill="#3B3F4B"/>
<path d="M0 25.6865H35.5556V29.2421C35.5556 30.185 35.181 31.0894 34.5142 31.7562C33.8474 32.423 32.943 32.7976 32 32.7976H3.55556C2.61256 32.7976 1.70819 32.423 1.0414 31.7562C0.374602 31.0894 0 30.185 0 29.2421V25.6865Z" fill="#252831"/>
</svg>
