<svg xmlns="http://www.w3.org/2000/svg" version="1.1" xmlns:xlink="http://www.w3.org/1999/xlink" xmlns:svgjs="http://svgjs.com/svgjs" width="1400" height="250" preserveAspectRatio="none" viewBox="0 0 1400 250"><g mask="url(&quot;#SvgjsMask1021&quot;)" fill="none"><path d="M337 92L336 221" stroke-width="6" stroke="url(#SvgjsLinearGradient1022)" stroke-linecap="round" class="Up"></path><path d="M725 9L724 104" stroke-width="6" stroke="url(#SvgjsLinearGradient1022)" stroke-linecap="round" class="Up"></path><path d="M220 98L219 196" stroke-width="10" stroke="url(#SvgjsLinearGradient1023)" stroke-linecap="round" class="Down"></path><path d="M263 116L262 11" stroke-width="8" stroke="url(#SvgjsLinearGradient1022)" stroke-linecap="round" class="Up"></path><path d="M1079 239L1078 416" stroke-width="8" stroke="url(#SvgjsLinearGradient1023)" stroke-linecap="round" class="Down"></path><path d="M590 205L589 361" stroke-width="6" stroke="url(#SvgjsLinearGradient1022)" stroke-linecap="round" class="Up"></path><path d="M298 191L297 307" stroke-width="8" stroke="url(#SvgjsLinearGradient1023)" stroke-linecap="round" class="Down"></path><path d="M1289 121L1288 -63" stroke-width="10" stroke="url(#SvgjsLinearGradient1022)" stroke-linecap="round" class="Up"></path><path d="M1090 170L1089 76" stroke-width="10" stroke="url(#SvgjsLinearGradient1023)" stroke-linecap="round" class="Down"></path><path d="M217 66L216 190" stroke-width="10" stroke="url(#SvgjsLinearGradient1023)" stroke-linecap="round" class="Down"></path><path d="M1376 144L1375 0" stroke-width="8" stroke="url(#SvgjsLinearGradient1023)" stroke-linecap="round" class="Down"></path><path d="M767 235L766 376" stroke-width="6" stroke="url(#SvgjsLinearGradient1023)" stroke-linecap="round" class="Down"></path><path d="M891 88L890 180" stroke-width="8" stroke="url(#SvgjsLinearGradient1022)" stroke-linecap="round" class="Up"></path><path d="M761 195L760 35" stroke-width="10" stroke="url(#SvgjsLinearGradient1023)" stroke-linecap="round" class="Down"></path><path d="M1330 102L1329 -6" stroke-width="8" stroke="url(#SvgjsLinearGradient1023)" stroke-linecap="round" class="Down"></path><path d="M825 205L824 273" stroke-width="8" stroke="url(#SvgjsLinearGradient1023)" stroke-linecap="round" class="Down"></path><path d="M204 204L203 30" stroke-width="8" stroke="url(#SvgjsLinearGradient1023)" stroke-linecap="round" class="Down"></path><path d="M1131 187L1130 357" stroke-width="10" stroke="url(#SvgjsLinearGradient1022)" stroke-linecap="round" class="Up"></path><path d="M411 169L410 327" stroke-width="6" stroke="url(#SvgjsLinearGradient1023)" stroke-linecap="round" class="Down"></path><path d="M903 161L902 83" stroke-width="6" stroke="url(#SvgjsLinearGradient1023)" stroke-linecap="round" class="Down"></path><path d="M884 39L883 200" stroke-width="10" stroke="url(#SvgjsLinearGradient1023)" stroke-linecap="round" class="Down"></path><path d="M495 92L494 -91" stroke-width="10" stroke="url(#SvgjsLinearGradient1023)" stroke-linecap="round" class="Down"></path><path d="M830 149L829 257" stroke-width="6" stroke="url(#SvgjsLinearGradient1023)" stroke-linecap="round" class="Down"></path><path d="M876 18L875 180" stroke-width="6" stroke="url(#SvgjsLinearGradient1023)" stroke-linecap="round" class="Down"></path><path d="M144 223L143 38" stroke-width="10" stroke="url(#SvgjsLinearGradient1022)" stroke-linecap="round" class="Up"></path><path d="M793 190L792 299" stroke-width="8" stroke="url(#SvgjsLinearGradient1022)" stroke-linecap="round" class="Up"></path><path d="M835 165L834 326" stroke-width="6" stroke="url(#SvgjsLinearGradient1023)" stroke-linecap="round" class="Down"></path><path d="M664 61L663 198" stroke-width="8" stroke="url(#SvgjsLinearGradient1023)" stroke-linecap="round" class="Down"></path><path d="M201 103L200 -40" stroke-width="6" stroke="url(#SvgjsLinearGradient1023)" stroke-linecap="round" class="Down"></path><path d="M38 196L37 278" stroke-width="8" stroke="url(#SvgjsLinearGradient1023)" stroke-linecap="round" class="Down"></path><path d="M1295 109L1294 200" stroke-width="10" stroke="url(#SvgjsLinearGradient1023)" stroke-linecap="round" class="Down"></path><path d="M818 177L817 -5" stroke-width="6" stroke="url(#SvgjsLinearGradient1022)" stroke-linecap="round" class="Up"></path><path d="M455 173L454 1" stroke-width="6" stroke="url(#SvgjsLinearGradient1022)" stroke-linecap="round" class="Up"></path><path d="M1131 218L1130 314" stroke-width="6" stroke="url(#SvgjsLinearGradient1022)" stroke-linecap="round" class="Up"></path><path d="M269 108L268 226" stroke-width="10" stroke="url(#SvgjsLinearGradient1023)" stroke-linecap="round" class="Down"></path></g><defs><mask id="SvgjsMask1021"><rect width="1400" height="250" fill="#ffffff"></rect></mask><linearGradient x1="0%" y1="100%" x2="0%" y2="0%" id="SvgjsLinearGradient1022"><stop stop-color="rgba(255, 255, 255, 0)" offset="0"></stop><stop stop-color="rgba(255, 255, 255, 0.13)" offset="1"></stop></linearGradient><linearGradient x1="0%" y1="0%" x2="0%" y2="100%" id="SvgjsLinearGradient1023"><stop stop-color="rgba(255, 255, 255, 0)" offset="0"></stop><stop stop-color="rgba(255, 255, 255, 0.13)" offset="1"></stop></linearGradient></defs></svg>