<?xml version="1.0" encoding="iso-8859-1"?>
<!-- Generator: Adobe Illustrator 19.0.0, SVG Export Plug-In . SVG Version: 6.00 Build 0)  -->
<svg xmlns="http://www.w3.org/2000/svg" xmlns:xlink="http://www.w3.org/1999/xlink" version="1.1" id="Layer_1" x="0px" y="0px" viewBox="0 0 512 512" style="enable-background:new 0 0 512 512;" xml:space="preserve" width="512" height="512">
<g>
	<g>
		<g>
			<path style="fill:#CDBFBA;" d="M196,451c-41.353,0-75-33.647-75-75v-40.005h30V376c0,24.814,20.186,45,45,45s45-20.186,45-45h30     C271,417.353,237.353,451,196,451z"/>
		</g>
	</g>
	<polygon style="fill:#FF9100;" points="350.501,87.7 350.501,423.399 301,406.599 271,347.8 271,193.299 301,109.6  "/>
	<polygon style="fill:#FF641A;" points="350.501,257.484 350.501,423.399 301,406.599 271,347.8 271,257.484  "/>
	<polygon style="fill:#FFF5F5;" points="301,109.6 301,406.599 76,332.199 33.999,275.499 46.601,256 76,209.2  "/>
	<polygon style="fill:#EFE2DD;" points="46.601,257.484 301,257.484 301,406.599 76,332.199 33.999,275.499  "/>
	<g>
		<path style="fill:#EFE2DD;" d="M376,211.004h-45v90h45c0.39,0,0.78,0,1.16-0.01c23.87-0.61,43.05-19.69,43.82-43.51    c0.01-0.49,0.02-0.98,0.02-1.48C421,231.104,400.9,211.004,376,211.004z"/>
	</g>
	<g>
		<rect x="452" y="241" style="fill:#EFE2DD;" width="60" height="30"/>
	</g>
	<g>
		<g>
			
				<rect x="411.68" y="323.502" transform="matrix(0.7071 0.7071 -0.7071 0.7071 369.2538 -214.4575)" style="fill:#CDBFBA;" width="63.64" height="29.997"/>
		</g>
	</g>
	<g>
		
			<rect x="428.502" y="141.68" transform="matrix(0.7071 0.7071 -0.7071 0.7071 252.5812 -262.7849)" style="fill:#EFE2DD;" width="29.997" height="63.64"/>
	</g>
	<polygon style="fill:#FF9100;" points="76,209.2 76,332.199 0,370.3 0,171.7 75.101,209.5  "/>
	<path style="fill:#CDBFBA;" d="M420.98,257.484c-0.77,23.82-19.95,42.9-43.82,43.51c-0.38,0.01-0.77,0.01-1.16,0.01h-45v-43.52   H420.98z"/>
	<rect x="452" y="256" style="fill:#CDBFBA;" width="60" height="15"/>
	<polygon style="fill:#FF641A;" points="0,257.484 76,257.484 76,332.199 0,370.3  "/>
	<g>
		<g>
			<g>
				<rect x="331" y="61" style="fill:#FF641A;" width="30" height="390"/>
			</g>
		</g>
	</g>
	<rect x="331" y="257.484" style="fill:#F03800;" width="30" height="193.516"/>
</g>















</svg>
