<?xml version="1.0" encoding="iso-8859-1"?>
<!-- Generator: Adobe Illustrator 19.0.0, SVG Export Plug-In . SVG Version: 6.00 Build 0)  -->
<svg xmlns="http://www.w3.org/2000/svg" xmlns:xlink="http://www.w3.org/1999/xlink" version="1.1" id="Layer_1" x="0px" y="0px" viewBox="0 0 512 512" style="enable-background:new 0 0 512 512;" xml:space="preserve" width="512" height="512">
<g>
	<polygon style="fill:#FDBF00;" points="392,0 392,61 414.5,74.125 392,91 392,121 414.5,133.188 392,151 392,181 418.25,196    392,211 392,241 409.813,253.188 392,271 392,301 416.375,315.063 392,331 392,361 407,373.188 392,391 392,421 411.688,439.75    392,451 392,512 512,512 512,0  "/>
	<polygon style="fill:#FFF5F5;" points="361,30 361,451 331,451 253.599,482.5 213.401,481.3 59.099,476.8 60,451 60,30  "/>
	<path style="fill:#EFE2DD;" d="M90,45C90,20.147,69.853,0,45,0S0,20.147,0,45v391h90V45z"/>
	<path style="fill:#EFE2DD;" d="M361,30v421h-30l-77.401,31.5l-40.199-1.199C211.901,463.299,211,451,211,451V30H361z"/>
	<path style="fill:#7FE881;" d="M331,451v61H0v-76c0-24.901,20.099-45,45-45s45,20.099,45,45v15H331z"/>
	<g>
		<g>
			<rect x="392" y="61" style="fill:#FF9100;" width="60" height="30"/>
		</g>
	</g>
	<g>
		<g>
			<rect x="392" y="121" style="fill:#FF9100;" width="60" height="30"/>
		</g>
	</g>
	<g>
		<g>
			<rect x="392" y="181" style="fill:#FF9100;" width="60" height="30"/>
		</g>
	</g>
	<g>
		<g>
			<rect x="392" y="241" style="fill:#FF9100;" width="60" height="30"/>
		</g>
	</g>
	<g>
		<g>
			<rect x="392" y="301" style="fill:#FF9100;" width="60" height="30"/>
		</g>
	</g>
	<g>
		<g>
			<rect x="392" y="361" style="fill:#FF9100;" width="60" height="30"/>
		</g>
	</g>
	<g>
		<g>
			<rect x="392" y="421" style="fill:#FF9100;" width="60" height="30"/>
		</g>
	</g>
	<g>
		<rect x="121" y="121" style="fill:#7FE881;" width="60" height="30"/>
	</g>
	<g>
		<rect x="121" y="181" style="fill:#7FE881;" width="60" height="30"/>
	</g>
	<g>
		<rect x="121" y="241" style="fill:#7FE881;" width="60" height="30"/>
	</g>
	<g>
		<rect x="121" y="301" style="fill:#7FE881;" width="60" height="30"/>
	</g>
	<g>
		<rect x="121" y="361" style="fill:#7FE881;" width="180" height="30"/>
	</g>
	<rect x="211" y="361" style="fill:#00AB5E;" width="90" height="30"/>
	<polygon style="fill:#3E5959;" points="275.36,181 301,151 301,91 211,91 211,151 234.589,181  "/>
	<g>
		<g>
			<path style="fill:#FDBF00;" d="M256,379.545l-45-90V151h90v138.545L256,379.545z"/>
		</g>
	</g>
</g>
<rect x="211" y="451" style="fill:#5BC980;" width="120" height="61"/>















</svg>
