<svg xmlns="http://www.w3.org/2000/svg" xmlns:xlink="http://www.w3.org/1999/xlink" width="233" height="41" viewBox="0 0 233 41"><defs><clipPath id="a"><rect width="103" height="41" rx="8" transform="translate(0.374 0.312)" fill="#69788c"/></clipPath><clipPath id="b"><rect width="103" height="41" rx="8" transform="translate(0.379 0.312)" fill="#69788c"/></clipPath></defs><g transform="translate(-27.923 -115.672)"><g transform="translate(27.923 115.672)"><g transform="translate(-27.923 -115.672)"><g transform="translate(27.549 115.36)"><rect width="233" height="41" rx="8" transform="translate(0.374 0.312)" fill="#69788c" opacity="0.1"/><g clip-path="url(#a)"><g transform="translate(20.661 -10.331)"><g transform="translate(4.884 22.414)"><path d="M26.3,34H22.064L24.71,17.738h4.235ZM18.5,17.738,14.465,28.925l-.478-2.409h0L12.563,19.2a1.813,1.813,0,0,0-2.009-1.464H3.88l-.078.275a15.841,15.841,0,0,1,4.429,1.859L11.91,34h4.412l6.737-16.265H18.5ZM51.807,34H55.7l-3.39-16.265H48.9a1.946,1.946,0,0,0-1.955,1.212L40.631,34h4.414l.883-2.416h5.383Zm-4.659-5.753,2.225-6.086,1.252,6.086Zm-6.185-6.6.6-3.493a12.222,12.222,0,0,0-3.808-.709c-2.1,0-7.091.918-7.091,5.384,0,4.2,5.857,4.254,5.857,6.461s-5.253,1.812-6.987.42l-.63,3.652a11.866,11.866,0,0,0,4.78.918c2.89,0,7.249-1.5,7.249-5.568,0-4.229-5.909-4.622-5.909-6.461s4.124-1.6,5.936-.6Z" transform="translate(-3.802 -17.448)" fill="#2566af"/></g><path d="M13.987,26.452l-1.425-7.314a1.813,1.813,0,0,0-2.009-1.464H3.88l-.078.275A16.406,16.406,0,0,1,10.086,21.1,12.682,12.682,0,0,1,13.987,26.452Z" transform="translate(1.082 5.03)" fill="#e6a540"/><path d="M0,0H61.661V61.661H0Z" fill="none"/></g></g></g></g></g><g transform="translate(157.544 115.36)"><g clip-path="url(#b)"><g transform="translate(30.261 4.304)"><path d="M42.46,45.231v.085h.079a.083.083,0,0,0,.042-.011.038.038,0,0,0,.016-.032.036.036,0,0,0-.016-.032.076.076,0,0,0-.042-.011H42.46Zm.08-.06a.146.146,0,0,1,.095.027.091.091,0,0,1,.033.075.086.086,0,0,1-.027.066.13.13,0,0,1-.076.032l.106.121H42.59l-.1-.12h-.032v.12h-.068v-.32h.148Zm-.021.431a.254.254,0,0,0,.1-.021.272.272,0,0,0,.085-.057.267.267,0,0,0,.057-.085.269.269,0,0,0-.142-.351.266.266,0,0,0-.1-.02.277.277,0,0,0-.106.02.27.27,0,0,0-.086.057.273.273,0,0,0-.056.3.252.252,0,0,0,.056.085.271.271,0,0,0,.086.057.263.263,0,0,0,.106.021m0-.613a.354.354,0,0,1,.248.1.341.341,0,0,1,.075.377.357.357,0,0,1-.075.11.377.377,0,0,1-.111.074.345.345,0,0,1-.137.027.351.351,0,0,1-.139-.027.361.361,0,0,1-.112-.074.357.357,0,0,1-.074-.113.341.341,0,0,1,.075-.377.334.334,0,0,1,.112-.074.351.351,0,0,1,.139-.027M10.142,43.756A1.051,1.051,0,1,1,11.2,44.867a1.041,1.041,0,0,1-1.053-1.111m2.81,0V42.02H12.2v.423a1.315,1.315,0,0,0-1.1-.509,1.825,1.825,0,0,0,0,3.645,1.316,1.316,0,0,0,1.1-.509v.421h.754V43.756Zm25.5,0A1.051,1.051,0,1,1,39.5,44.867a1.042,1.042,0,0,1-1.053-1.111m2.811,0V40.626h-.755v1.816a1.315,1.315,0,0,0-1.1-.509,1.825,1.825,0,0,0,0,3.645,1.316,1.316,0,0,0,1.1-.509v.421h.755ZM22.318,42.609a.862.862,0,0,1,.878.842H21.4a.894.894,0,0,1,.923-.842m.015-.677a1.824,1.824,0,0,0,.051,3.645,2.108,2.108,0,0,0,1.423-.486l-.37-.559a1.655,1.655,0,0,1-1.01.363.964.964,0,0,1-1.038-.85h2.577c.007-.094.015-.189.015-.29a1.665,1.665,0,0,0-1.648-1.822m9.111,1.822A1.051,1.051,0,1,1,32.5,44.865a1.041,1.041,0,0,1-1.053-1.111m2.81,0V42.02H33.5v.423a1.316,1.316,0,0,0-1.1-.509,1.825,1.825,0,0,0,0,3.645,1.317,1.317,0,0,0,1.1-.509v.421h.754V43.756Zm-7.071,0a1.753,1.753,0,0,0,1.851,1.822,1.814,1.814,0,0,0,1.248-.414l-.362-.61a1.525,1.525,0,0,1-.909.313,1.113,1.113,0,0,1,0-2.222,1.529,1.529,0,0,1,.909.313l.362-.61a1.816,1.816,0,0,0-1.248-.414,1.753,1.753,0,0,0-1.851,1.822m9.729-1.822A1.024,1.024,0,0,0,36,42.44V42.02h-.748v3.47H36V43.544c0-.574.247-.893.74-.893a1.224,1.224,0,0,1,.472.087l.233-.711a1.6,1.6,0,0,0-.538-.095M16.683,42.3a2.6,2.6,0,0,0-1.415-.363c-.879,0-1.445.421-1.445,1.111,0,.566.421.915,1.2,1.024l.356.051c.414.058.609.167.609.363,0,.268-.275.421-.791.421a1.849,1.849,0,0,1-1.154-.363l-.355.588a2.5,2.5,0,0,0,1.5.45c1,0,1.583-.472,1.583-1.133,0-.61-.457-.929-1.212-1.038l-.356-.052c-.327-.042-.588-.108-.588-.341,0-.254.247-.406.661-.406a2.239,2.239,0,0,1,1.082.3l.327-.61Zm9.737-.362a1.022,1.022,0,0,0-.914.509V42.02h-.748v3.47h.755V43.544c0-.574.247-.893.74-.893a1.224,1.224,0,0,1,.472.087l.233-.711a1.6,1.6,0,0,0-.538-.095m-6.439.087H18.746V40.967h-.763V42.02h-.7v.69h.7v1.583c0,.805.313,1.285,1.205,1.285a1.773,1.773,0,0,0,.944-.268l-.218-.646a1.4,1.4,0,0,1-.668.2c-.377,0-.5-.233-.5-.581V42.71H19.98ZM8.7,45.491V43.313a1.292,1.292,0,0,0-1.365-1.379,1.343,1.343,0,0,0-1.22.617,1.274,1.274,0,0,0-1.147-.617,1.148,1.148,0,0,0-1.016.515V42.02H3.194v3.47h.761V43.566a.812.812,0,0,1,.85-.923c.5,0,.755.327.755.915v1.931h.763V43.565a.819.819,0,0,1,.849-.923c.515,0,.761.327.761.915v1.931Z" transform="translate(-1.005 -12.777)" fill="#231f20"/><path d="M60.6,30.65v-.507h-.132l-.153.348-.152-.348h-.133v.507h.094v-.382l.143.33h.1l.143-.331v.383H60.6Zm-.838,0v-.421h.169v-.086H59.5v.086h.169v.421h.093Z" transform="translate(-18.711 -9.48)" fill="#f79410"/><path d="M33.944,24.629H22.508V4.076H33.944Z" transform="translate(-7.079 -1.282)" fill="#ff5f00"/><path d="M16.154,13.071A13.049,13.049,0,0,1,21.146,2.795a13.071,13.071,0,1,0,0,20.552,13.049,13.049,0,0,1-4.992-10.276" transform="translate(0 0)" fill="#eb001b"/><path d="M52,13.071A13.07,13.07,0,0,1,30.849,23.347a13.072,13.072,0,0,0,0-20.552A13.07,13.07,0,0,1,52,13.071" transform="translate(-9.702 0)" fill="#f79e1b"/></g></g></g><circle cx="13.5" cy="13.5" r="13.5" transform="translate(130.923 122.672)" fill="#09df3c"/><g transform="translate(134.3 125.69)"><path d="M0,0H20.661V20.661H0Z" fill="none"/><path d="M15.913,7.026h1.722a.861.861,0,0,1,.861.861V18.218a.861.861,0,0,1-.861.861H3.861A.861.861,0,0,1,3,18.218V7.887a.861.861,0,0,1,.861-.861H5.583V6.165a5.165,5.165,0,1,1,10.331,0ZM4.722,8.748v8.609H16.774V8.748Zm5.165,3.444h1.722v1.722H9.887Zm-3.444,0H8.165v1.722H6.444Zm6.887,0h1.722v1.722H13.331Zm.861-5.165V6.165a3.444,3.444,0,1,0-6.887,0v.861Z" transform="translate(-0.417 -0.139)" fill="#fff"/></g></g></svg>