<?xml version="1.0" encoding="iso-8859-1"?>
<!-- Generator: Adobe Illustrator 19.0.0, SVG Export Plug-In . SVG Version: 6.00 Build 0)  -->
<svg xmlns="http://www.w3.org/2000/svg" xmlns:xlink="http://www.w3.org/1999/xlink" version="1.1" id="Layer_1" x="0px" y="0px" viewBox="0 0 512 512" style="enable-background:new 0 0 512 512;" xml:space="preserve" width="512" height="512">
<g>
	<path style="fill:#FF9468;" d="M152,180h150v-34.671l1.875-5.436C307.977,127.998,319.285,120,332,120h120V30h-68.789l-30-30H272   v120l-24.999-30.624L212,120h-60c-16.569,0-30,13.433-30,30C122,166.569,135.431,180,152,180z"/>
	<path style="fill:#FF9468;" d="M360,332H210v34.671l-1.875,5.436C204.023,384.002,192.715,392,180,392H60v90h68.789l30,30H240V392   l24.999,30.624L300,392h60c16.569,0,30-13.433,30-30C390,345.431,376.569,332,360,332z"/>
	<path style="fill:#FFB99C;" d="M300,452l-31.251-21.251L240,452c-16.569,0-30,13.431-30,30c0,16.567,13.431,30,30,30h60   c16.569,0,30-13.433,30-30C330,465.431,316.569,452,300,452z"/>
	<path style="fill:#FFB99C;" d="M212,60l31.251,21.251L272,60c16.569,0,30-13.431,30-30c0-16.567-13.431-30-30-30h-60   c-16.569,0-30,13.433-30,30C182,46.569,195.431,60,212,60z"/>
	<path style="fill:#FFCEBF;" d="M150,310.699L128.699,332H60v90h90c41.421,0,75-33.579,75-75v-45c0-33.137-26.863-60-60-60h-15   V310.699z"/>
	<path style="fill:#FFCEBF;" d="M362,201.301L383.301,180H452V90h-90c-41.421,0-75,33.579-75,75v45c0,33.137,26.863,60,60,60h15   V201.301z"/>
	<path style="fill:#5BC980;" d="M90,512H0V302h90V512z"/>
	<path style="fill:#5BC980;" d="M422,0h90v210h-90V0z"/>
	<path style="fill:#FFCEBF;" d="M330,422c0,16.569-13.431,30-30,30h-60c-16.569,0-30-13.431-30-30v0c0-16.569,13.431-30,30-30h60   C316.569,392,330,405.431,330,422L330,422z"/>
	<path style="fill:#FFCEBF;" d="M212,60h60c16.569,0,30,13.431,30,30v0c0,16.569-13.431,30-30,30h-60c-16.569,0-30-13.431-30-30v0   C182,73.431,195.431,60,212,60z"/>
</g>















</svg>
