<svg xmlns="http://www.w3.org/2000/svg" xmlns:xlink="http://www.w3.org/1999/xlink" width="1366" height="234" viewBox="0 0 1366 234"><defs><linearGradient id="a" x1="1.068" y1="0.092" x2="-0.025" y2="1.235" gradientUnits="objectBoundingBox"><stop offset="0" stop-color="#292a2f"/><stop offset="0.537" stop-color="#25262b"/><stop offset="1" stop-color="#222328"/></linearGradient><clipPath id="b"><rect width="1366" height="234" transform="translate(0 2057)" fill="url(#a)"/></clipPath></defs><g transform="translate(0 -2057)" opacity="0.1" clip-path="url(#b)"><g transform="translate(266.45 1865.886)"><path d="M6.594,410.2a340.853,340.853,0,0,1,140.1-338" transform="translate(0 -7.162)" fill="none" stroke="#fff" stroke-linecap="round" stroke-linejoin="round" stroke-width="2.391"/><path d="M55.224,526.333a469.711,469.711,0,0,1,210.581-508.4" transform="translate(-4.151 -1.669)" fill="none" stroke="#fff" stroke-linecap="round" stroke-linejoin="round" stroke-width="2.391"/><path d="M151.466,628.235a455.48,455.48,0,0,1-37.174-91.968,449.741,449.741,0,0,1-16.116-95.406,433.544,433.544,0,0,1,5.157-95.836A427.791,427.791,0,0,1,240.856,96.411a453.588,453.588,0,0,1,78.86-56.3A458.753,458.753,0,0,1,410.825,1.434" transform="translate(-9.714)" fill="none" stroke="#fff" stroke-linecap="round" stroke-linejoin="round" stroke-width="2.391"/><g transform="translate(148.628 98.345)"><path d="M184.087,283.093a363.924,363.924,0,0,1,59.736-96.48,434.3,434.3,0,0,1,87.456-77.356" transform="translate(-167.111 -109.257)" fill="none" stroke="#fff" stroke-linecap="round" stroke-linejoin="round" stroke-width="2.391"/><path d="M273.069,784.176a437.435,437.435,0,0,1-68.331-102.5A499.9,499.9,0,0,1,165.2,563.5" transform="translate(-165.2 -155.227)" fill="none" stroke="#fff" stroke-linecap="round" stroke-linejoin="round" stroke-width="2.391"/></g><path d="M368.679,783.5a88.676,88.676,0,0,0-6.876-16.116,194.137,194.137,0,0,0-11.174-18.05c-4.3-6.231-9.24-12.893-14.4-19.984s-10.744-14.182-16.546-21.488c-8.38-10.744-17.19-22.133-26.215-34.166s-17.62-24.5-26-37.6a358.7,358.7,0,0,1-22.562-40.827,238.589,238.589,0,0,1-15.9-43.405,506.761,506.761,0,0,1-15.9-93.257,375.751,375.751,0,0,1,2.579-85.092,325.83,325.83,0,0,1,21.058-76.5,298.287,298.287,0,0,1,39.538-67.9,334.323,334.323,0,0,1,70.7-67.472,448.808,448.808,0,0,1,93.042-50.711" transform="translate(-21.288 -11.081)" fill="none" stroke="#fff" stroke-linecap="round" stroke-linejoin="round" stroke-width="2.391"/><g transform="translate(259.721 103.287)"><path d="M298.364,319.749h0l.215-.43v-.43c16.331-39.108,37.6-69.621,62.1-93.9A282.47,282.47,0,0,1,441.9,169.979a433.13,433.13,0,0,1,88.96-28.364c29.653-6.446,58.877-10.529,85.522-14.182,13.967-1.934,27.075-3.653,39.108-5.8s23.207-4.083,33.091-6.876" transform="translate(-289.768 -114.755)" fill="none" stroke="#fff" stroke-linecap="round" stroke-linejoin="round" stroke-width="2.391"/><path d="M431.05,847.177h0l.215-.215h0a46.056,46.056,0,0,0,2.579-25.785,105.416,105.416,0,0,0-10.1-28.579,267.72,267.72,0,0,0-19.769-31.587c-7.736-11.174-16.761-22.777-26-35.025-15.686-20.843-32.876-43.405-48.563-68.117A393.169,393.169,0,0,1,288.8,576.645" transform="translate(-288.801 -161.5)" fill="none" stroke="#fff" stroke-linecap="round" stroke-linejoin="round" stroke-width="2.391"/></g><path d="M536.537,719.122a315.078,315.078,0,0,0-29.868-50.5c-11.6-16.331-24.5-32.662-37.6-48.992-13.752-17.19-27.5-34.381-39.753-52.43a291,291,0,0,1-31.372-55.868,170.538,170.538,0,0,1-13.752-61.885,179.877,179.877,0,0,1,12.893-70.48c10.959-28.364,24.281-50.067,39.753-67.042a161.944,161.944,0,0,1,51.571-37.6,243.078,243.078,0,0,1,60.166-18.05c21.058-3.868,42.976-6.017,65.323-8.38,18.48-1.934,37.389-3.868,55.868-6.661a362.218,362.218,0,0,0,54.794-12.678" transform="translate(-38.731 -22.985)" fill="none" stroke="#fff" stroke-linecap="round" stroke-linejoin="round" stroke-width="2.391"/><path d="M595.59,708.675a343.432,343.432,0,0,0-32.447-56.513c-12.678-18.265-26.645-36.1-40.612-53.5-13.323-16.76-26.43-33.306-38.033-49.852a310.711,310.711,0,0,1-29.438-50.282,154,154,0,0,1-13.752-52.43,139.406,139.406,0,0,1,40.182-103.786,136.3,136.3,0,0,1,42.761-27.5,249.77,249.77,0,0,1,51.356-14.4c18.265-3.438,37.174-5.587,56.513-7.95,19.984-2.364,40.827-4.942,61.67-8.6a393.542,393.542,0,0,0,62.53-16.331,258.817,258.817,0,0,0,60.166-31.372,252.7,252.7,0,0,0,54.579-53.5" transform="translate(-44.494 -18.34)" fill="none" stroke="#fff" stroke-linecap="round" stroke-linejoin="round" stroke-width="2.391"/><g transform="translate(447.716 198.693)"><path d="M510.236,498.527A109.192,109.192,0,0,1,498.2,457.485a93.715,93.715,0,0,1,7.521-44.05,95.679,95.679,0,0,1,24.926-36.1A108.9,108.9,0,0,1,566.1,356.707a218.305,218.305,0,0,1,43.62-10.314c15.686-2.364,32.232-3.868,49.637-5.372,20.843-1.934,42.546-3.868,64.249-7.306a342.527,342.527,0,0,0,65.323-16.546,244.316,244.316,0,0,0,63.174-34.6,271.722,271.722,0,0,0,57.8-61.67" transform="translate(-497.965 -220.904)" fill="none" stroke="#fff" stroke-linecap="round" stroke-linejoin="round" stroke-width="2.391"/><path d="M665.8,884.6c9.24-30.513,12.033-58.017,10.1-83.373a205.8,205.8,0,0,0-18.05-69.621,334.423,334.423,0,0,0-35.885-59.521c-13.752-18.48-28.794-35.885-43.406-52.645" transform="translate(-506.121 -261.237)" fill="none" stroke="#fff" stroke-linecap="round" stroke-linejoin="round" stroke-width="2.391"/></g><path d="M717.954,860.27a245.175,245.175,0,0,0,1.5-84.018A282.032,282.032,0,0,0,696.251,701.9a462.8,462.8,0,0,0-37.819-65.538c-13.967-20.413-28.794-39.752-42.546-57.8-9.67-12.678-19.124-24.711-27.29-36.315a287.741,287.741,0,0,1-20.628-32.661,97.8,97.8,0,0,1-10.529-29.653,49.324,49.324,0,0,1,3.008-27.29h0a52.564,52.564,0,0,1,16.975-21.7A90.871,90.871,0,0,1,604.5,417.62a251.838,251.838,0,0,1,35.24-7.736c12.893-1.934,26.86-3.653,41.686-5.372" transform="translate(-56.196 -40.793)" fill="none" stroke="#fff" stroke-linecap="round" stroke-linejoin="round" stroke-width="2.391"/><path d="M774.672,850.722a274.013,274.013,0,0,0,.43-99.919,319.321,319.321,0,0,0-29.438-86.166,465.152,465.152,0,0,0-44.91-71.555c-15.9-21.273-31.8-40.182-45.554-56.3-6.876-7.951-12.893-15.256-18.265-21.7a207.926,207.926,0,0,1-13.108-17.62,50.961,50.961,0,0,1-6.876-14.182,17.258,17.258,0,0,1,.215-11.389,11.723,11.723,0,0,1,5.587-6.017,40.3,40.3,0,0,1,10.744-3.868c5.372-1.074,10.959-1.934,16.331-2.579,6.446-.645,13.967-1.5,22.347-2.149,18.694-1.719,41.257-3.868,66.4-7.95A526.051,526.051,0,0,0,819.8,429.775a397.686,397.686,0,0,0,87.026-41.042" transform="translate(-62.202 -39.196)" fill="none" stroke="#fff" stroke-linecap="round" stroke-linejoin="round" stroke-width="2.391"/><path d="M474.023,725.21a302.042,302.042,0,0,0-26-41.9c-10.1-13.752-21.058-27.5-32.232-41.471-15.041-18.48-30.3-37.6-44.265-58.017A306.7,306.7,0,0,1,336.5,518.067a211.357,211.357,0,0,1-13.752-77.356c.215-28.149,6.231-58.877,19.769-92.828,14.4-36.1,31.372-63.6,50.5-84.877a195.082,195.082,0,0,1,62.53-47.058,279.177,279.177,0,0,1,70.05-21.918c24.066-4.512,48.777-6.876,73.274-9.24,16.761-1.719,33.521-3.223,49.637-5.587a345.374,345.374,0,0,0,46.629-9.67,179.444,179.444,0,0,0,42.331-18.05,146.962,146.962,0,0,0,36.529-30.513" transform="translate(-32.515 -12.097)" fill="none" stroke="#fff" stroke-linecap="round" stroke-linejoin="round" stroke-width="2.391"/><path d="M744.712,572.837c-5.157-6.446-9.884-12.248-13.967-17.62a172.279,172.279,0,0,1-10.1-14.4A38.769,38.769,0,0,1,715.489,529a15.654,15.654,0,0,1,.645-9.884,11.54,11.54,0,0,1,4.727-5.372,33.162,33.162,0,0,1,9.025-3.653q6.769-1.612,13.537-2.579c5.372-.86,11.389-1.5,18.48-2.364,15.686-1.934,34.6-4.3,55.654-8.6" transform="translate(-72.21 -50.108)" fill="none" stroke="#fff" stroke-linecap="round" stroke-linejoin="round" stroke-width="2.391"/></g></g></svg>