<svg width="1236" height="54" viewBox="0 0 1236 54" fill="none" xmlns="http://www.w3.org/2000/svg">
<path d="M219.34 39.4297H212.595V21.4724H208V15.6258H212.595V11.4656C212.595 6.53569 214.627 3 221.353 3C222.776 3 225.01 3.30625 225.01 3.30625V8.7351H222.664C220.273 8.7351 219.34 9.51163 219.34 11.6585V15.6258H224.92L224.423 21.4724H219.34L219.34 39.4297ZM234.816 15.1586C234.718 15.1586 234.617 15.1624 234.517 15.1651C228.262 15.1651 225.401 20.1894 225.401 27.3216C225.401 36.3062 229.113 39.9021 234.565 39.9021C237.685 39.9021 239.735 38.4997 240.981 35.8826V39.4322H247.396V15.6283H240.981V19.289C239.963 16.9338 237.856 15.1865 234.816 15.1586ZM236.447 20.7834C239.074 20.7834 240.651 22.7402 240.651 26.0687L240.657 29.4683C240.657 31.7116 239.355 34.3362 236.447 34.3362C231.978 34.3362 232.097 29.1819 232.097 27.4652C232.097 21.6905 234.478 20.7834 236.447 20.7834ZM249.987 27.5315C249.987 24.6389 249.857 15.1741 261.404 15.1741C266.038 15.1741 267.974 16.748 267.974 16.748L266.418 21.9006C266.418 21.9006 264.485 20.7639 261.967 20.7639C258.741 20.7639 256.683 22.7611 256.683 26.2749L256.686 28.7946C256.686 32.171 258.672 34.4249 261.974 34.4249C264.268 34.4249 266.383 33.2775 266.383 33.2775L267.934 38.3225C267.934 38.3225 266.165 39.9063 261.436 39.9063C250.442 39.9063 249.987 31.4146 249.987 27.5315H249.987ZM305.589 15.1651C311.844 15.1651 314.75 20.1894 314.75 27.3216C314.75 36.3062 311.038 39.9021 305.586 39.9021C302.466 39.9021 300.16 38.4999 298.914 35.8826V39.4322L292.579 39.4296V3.72377L299.305 3.09731V18.9665C300.276 16.1902 303.466 15.1651 305.59 15.1651H305.589ZM303.704 20.7834C301.077 20.7834 299.305 22.7402 299.305 26.0687L299.299 29.4683C299.295 31.7116 300.526 34.3362 303.704 34.3362C308.173 34.3362 308.054 29.1819 308.054 27.4652C308.054 21.6905 305.673 20.7834 303.704 20.7834ZM279.644 15.1848C272.55 15.1848 268.805 19.3154 268.805 26.6559V28.0198C268.805 37.5471 274.064 40 280.334 40C286.428 40 289.187 38.1795 289.187 38.1795L287.928 33.3314C287.928 33.3314 284.683 34.8059 281.14 34.8059C277.467 34.8059 275.888 33.8061 275.483 30.0362H289.725V26.1469C289.725 18.1843 285.521 15.1846 279.643 15.1846L279.644 15.1848ZM279.814 20.0394C282.27 20.0394 283.861 21.6475 283.774 25.377H275.495C275.639 21.4517 277.354 20.0396 279.814 20.0396V20.0394ZM328.161 15.1521C320.877 15.1521 317.041 19.5364 317.041 27.3933C317.041 38.1734 323.652 39.9086 328.173 39.9086C334.792 39.9086 339.196 36.103 339.196 27.4912C339.196 18.5278 334.244 15.1521 328.161 15.1521ZM328.07 20.8029C331.273 20.8029 332.542 23.3632 332.542 26.2776V28.7833C332.542 32.3138 330.766 34.3559 328.057 34.3559C325.524 34.3559 323.744 32.4457 323.744 28.7833V26.2776C323.744 22.3716 325.862 20.8029 328.07 20.8029ZM352.594 15.1521C345.31 15.1521 341.475 19.5364 341.475 27.3933C341.475 38.1734 348.085 39.9086 352.607 39.9086C359.225 39.9086 363.629 36.103 363.629 27.4912C363.629 18.5278 358.677 15.1521 352.594 15.1521ZM352.503 20.8029C355.706 20.8029 356.975 23.3632 356.975 26.2776V28.7833C356.975 32.3138 355.199 34.3559 352.491 34.3559C349.957 34.3559 348.177 32.4457 348.177 28.7833V26.2776C348.177 22.3716 350.296 20.8029 352.503 20.8029ZM366.17 39.4297V3.72377L372.916 3.0975V27.0299L379.608 15.626H386.731L379.75 27.4371L387 39.4297H379.856L372.916 27.7848V39.4297H366.17Z" fill="#333333" fill-opacity="0.3"/>
<path d="M158.713 29.0756C158.69 29.0809 158.666 29.0792 158.642 29.0827L158.764 29.065C158.747 29.0668 158.73 29.0756 158.713 29.0792V29.0756ZM76.7578 35.0973C76.7627 35.4977 76.6888 35.8948 76.5409 36.264C76.393 36.6333 76.1742 36.9668 75.898 37.2439C75.631 37.5319 75.3106 37.7598 74.9564 37.9136C74.6022 38.0674 74.2216 38.1439 73.8382 38.1383H68.0548C66.9081 38.1567 65.77 37.9296 64.7102 37.471C63.6504 37.0123 62.6915 36.3317 61.8923 35.471C60.1863 33.6911 59.3535 31.5498 59.3535 29.042V16.8516C59.3535 15.9927 59.6362 15.2718 60.2049 14.6856C60.7736 14.0994 61.4675 13.8089 62.2867 13.8089C62.6679 13.8031 63.0462 13.8795 63.398 14.0333C63.7497 14.1872 64.0674 14.4153 64.3313 14.7033C64.9 15.2984 65.186 16.0139 65.186 16.8499V21.2652H73.3981C74.1429 21.2652 74.7826 21.5415 75.3158 22.094C75.8489 22.6466 76.1146 23.309 76.1146 24.0847C76.1194 24.4559 76.0513 24.8241 75.9144 25.1665C75.7776 25.5089 75.575 25.8183 75.3192 26.0754C75.0708 26.3421 74.7731 26.5531 74.4443 26.6956C74.1155 26.8381 73.7625 26.9091 73.4066 26.9043H65.186V29.0402C65.186 29.8779 65.4653 30.5899 66.0272 31.1761C66.5891 31.7624 67.2695 32.0546 68.0718 32.0546H73.8263C74.6269 32.0546 75.3158 32.3557 75.8862 32.9508C76.1623 33.2278 76.3812 33.5613 76.5291 33.9306C76.677 34.2999 76.7508 34.697 76.746 35.0973H76.7578ZM144.317 35.0973C144.322 35.4975 144.248 35.8946 144.101 36.2638C143.953 36.6331 143.735 36.9666 143.459 37.2439C143.192 37.5318 142.872 37.7596 142.518 37.9134C142.164 38.0672 141.784 38.1437 141.4 38.1383H138.78C137.633 38.157 136.495 37.93 135.435 37.4713C134.375 37.0126 133.416 36.3319 132.616 35.471C131.792 34.6395 131.141 33.6399 130.701 32.534C130.261 31.4281 130.043 30.2396 130.061 29.042V16.8516C130.061 15.9927 130.343 15.2718 130.912 14.6856C131.481 14.0994 132.173 13.8089 132.994 13.8089C133.375 13.8031 133.753 13.8795 134.105 14.0333C134.457 14.1872 134.774 14.4153 135.038 14.7033C135.313 14.981 135.531 15.3148 135.678 15.684C135.824 16.0532 135.897 16.45 135.891 16.8499V21.2652H140.957C141.313 21.2599 141.667 21.3306 141.997 21.4731C142.326 21.6157 142.624 21.8269 142.873 22.094C143.406 22.6466 143.672 23.309 143.672 24.0847C143.677 24.4559 143.608 24.8241 143.472 25.1665C143.335 25.5089 143.132 25.8183 142.876 26.0754C142.628 26.3421 142.33 26.5531 142.002 26.6956C141.673 26.8381 141.32 26.9091 140.964 26.9043H135.891V29.0402C135.891 29.8779 136.171 30.5899 136.733 31.1761C137.294 31.7624 137.975 32.0546 138.777 32.0546H141.4C142.201 32.0546 142.89 32.3557 143.46 32.9508C143.736 33.228 143.955 33.5616 144.102 33.9308C144.25 34.3001 144.323 34.6971 144.318 35.0973H144.317ZM129.084 35.0973C129.084 35.9297 128.796 36.647 128.226 37.2439C127.959 37.532 127.639 37.76 127.284 37.9138C126.93 38.0676 126.55 38.144 126.166 38.1383H123.546C121.143 38.1383 119.09 37.2492 117.385 35.471C116.561 34.6398 115.908 33.6403 115.468 32.5344C115.028 31.4285 114.809 30.2398 114.826 29.042V16.8516C114.818 16.4487 114.889 16.0482 115.035 15.6755C115.182 15.3027 115.4 14.9657 115.677 14.6856C116.246 14.1011 116.94 13.8089 117.759 13.8089C118.141 13.8031 118.519 13.8795 118.871 14.0333C119.222 14.1872 119.54 14.4153 119.804 14.7033C120.373 15.2984 120.659 16.0139 120.659 16.8499V21.2652H125.723C126.467 21.2652 127.107 21.5415 127.64 22.094C127.897 22.3503 128.101 22.6595 128.238 23.0021C128.375 23.3447 128.443 23.7133 128.437 24.0847C128.442 24.4559 128.374 24.8241 128.237 25.1665C128.1 25.5089 127.898 25.8183 127.642 26.0754C127.112 26.6067 126.457 26.9043 125.733 26.9043H120.642V29.0402C120.642 29.8779 120.921 30.5899 121.483 31.1761C122.045 31.7624 122.725 32.0546 123.527 32.0546H126.151C126.951 32.0546 127.64 32.3557 128.211 32.9508C128.487 33.228 128.705 33.5616 128.853 33.9308C129 34.3001 129.074 34.6971 129.069 35.0973H129.084ZM104.884 29.6282C104.884 31.9749 104.089 33.978 102.491 35.6428C101.744 36.4486 100.848 37.0857 99.8564 37.5149C98.8652 37.9441 97.8005 38.1562 96.7279 38.1383C94.6732 38.1383 92.8639 37.4298 91.3 35.9598C89.8347 37.3814 87.904 38.1605 85.9059 38.1365C84.8332 38.1536 83.7685 37.9411 82.7772 37.512C81.7858 37.0829 80.8888 36.4462 80.1412 35.641C79.3702 34.8633 78.7601 33.9281 78.3487 32.8935C77.9373 31.8589 77.7334 30.7469 77.7496 29.6264V23.6845C77.741 23.3069 77.808 22.9316 77.9461 22.5827C78.0843 22.2338 78.2906 21.9189 78.5519 21.6583C79.085 21.127 79.7282 20.8366 80.4763 20.8366C80.8335 20.8302 81.1882 20.8997 81.519 21.041C81.8498 21.1822 82.1497 21.3923 82.4007 21.6583C82.9355 22.1897 83.2029 22.8981 83.2029 23.6862V29.6318C83.1966 30.0028 83.2632 30.3713 83.3986 30.7144C83.534 31.0574 83.7353 31.3677 83.99 31.626C84.2397 31.8902 84.5378 32.0991 84.8664 32.24C85.195 32.3809 85.5474 32.4509 85.9025 32.446C86.6303 32.446 87.2566 32.175 87.7643 31.626C88.0187 31.3676 88.2197 31.0572 88.3548 30.7142C88.4899 30.3711 88.5562 30.0027 88.5496 29.6318V23.7163C88.5496 22.9371 88.8204 22.2605 89.3536 21.6902C89.6069 21.4139 89.9121 21.1952 90.2499 21.048C90.5878 20.9008 90.951 20.8282 91.3169 20.8348C91.6761 20.8298 92.0324 20.9014 92.3642 21.0455C92.696 21.1895 92.9962 21.4029 93.2464 21.6725C93.7829 22.2322 94.0504 22.9016 94.0504 23.6845V29.63C94.0366 29.9998 94.0954 30.3687 94.2231 30.7138C94.3509 31.0589 94.5448 31.373 94.793 31.6367C95.0412 31.9004 95.3383 32.1081 95.6662 32.2469C95.994 32.3858 96.3456 32.453 96.6992 32.4442C97.449 32.4442 98.087 32.1733 98.6117 31.6242C98.8664 31.3659 99.0677 31.0556 99.2031 30.7126C99.3385 30.3696 99.4051 30.0011 99.3987 29.63V23.6845C99.3987 22.9016 99.6662 22.2322 100.201 21.6725C100.45 21.4028 100.749 21.1893 101.08 21.0452C101.411 20.9012 101.767 20.8295 102.125 20.8348C102.875 20.8348 103.517 21.1146 104.051 21.6725C104.586 22.2304 104.852 22.8999 104.852 23.6827V29.6247L104.884 29.6282ZM112.763 16.168C112.768 16.5685 112.695 16.9659 112.547 17.3354C112.4 17.705 112.181 18.0389 111.905 18.3163C111.638 18.6042 111.318 18.8321 110.964 18.9859C110.61 19.1397 110.23 19.2162 109.847 19.2107C109.463 19.2156 109.083 19.1388 108.729 18.9851C108.375 18.8313 108.054 18.6038 107.787 18.3163C107.511 18.0388 107.293 17.7051 107.146 17.3359C106.999 16.9667 106.925 16.5698 106.93 16.1698C106.93 15.3338 107.218 14.6183 107.787 14.0232C108.054 13.7351 108.374 13.5071 108.728 13.3533C109.083 13.1995 109.463 13.1231 109.847 13.1288C110.23 13.1231 110.61 13.1995 110.964 13.3534C111.318 13.5072 111.638 13.7351 111.905 14.0232C112.477 14.6183 112.763 15.3338 112.763 16.1698V16.168ZM112.763 35.0778C112.767 35.4785 112.694 35.8759 112.546 36.2456C112.399 36.6154 112.18 36.9496 111.905 37.2279C111.638 37.516 111.318 37.744 110.964 37.8978C110.61 38.0516 110.23 38.128 109.847 38.1223C109.046 38.1223 108.361 37.8248 107.787 37.2279C107.511 36.9498 107.293 36.6155 107.146 36.2457C106.999 35.8759 106.925 35.4784 106.93 35.0778V23.8669C106.93 23.0309 107.218 22.3136 107.787 21.7186C108.054 21.4301 108.374 21.2018 108.728 21.0477C109.083 20.8936 109.463 20.8169 109.847 20.8224C110.23 20.8169 110.61 20.8936 110.964 21.0477C111.318 21.2019 111.638 21.4302 111.905 21.7186C112.477 22.3136 112.763 23.0292 112.763 23.8669V35.0778ZM179 24.067C179 24.841 178.734 25.5051 178.201 26.0577C177.954 26.325 177.656 26.5364 177.328 26.679C176.999 26.8215 176.646 26.8922 176.29 26.8866H172.309C171.565 26.8866 170.933 27.1593 170.414 27.7013C170.161 27.9571 169.961 28.2649 169.826 28.6052C169.691 28.9456 169.625 29.3113 169.632 29.6796V35.2939C169.632 36.0696 169.368 36.7356 168.836 37.2899C168.589 37.5574 168.293 37.7692 167.965 37.9124C167.637 38.0555 167.284 38.127 166.929 38.1223C166.189 38.1223 165.549 37.846 165.02 37.2899C164.764 37.0325 164.561 36.7228 164.424 36.3801C164.288 36.0373 164.219 35.6688 164.224 35.2974V29.6831C164.208 28.5726 164.41 27.4705 164.818 26.4451C165.225 25.4196 165.83 24.4927 166.594 23.7217C167.335 22.9228 168.225 22.2911 169.208 21.8653C170.191 21.4395 171.247 21.2286 172.311 21.2457H176.289C176.645 21.2403 176.998 21.3114 177.327 21.4545C177.656 21.5977 177.954 21.8099 178.201 22.0781C178.458 22.3337 178.662 22.6425 178.799 22.9849C178.936 23.3274 179.003 23.6959 178.997 24.067H179ZM153.448 38.1205C151.153 38.1205 148.99 37.2067 147.284 35.3825C145.578 33.5582 144.923 31.5693 144.923 28.9959C144.923 28.9959 144.757 20.8171 153.599 20.8171C160.516 20.8171 162.62 25.9001 162.62 28.4115C162.62 30.4057 161.748 31.1142 159.763 31.1142H150.921C150.921 31.1142 150.582 33.2306 154.645 33.2306H159.688C159.995 33.2306 160.299 33.2938 160.582 33.4166C160.865 33.5395 161.123 33.7195 161.34 33.9464C161.557 34.1734 161.729 34.4428 161.846 34.7394C161.964 35.0359 162.024 35.3537 162.024 35.6747C162.024 35.9956 161.964 36.3135 161.846 36.61C161.729 36.9065 161.557 37.176 161.34 37.4029C161.123 37.6299 160.865 37.8099 160.582 37.9327C160.299 38.0556 159.995 38.1188 159.688 38.1188H153.46L153.448 38.1205ZM150.98 27.255H156.786C156.786 25.259 153.898 25.259 153.898 25.259C153.898 25.259 150.98 25.259 150.98 27.255ZM51.265 20.0679C49.459 20.3903 46.8424 20.0537 45.4545 19.448C48.3369 19.2001 50.2884 17.8293 51.0398 15.9679C50.0006 16.6373 46.7747 17.3847 44.9975 16.671L44.7132 15.4383C43.3592 10.2207 38.7098 6.01615 33.8438 6.52446L35.037 6.06043C35.5702 5.8603 38.7149 5.32366 38.219 4.16537C37.8009 3.14169 33.9589 4.93402 33.2362 5.16958C34.1907 4.81536 35.7716 4.14943 35.9391 3C34.4444 3.23168 33.0492 3.9234 31.9312 4.98716C32.334 4.53553 32.637 3.98649 32.7013 3.39318C28.7984 6.00553 26.5185 11.2674 24.6754 16.3752C23.2266 14.9052 21.9402 13.7452 20.7893 13.0987C17.56 11.2869 13.6807 9.39361 7.6333 7.03453C7.46405 9.1368 8.62512 11.9316 12.0339 13.7894C11.2993 13.6832 9.95545 13.9169 8.88238 14.1844C9.31905 16.5931 10.7492 18.5767 14.6234 19.533C12.8531 19.657 11.9374 20.0644 11.1097 20.9853C11.9154 22.6625 13.8855 24.6338 17.4229 24.2264C13.4861 26.0046 15.815 29.2952 19.0206 28.8047C13.5588 34.7165 4.94556 34.295 0 29.336C12.9106 47.7676 40.9812 40.2352 45.1617 22.4819C48.2997 22.5085 50.1377 21.3449 51.2802 20.0626L51.265 20.0679Z" fill="#333333" fill-opacity="0.3"/>
<path d="M1116.14 1C1104.47 1 1095 10.1784 1095 21.5002C1095 32.8224 1104.47 42 1116.14 42C1127.82 42 1137.29 32.8224 1137.29 21.5002C1137.29 10.1791 1127.82 1.00098 1116.14 1.00098L1116.14 1ZM1125.84 30.5671C1125.46 31.1693 1124.65 31.3602 1124.03 30.9906C1119.06 28.0505 1112.81 27.3847 1105.45 29.015C1104.74 29.1718 1104.04 28.7408 1103.88 28.0529C1103.71 27.3651 1104.16 26.6796 1104.87 26.523C1112.92 24.7388 1119.83 25.507 1125.4 28.8094C1126.03 29.1791 1126.22 29.9649 1125.84 30.5671ZM1128.43 24.9852C1127.95 25.7372 1126.94 25.9746 1126.16 25.5119C1120.48 22.1248 1111.81 21.144 1105.09 23.1225C1104.22 23.3777 1103.3 22.9014 1103.03 22.0576C1102.77 21.2122 1103.26 20.3212 1104.13 20.0641C1111.81 17.8051 1121.36 18.8993 1127.89 22.788C1128.66 23.2507 1128.91 24.2346 1128.43 24.9852ZM1128.65 19.1725C1121.84 15.2482 1110.59 14.8873 1104.09 16.8019C1103.04 17.1091 1101.94 16.5373 1101.62 15.5243C1101.3 14.5108 1101.89 13.4403 1102.94 13.1324C1110.41 10.9341 1122.82 11.3587 1130.67 15.8746C1131.61 16.4154 1131.92 17.5922 1131.36 18.5021C1130.81 19.4132 1129.59 19.7136 1128.65 19.1725H1128.65ZM1152.53 19.9246C1148.88 19.0805 1148.23 18.4881 1148.23 17.2433C1148.23 16.0672 1149.37 15.2758 1151.07 15.2758C1152.71 15.2758 1154.35 15.8768 1156.06 17.114C1156.11 17.1515 1156.17 17.1664 1156.24 17.1567C1156.3 17.1474 1156.36 17.1133 1156.4 17.0622L1158.18 14.6259C1158.25 14.5255 1158.23 14.3872 1158.13 14.3106C1156.1 12.726 1153.8 11.9556 1151.12 11.9556C1147.18 11.9556 1144.43 14.2491 1144.43 17.5307C1144.43 21.0497 1146.8 22.2957 1150.91 23.2575C1154.4 24.0378 1154.99 24.6914 1154.99 25.8595C1154.99 27.1545 1153.8 27.96 1151.88 27.96C1149.75 27.96 1148.01 27.2623 1146.06 25.6319C1146.02 25.5903 1145.95 25.5731 1145.89 25.5756C1145.82 25.5804 1145.77 25.6098 1145.73 25.6564L1143.73 27.9624C1143.64 28.0603 1143.65 28.2023 1143.75 28.2855C1146.01 30.2439 1148.79 31.277 1151.8 31.277C1156.04 31.277 1158.79 29.0273 1158.79 25.5437C1158.8 22.6044 1156.98 20.9765 1152.54 19.9278L1152.53 19.9246ZM1168.4 16.4338C1166.56 16.4338 1165.05 17.1368 1163.8 18.5774V16.9559C1163.8 16.8279 1163.7 16.7236 1163.56 16.7236H1160.29C1160.16 16.7236 1160.06 16.8279 1160.06 16.9559V34.9735C1160.06 35.1008 1160.16 35.2061 1160.29 35.2061H1163.56C1163.7 35.2061 1163.8 35.1008 1163.8 34.9735V29.2868C1165.05 30.6405 1166.56 31.304 1168.4 31.304C1171.82 31.304 1175.28 28.7507 1175.28 23.8696C1175.29 18.9875 1171.83 16.4335 1168.4 16.4335L1168.4 16.4338ZM1171.48 23.8696C1171.48 26.3541 1169.9 28.0897 1167.64 28.0897C1165.41 28.0897 1163.72 26.2757 1163.72 23.8696C1163.72 21.4632 1165.41 19.6497 1167.64 19.6497C1169.87 19.6494 1171.48 21.424 1171.48 23.8696ZM1184.16 16.4338C1179.75 16.4338 1176.3 19.7228 1176.3 23.9227C1176.3 28.0775 1179.73 31.3308 1184.11 31.3308C1188.53 31.3308 1191.99 28.0529 1191.99 23.8696C1191.99 19.7004 1188.55 16.4338 1184.16 16.4338ZM1184.16 28.1142C1181.82 28.1142 1180.05 26.288 1180.05 23.8683C1180.05 21.4378 1181.76 19.6739 1184.11 19.6739C1186.47 19.6739 1188.24 21.4994 1188.24 23.9214C1188.24 26.3516 1186.53 28.1142 1184.16 28.1142ZM1201.4 16.7236H1197.8V13.1578C1197.8 13.03 1197.69 12.9257 1197.56 12.9257H1194.29C1194.16 12.9257 1194.05 13.03 1194.05 13.1578V16.7236H1192.48C1192.35 16.7236 1192.24 16.8279 1192.24 16.9559V19.6798C1192.24 19.8076 1192.35 19.9121 1192.48 19.9121H1194.05V26.9612C1194.05 29.8082 1195.51 31.2526 1198.4 31.2526C1199.57 31.2526 1200.54 31.0175 1201.46 30.5132C1201.54 30.4741 1201.58 30.3957 1201.58 30.3125V27.7176C1201.58 27.6393 1201.54 27.5633 1201.47 27.5218C1201.4 27.4777 1201.31 27.4752 1201.24 27.5119C1200.61 27.818 1200 27.96 1199.32 27.96C1198.27 27.96 1197.8 27.4972 1197.8 26.4642V19.9134H1201.4C1201.53 19.9134 1201.63 19.809 1201.63 19.681V16.9574C1201.64 16.8293 1201.53 16.725 1201.4 16.725L1201.4 16.7236ZM1213.93 16.7376V16.2996C1213.93 15.0112 1214.44 14.4366 1215.58 14.4366C1216.26 14.4366 1216.81 14.5678 1217.43 14.7661C1217.5 14.7892 1217.58 14.7777 1217.64 14.7338C1217.7 14.69 1217.74 14.6198 1217.74 14.5454V11.8746C1217.74 11.7724 1217.67 11.6822 1217.57 11.6521C1216.92 11.4652 1216.1 11.2735 1214.85 11.2735C1211.84 11.2735 1210.24 12.9221 1210.24 16.0391V16.7099H1208.67C1208.54 16.7099 1208.43 16.8142 1208.43 16.942V19.6798C1208.43 19.8076 1208.54 19.9121 1208.67 19.9121H1210.24V30.7825C1210.24 30.9123 1210.35 31.0151 1210.48 31.0151H1213.74C1213.88 31.0151 1213.98 30.9123 1213.98 30.7825V19.9128H1217.04L1221.71 30.7825C1221.18 31.9232 1220.66 32.1509 1219.95 32.1509C1219.37 32.1509 1218.76 31.9845 1218.15 31.654C1218.09 31.6246 1218.02 31.6197 1217.96 31.6369C1217.89 31.6589 1217.84 31.703 1217.81 31.7618L1216.71 34.1191C1216.65 34.2317 1216.7 34.3615 1216.81 34.4203C1217.97 35.0274 1219.01 35.2869 1220.3 35.2869C1222.71 35.2869 1224.05 34.195 1225.22 31.2623L1230.89 17.0548C1230.92 16.9834 1230.91 16.9026 1230.87 16.8391C1230.83 16.7762 1230.75 16.7383 1230.67 16.7383H1227.27C1227.17 16.7383 1227.08 16.8012 1227.04 16.894L1223.56 26.5474L1219.74 16.8876C1219.7 16.7978 1219.62 16.7383 1219.52 16.7383L1213.93 16.7376ZM1206.66 16.7236H1203.4C1203.26 16.7236 1203.16 16.8279 1203.16 16.9559V30.7825C1203.16 30.9123 1203.26 31.0151 1203.4 31.0151H1206.66C1206.8 31.0151 1206.9 30.9123 1206.9 30.7825V16.9568C1206.9 16.8288 1206.8 16.7246 1206.66 16.7246V16.7236ZM1205.05 10.4276C1203.75 10.4276 1202.7 11.444 1202.7 12.6995C1202.7 13.9559 1203.75 14.9735 1205.05 14.9735C1206.34 14.9735 1207.39 13.9559 1207.39 12.6995C1207.39 11.4442 1206.34 10.4276 1205.05 10.4276ZM1233.69 21.1694C1232.39 21.1694 1231.39 20.1621 1231.39 18.9387C1231.39 17.7155 1232.41 16.6966 1233.7 16.6966C1234.99 16.6966 1236 17.7038 1236 18.926C1236 20.1493 1234.98 21.1694 1233.69 21.1694ZM1233.7 16.9184C1232.52 16.9184 1231.63 17.8267 1231.63 18.9387C1231.63 20.0504 1232.52 20.9464 1233.69 20.9464C1234.87 20.9464 1235.76 20.0389 1235.76 18.926C1235.76 17.8144 1234.87 16.9184 1233.7 16.9184ZM1234.21 19.1554L1234.86 20.0387H1234.31L1233.72 19.2284H1233.22V20.0387H1232.76V17.6974H1233.84C1234.4 17.6974 1234.77 17.9757 1234.77 18.4443C1234.77 18.8281 1234.54 19.0626 1234.21 19.1554H1234.21ZM1233.82 18.0991H1233.22V18.8396H1233.82C1234.12 18.8396 1234.3 18.6979 1234.3 18.4691C1234.3 18.2281 1234.12 18.0991 1233.82 18.0991Z" fill="#333333" fill-opacity="0.3"/>
<path d="M970.217 33.4078C970.502 32.6935 970.644 31.5255 970.644 29.9043V23.0751C970.644 21.5017 970.502 20.3519 970.217 19.6246C969.932 18.8977 969.43 18.5341 968.712 18.5341C968.018 18.5341 967.528 18.8977 967.243 19.6246C966.958 20.3519 966.815 21.5017 966.815 23.0751V29.9043C966.815 31.5249 966.951 32.6932 967.225 33.4078C967.497 34.1233 967.992 34.4805 968.711 34.4805C969.43 34.4805 969.932 34.1233 970.217 33.4078ZM964.455 36.841C963.426 36.1742 962.695 35.1367 962.262 33.7298C961.828 32.3241 961.611 30.4525 961.611 28.1164V24.9339C961.611 22.5744 961.859 20.6791 962.354 19.249C962.85 17.8189 963.624 16.7761 964.678 16.1205C965.731 15.4652 967.113 15.1371 968.823 15.1371C970.508 15.1371 971.859 15.471 972.875 16.1381C973.891 16.8055 974.634 17.8488 975.106 19.2669C975.576 20.6853 975.812 22.5744 975.812 24.9343V28.1167C975.812 30.4525 975.583 32.3302 975.124 33.748C974.665 35.1664 973.922 36.2035 972.893 36.8586C971.865 37.5142 970.471 37.842 968.712 37.842C966.902 37.842 965.483 37.508 964.455 36.841ZM1044.06 18.9434C1043.8 19.2533 1043.63 19.7602 1043.54 20.463C1043.46 21.1662 1043.41 22.233 1043.41 23.6631V25.2364H1047.17V23.6628C1047.17 22.2568 1047.12 21.19 1047.02 20.4627C1046.92 19.7358 1046.74 19.2237 1046.48 18.9255C1046.22 18.6273 1045.82 18.4779 1045.27 18.4779C1044.73 18.4779 1044.32 18.6335 1044.06 18.9431V18.9434ZM1043.41 28.1686V29.2771C1043.41 30.6837 1043.46 31.7385 1043.54 32.4414C1043.63 33.1448 1043.81 33.6575 1044.08 33.9792C1044.35 34.3005 1044.77 34.462 1045.35 34.462C1046.11 34.462 1046.64 34.1758 1046.93 33.6035C1047.21 33.0315 1047.37 32.078 1047.39 30.7427L1051.81 30.9933C1051.84 31.1847 1051.85 31.4468 1051.85 31.7798C1051.85 33.8063 1051.28 35.3204 1050.12 36.3212C1048.97 37.3219 1047.34 37.8229 1045.23 37.8229C1042.71 37.8229 1040.93 37.0604 1039.92 35.5343C1038.9 34.0094 1038.39 31.6493 1038.39 28.4547V24.6287C1038.39 21.3391 1038.92 18.9378 1039.97 17.4234C1041.03 15.91 1042.83 15.1531 1045.38 15.1531C1047.14 15.1531 1048.49 15.463 1049.43 16.0828C1050.38 16.7033 1051.04 17.6685 1051.42 18.9792C1051.81 20.2902 1052 22.1021 1052 24.4141V28.1686H1043.41ZM951.963 27.7581L946.126 7.48395H951.219L953.263 16.6734C953.784 18.9388 954.169 20.8696 954.416 22.466H954.565C954.738 21.3221 955.123 19.4033 955.717 16.7092L957.836 7.48395H962.929L957.019 27.7581V37.4846H951.963V27.7581M992.376 15.5661V37.4846H988.361L987.915 34.8028H987.804C986.713 36.8289 985.077 37.8417 982.896 37.8417C981.385 37.8417 980.269 37.3654 979.55 36.4116C978.832 35.4587 978.472 33.9684 978.472 31.9419V15.5661H983.603V31.6564C983.603 32.6343 983.714 33.3313 983.937 33.748C984.16 34.1656 984.532 34.3737 985.053 34.3737C985.499 34.3737 985.926 34.2431 986.335 33.9801C986.744 33.7181 987.047 33.385 987.246 32.9797V15.5658H992.376M1018.69 15.5661V37.4846H1014.68L1014.23 34.8028H1014.12C1013.03 36.8289 1011.39 37.8417 1009.21 37.8417C1007.7 37.8417 1006.58 37.3654 1005.86 36.4116C1005.15 35.4587 1004.79 33.9684 1004.79 31.9419V15.5661H1009.92V31.6564C1009.92 32.6343 1010.03 33.3313 1010.25 33.748C1010.47 34.1656 1010.85 34.3737 1011.37 34.3737C1011.81 34.3737 1012.24 34.2431 1012.65 33.9801C1013.06 33.7181 1013.36 33.385 1013.56 32.9797V15.5658H1018.69" fill="#333333" fill-opacity="0.3"/>
<path d="M1006.32 11.4539H1001.22V37.4846H996.205V11.4536H991.112V7.48487H1006.32V11.4539ZM1030.97 28.0102C1030.97 29.6074 1030.9 30.8591 1030.76 31.7644C1030.63 32.671 1030.4 33.3143 1030.07 33.6952C1029.75 34.0767 1029.32 34.2675 1028.77 34.2675C1028.36 34.2708 1027.96 34.1723 1027.6 33.9814C1027.24 33.7906 1026.95 33.5048 1026.73 33.1232V20.6797C1026.9 20.084 1027.2 19.5953 1027.62 19.2135C1028.04 18.8329 1028.5 18.6418 1029 18.6418C1029.52 18.6418 1029.92 18.8384 1030.2 19.2314C1030.49 19.625 1030.69 20.2865 1030.8 21.2162C1030.91 22.1456 1030.97 23.4686 1030.97 25.1849V28.0102ZM1035.67 19.0696C1035.36 17.6874 1034.86 16.6863 1034.16 16.0662C1033.47 15.4467 1032.52 15.1367 1031.3 15.1367C1030.36 15.1367 1029.48 15.3929 1028.66 15.9054C1027.86 16.4059 1027.2 17.1029 1026.77 17.9257H1026.73L1026.73 6.3761H1021.78V37.4839H1026.02L1026.54 35.4105H1026.65C1027.05 36.1492 1027.65 36.7332 1028.44 37.1623C1029.23 37.5914 1030.11 37.8059 1031.08 37.8059C1032.81 37.8059 1034.09 37.037 1034.91 35.4998C1035.73 33.9619 1036.13 31.561 1036.13 28.2949V24.8265C1036.13 22.3716 1035.98 20.4525 1035.67 19.0696ZM939.898 10.4652C939.602 9.40572 939.021 8.43973 938.214 7.66395C937.408 6.88817 936.404 6.32985 935.302 6.04488C931.248 5 914.992 5 914.992 5C914.992 5 898.736 5 894.682 6.04488C893.581 6.32987 892.576 6.88821 891.77 7.66398C890.963 8.43976 890.383 9.40573 890.086 10.4652C889 14.3647 889 22.5 889 22.5C889 22.5 889 30.6356 890.086 34.5345C890.383 35.594 890.963 36.56 891.77 37.3357C892.576 38.1115 893.581 38.6698 894.682 38.9548C898.736 40 914.992 40 914.992 40C914.992 40 931.248 40 935.302 38.9548C936.404 38.6699 937.408 38.1116 938.215 37.3358C939.021 36.56 939.602 35.594 939.898 34.5345C940.984 30.6353 940.984 22.4997 940.984 22.4997C940.984 22.4997 940.984 14.3644 939.898 10.4649" fill="#333333" fill-opacity="0.3"/>
<path d="M909.794 30V15L923.299 22.5L909.794 30Z" fill="black" fill-opacity="0.3"/>
<path d="M666.886 5.16987C662.955 6.64985 658.632 10.8266 657.268 16.08C655.537 22.7305 662.734 25.539 663.322 24.6227C664.014 23.5359 662.028 23.1711 661.623 19.7228C661.101 15.2635 663.399 10.2814 666.3 8.09528C666.841 7.69566 666.815 8.2596 666.815 9.29916C666.815 11.174 666.698 27.9478 666.698 31.4498C666.698 36.1903 666.482 37.683 666.084 39.1569C665.692 40.6559 665.059 41.6667 665.536 42.0601C666.077 42.4946 668.375 41.46 669.708 39.7869C671.302 37.7826 671.864 35.3737 671.968 32.7594C672.085 29.611 672.078 24.6053 672.085 21.7557C672.085 19.1351 672.131 11.474 672.039 6.8616C672.013 5.73381 668.526 4.55233 666.886 5.16987ZM848.133 30.0568C847.571 30.0568 847.304 30.5858 847.088 31.4735C846.343 34.5696 845.56 35.268 844.547 35.268C843.418 35.268 842.405 33.7355 842.138 30.668C841.936 28.2591 841.968 23.8173 842.23 19.3991C842.282 18.4941 842.007 17.5965 839.303 16.7089C838.135 16.3329 836.443 15.769 835.601 17.6015C833.217 22.7666 832.29 26.8786 832.067 28.5417C832.062 28.6289 831.944 28.6414 831.923 28.4421C831.788 27.1076 831.474 24.6813 831.435 19.5809C831.421 18.595 831.193 17.7421 829.965 17.0488C829.175 16.6031 826.772 15.8038 825.903 16.75C825.158 17.5255 824.291 19.6058 823.383 22.0732C822.651 24.0825 822.142 25.4457 822.142 25.4457C822.142 25.4457 822.147 20.0278 822.161 17.9713C822.161 17.1957 821.573 16.938 821.397 16.8906C820.593 16.6791 819.006 16.3329 818.341 16.3329C817.512 16.3329 817.315 16.75 817.315 17.355C817.315 17.431 817.178 24.4809 817.178 29.4107V30.1041C816.727 32.3723 815.24 35.451 813.626 35.451C812.013 35.451 811.249 34.1637 811.249 28.289C811.249 24.863 811.367 23.3717 811.419 20.8918C811.451 19.4639 811.516 18.3658 811.511 18.1132C811.497 17.355 810.027 16.9666 809.348 16.8259C808.663 16.6791 808.068 16.6317 807.599 16.6492C806.946 16.6852 806.482 17.0724 806.482 17.614V18.4356C805.639 17.238 804.274 16.4027 803.36 16.1624C800.918 15.5101 798.364 16.0914 796.438 18.5115C794.91 20.4399 793.988 22.6185 793.63 25.7507C793.361 28.0425 793.447 30.3631 793.923 32.325C793.349 34.5397 792.29 35.451 791.135 35.451C789.45 35.451 788.236 32.9823 788.373 28.711C788.471 25.9038 789.091 23.9356 789.776 21.0798C790.071 19.8635 789.829 19.2299 789.235 18.6123C788.693 18.0596 787.53 17.772 785.866 18.1181C784.683 18.3709 782.979 18.641 781.431 18.8476C781.431 18.8476 781.522 18.5115 781.601 17.919C782 14.8104 778.244 15.0631 777.049 16.0566C776.331 16.6492 775.841 17.3488 775.658 18.6062C775.365 20.6042 777.173 21.5441 777.173 21.5441C776.58 23.9879 775.129 27.1835 773.621 29.4929C772.817 30.7328 772.203 31.6441 771.407 32.6188C771.4 32.2603 771.4 31.8955 771.4 31.5382C771.386 26.3968 771.458 22.3496 771.491 20.8918C771.524 19.4639 771.59 18.3945 771.59 18.1418C771.576 17.589 771.217 17.3724 770.459 17.1135C769.793 16.8794 769.003 16.7089 768.187 16.6492C767.162 16.5794 766.535 17.0724 766.554 17.6538V18.4356C765.706 17.238 764.34 16.4027 763.439 16.1624C760.99 15.5101 758.437 16.0914 756.511 18.5115C754.989 20.4399 753.983 23.1364 753.695 25.7208C753.435 28.1421 753.48 30.1862 753.846 31.9142C753.454 33.6408 752.338 35.451 751.071 35.451C749.458 35.451 748.536 34.1637 748.536 28.289C748.536 24.863 748.654 23.3717 748.714 20.8918C748.745 19.4639 748.805 18.3658 748.798 18.1132C748.791 17.355 747.323 16.9666 746.637 16.8259C745.925 16.674 745.304 16.6268 744.833 16.6492C744.207 16.6964 743.769 17.1957 743.769 17.5778V18.4356C742.921 17.238 741.555 16.4027 740.648 16.1624C738.205 15.5101 735.672 16.1039 733.732 18.5115C732.466 20.0814 731.44 21.8255 730.912 25.6921C730.768 26.8088 730.696 27.8533 730.703 28.8293C730.199 31.6017 727.973 34.7986 726.157 34.7986C725.086 34.7986 724.068 32.9412 724.068 28.9762C724.068 23.7003 724.433 16.1798 724.498 15.4515C724.498 15.4515 726.796 15.4154 727.248 15.4105C728.391 15.4042 729.435 15.4279 730.957 15.357C731.728 15.3221 732.466 12.8485 731.669 12.5373C731.316 12.4015 728.782 12.2783 727.776 12.2609C726.928 12.2434 724.582 12.0854 724.582 12.0854C724.582 12.0854 724.793 7.09698 724.839 6.57412C724.877 6.12717 724.25 5.9044 723.885 5.76864C723.002 5.42878 722.212 5.26949 721.285 5.09891C719.986 4.85867 719.405 5.09396 719.294 6.07367C719.124 7.5613 719.032 11.921 719.032 11.921C718.079 11.921 714.847 11.7492 713.899 11.7492C713.019 11.7492 712.064 15.1577 713.286 15.1988C714.69 15.2461 717.126 15.2935 718.745 15.3333C718.745 15.3333 718.673 22.9782 718.673 25.3336V26.0619C717.779 30.2385 714.65 32.4956 714.65 32.4956C715.322 29.7282 713.951 27.6541 711.47 25.9038C710.556 25.2515 708.754 24.0227 706.735 22.6894C706.735 22.6894 707.904 21.65 708.942 19.5697C709.674 18.0945 709.707 16.3976 707.904 16.0267C704.926 15.4105 702.477 17.3787 701.74 19.4813C701.178 21.1034 701.473 22.3134 702.588 23.5646L702.843 23.8472C702.177 25.0099 701.25 26.5785 700.472 27.7948C698.298 31.1735 696.659 33.8413 695.424 33.8413C694.432 33.8413 694.445 31.1324 694.445 28.594C694.445 26.408 694.627 23.1127 694.771 19.7054C694.817 18.5825 694.19 17.9364 693.14 17.355C692.499 17.0027 691.14 16.3093 690.35 16.3093C689.175 16.3093 685.766 16.4499 682.547 24.822C682.142 25.8801 681.345 27.8011 681.345 27.8011L681.417 17.7309C681.417 17.4957 681.28 17.2729 680.96 17.1135C680.418 16.8495 678.962 16.3093 677.682 16.3093C677.061 16.3093 676.754 16.5682 676.754 17.0787L676.65 32.8242C676.65 34.0231 676.682 35.4211 676.813 36.0324C676.943 36.6436 677.159 37.1428 677.421 37.4416C677.682 37.7304 677.988 37.9532 678.485 38.0528C678.948 38.1412 681.501 38.4287 681.633 37.5536C681.796 36.5016 681.801 35.3688 683.141 31.1212C685.23 24.5169 687.948 21.2976 689.228 20.151C689.456 19.9519 689.711 19.9395 689.697 20.2693C689.639 21.7196 689.449 25.3336 689.319 28.4061C688.973 36.6374 690.631 38.1586 693.015 38.1586C694.831 38.1586 697.391 36.5315 700.14 32.4196C701.857 29.8514 703.516 27.3429 704.718 25.5278C705.541 26.22 706.48 26.9669 707.414 27.7661C709.59 29.6161 710.301 31.3789 709.825 33.0483C709.465 34.328 708.101 35.644 705.678 34.3642C704.972 33.9932 704.672 33.7056 703.961 33.2823C703.582 33.0533 702.993 32.9886 702.647 33.2239C701.733 33.8413 701.217 34.6219 700.916 35.5917C700.635 36.5378 701.687 37.0308 702.778 37.4652C703.712 37.8474 705.724 38.1823 707.009 38.2233C712.018 38.3765 716.028 36.0497 718.816 30.0568C719.32 35.2331 721.441 38.1649 725.132 38.1649C727.606 38.1649 730.082 35.2916 731.166 32.4657C731.472 33.6172 731.936 34.6156 732.531 35.4684C735.378 39.5218 740.902 38.6528 743.671 35.2094C744.533 34.1401 744.665 33.7579 744.665 33.7579C745.069 37.0083 747.982 38.1524 749.648 38.1524C751.521 38.1524 753.442 37.3545 754.792 34.6156C754.956 34.9157 755.126 35.1982 755.322 35.4684C758.163 39.5218 763.687 38.6528 766.463 35.2094C766.587 35.0389 766.705 34.8982 766.802 34.7626L766.888 36.9013C766.888 36.9013 765.3 38.206 764.328 39.0102C760.05 42.542 756.797 45.221 756.557 48.3345C756.256 52.312 759.835 53.7872 762.551 53.9801C765.425 54.1868 767.894 52.7589 769.407 50.7496C770.74 48.9868 771.616 45.1974 771.551 41.4489C771.525 39.945 771.484 38.0416 771.446 35.9913C772.954 34.4289 774.652 32.442 776.207 30.1166C777.91 27.5894 779.726 24.1871 780.653 21.5379C780.653 21.5379 782.24 21.5503 783.926 21.4558C784.468 21.4259 784.624 21.5267 784.519 21.879C784.402 22.3073 782.391 29.2936 784.226 33.9471C785.486 37.1304 788.313 38.1586 789.999 38.1586C791.964 38.1586 793.846 36.8191 794.85 34.8335C794.975 35.0514 795.099 35.268 795.243 35.4684C798.084 39.5218 803.588 38.6467 806.384 35.2094C807.017 34.4289 807.37 33.7579 807.37 33.7579C807.971 37.1253 810.884 38.1649 812.548 38.1649C814.292 38.1649 815.937 37.5249 817.276 34.6804C817.329 35.9327 817.413 36.9548 817.557 37.2772C817.642 37.4777 818.138 37.7242 818.491 37.8474C820.084 38.3765 821.704 38.1238 822.298 38.0118C822.716 37.9358 823.042 37.642 823.083 36.8664C823.199 34.8335 823.127 31.42 823.813 28.8766C824.969 24.6228 826.04 22.9721 826.549 22.1554C826.831 21.696 827.156 21.6201 827.163 22.1019C827.183 23.0828 827.242 25.9623 827.692 29.8402C828.013 32.6835 828.45 34.3691 828.789 34.9045C829.743 36.4257 830.931 36.4967 831.891 36.4967C832.506 36.4967 833.786 36.3436 833.674 35.3737C833.616 34.9045 833.714 31.9839 834.843 27.7898C835.587 25.046 836.822 22.5724 837.266 21.6673C837.436 21.3325 837.508 21.5914 837.508 21.6437C837.41 23.5297 837.201 29.7045 838.049 33.0769C839.213 37.6544 842.561 38.1649 843.731 38.1649C846.219 38.1649 848.264 36.4606 848.949 31.9727C849.119 30.8909 848.87 30.0568 848.132 30.0568M743.717 27.2843C743.58 29.6571 743.064 31.644 742.242 33.0831C740.739 35.6974 737.782 36.5202 736.481 32.7544C735.535 30.0343 735.854 26.3207 736.253 24.3165C736.827 21.3436 738.284 19.241 740.556 19.4339C742.881 19.6406 744.017 22.3371 743.717 27.2843ZM766.502 27.3192C766.372 29.5575 765.725 31.8133 765.02 33.0831C763.564 35.7148 760.52 36.5377 759.259 32.7544C758.399 30.1625 758.6 26.8199 759.031 24.7161C759.587 21.9785 760.925 19.4339 763.336 19.4339C765.68 19.4339 766.835 21.7494 766.502 27.3192ZM767.097 42.6178C767.063 46.7136 766.352 50.2976 764.823 51.3433C762.642 52.8236 759.71 51.7069 760.318 48.7228C760.853 46.0787 763.394 43.3822 767.104 40.0857C767.104 40.0857 767.116 40.8376 767.096 42.6178M806.436 27.3428C806.305 29.8052 805.697 31.7261 804.947 33.0831C803.49 35.7148 800.474 36.5314 799.187 32.7544C798.488 30.6916 798.455 27.2482 798.959 24.3762C799.468 21.4494 800.899 19.241 803.262 19.4339C805.599 19.6343 806.691 22.3371 806.436 27.3428Z" fill="#333333" fill-opacity="0.3"/>
<path d="M449.122 16.5406V14.904C448.568 14.814 448.008 14.7647 447.447 14.7564C442.015 14.7447 437.205 18.353 435.574 23.6643C433.943 28.9756 435.868 34.7573 440.328 37.9375C436.987 34.2732 436.06 28.9388 437.959 24.3173C439.859 19.6957 444.231 16.65 449.122 16.5406Z" fill="#333333" fill-opacity="0.3"/>
<path d="M449.423 35.0801C452.461 35.0759 454.957 32.6232 455.09 29.5129V1.75737H460.037C459.936 1.17741 459.888 0.589096 459.893 0L453.127 0V27.7287C453.015 30.8549 450.512 33.3311 447.46 33.3362C446.548 33.3282 445.651 33.0983 444.843 32.6654C445.367 33.4094 446.055 34.016 446.851 34.4356C447.647 34.8552 448.528 35.076 449.423 35.0801H449.423ZM469.277 11.1747V9.63193C467.456 9.63257 465.676 9.08186 464.16 8.04895C465.489 9.63289 467.285 10.7301 469.277 11.1747H469.277Z" fill="#333333" fill-opacity="0.3"/>
<path d="M464.159 8.04895C462.666 6.30545 461.842 4.06424 461.843 1.74393H460.037C460.27 3.02681 460.756 4.24751 461.465 5.33154C462.174 6.41557 463.091 7.34018 464.159 8.04895ZM447.447 21.692C444.841 21.7057 442.578 23.536 441.959 26.1312C441.34 28.7265 442.523 31.4205 444.829 32.6654C443.58 30.897 443.403 28.5597 444.373 26.6152C445.342 24.6707 447.293 23.4477 449.423 23.4493C449.991 23.4566 450.555 23.547 451.098 23.7177V16.6613C450.544 16.5761 449.984 16.5313 449.423 16.5272H449.122V21.8931C448.576 21.7431 448.012 21.6753 447.447 21.6919L447.447 21.692Z" fill="#333333" fill-opacity="0.3"/>
<path d="M469.277 11.1747V16.5406C465.906 16.5339 462.623 15.4404 459.893 13.415V27.5141C459.879 34.5494 454.311 40.2449 447.447 40.2449C444.898 40.2495 442.411 39.4433 440.327 37.9375C443.804 41.7699 449.214 43.0314 453.965 41.1176C458.717 39.2038 461.842 34.5044 461.843 29.2714V15.2125C464.583 17.2248 467.87 18.304 471.24 18.298V11.3893C470.58 11.3872 469.922 11.3152 469.277 11.1747H469.277Z" fill="#333333" fill-opacity="0.3"/>
<path d="M459.893 27.5141V13.415C462.632 15.4288 465.919 16.5083 469.29 16.5004V11.1344C467.298 10.7034 465.498 9.62048 464.159 8.04895C463.091 7.34018 462.174 6.41557 461.465 5.33154C460.756 4.24751 460.27 3.02681 460.037 1.74393H455.09V29.5128C454.991 31.9903 453.372 34.1317 451.056 34.8483C448.741 35.565 446.236 34.6996 444.816 32.6922C442.51 31.4473 441.327 28.7533 441.946 26.1581C442.565 23.5628 444.827 21.7325 447.434 21.7188C448.002 21.724 448.566 21.8144 449.109 21.9871V16.6211C444.19 16.7065 439.785 19.7629 437.88 24.4121C435.975 29.0613 436.93 34.4251 440.314 38.085C442.418 39.5412 444.909 40.2956 447.447 40.2449C454.311 40.2449 459.879 34.5494 459.893 27.5141Z" fill="#333333" fill-opacity="0.3"/>
<path d="M492.69 40.2615H485.536V16.4281H478.397L478.383 9.89489H500.431L498.407 16.4281H492.69V40.2615ZM550.859 40.2615H543.72V16.4281H536.553L536.539 9.89489H559.093L557.069 16.4281H550.859V40.2615ZM501.771 19.5545H508.843V40.2615H501.826L501.771 19.5545ZM520.797 30.1814L518.704 32.2563V40.2615H511.646V9.81078H518.704V23.9566L525.707 16.9468H534.132L525.283 25.7512L535.199 40.2615H527.416L520.797 30.1814ZM595.611 30.1814L593.587 32.2563V40.2615H586.516L586.448 9.81078H593.587V23.9566L600.576 16.9468H609.001L600.152 25.7512L610 40.2615H602.218L595.611 30.1814Z" fill="#333333" fill-opacity="0.3"/>
<path d="M505.314 17.1851C507.278 17.1851 508.87 15.5532 508.87 13.54C508.87 11.5269 507.278 9.8949 505.314 9.8949C503.35 9.8949 501.758 11.5269 501.758 13.54C501.758 15.5532 503.35 17.1851 505.314 17.1851Z" fill="#333333" fill-opacity="0.3"/>
<path d="M558.19 27.8681C558.193 21.4003 563.047 16.0216 569.337 15.5168H568.284C561.891 15.899 556.897 21.3248 556.897 27.8892C556.897 34.4535 561.891 39.8793 568.284 40.2615H569.337C563.031 39.7555 558.171 34.3522 558.19 27.8681Z" fill="#333333" fill-opacity="0.3"/>
<path d="M572.086 15.4747H571.02C577.29 16.0056 582.115 21.3769 582.115 27.8261C582.115 34.2752 577.29 39.6465 571.02 40.1774H572.086C578.764 40.1774 584.177 34.6287 584.177 27.784C584.177 20.9393 578.764 15.3906 572.086 15.3906V15.4747Z" fill="#333333" fill-opacity="0.3"/>
<path d="M570.172 33.8966C566.924 33.8966 564.291 31.1976 564.291 27.8681C564.291 24.5387 566.924 21.8397 570.172 21.8397C573.42 21.8397 576.053 24.5387 576.053 27.8681C576.046 31.1944 573.417 33.8889 570.172 33.8966ZM570.172 15.4747C563.494 15.4747 558.081 21.0235 558.081 27.8681C558.081 34.7128 563.494 40.2615 570.172 40.2615C576.849 40.2615 582.263 34.7128 582.263 27.8681C582.263 24.5812 580.989 21.4289 578.721 19.1047C576.454 16.7805 573.378 15.4747 570.172 15.4747Z" fill="#333333" fill-opacity="0.3"/>
</svg>
