<svg width="184" height="63" viewBox="0 0 184 63" fill="none" xmlns="http://www.w3.org/2000/svg">
<rect width="63.2432" height="63" fill="white"/>
<path d="M81.524 39.004H89.804V43H76.484V17.872H81.524V39.004ZM101.863 43.324C99.9434 43.324 98.2154 42.904 96.6794 42.064C95.1434 41.2 93.9314 39.988 93.0434 38.428C92.1794 36.868 91.7474 35.068 91.7474 33.028C91.7474 30.988 92.1914 29.188 93.0794 27.628C93.9914 26.068 95.2274 24.868 96.7874 24.028C98.3474 23.164 100.087 22.732 102.007 22.732C103.927 22.732 105.667 23.164 107.227 24.028C108.787 24.868 110.011 26.068 110.899 27.628C111.811 29.188 112.267 30.988 112.267 33.028C112.267 35.068 111.799 36.868 110.863 38.428C109.951 39.988 108.703 41.2 107.119 42.064C105.559 42.904 103.807 43.324 101.863 43.324ZM101.863 38.932C102.775 38.932 103.627 38.716 104.419 38.284C105.235 37.828 105.883 37.156 106.363 36.268C106.843 35.38 107.083 34.3 107.083 33.028C107.083 31.132 106.579 29.68 105.571 28.672C104.587 27.64 103.375 27.124 101.935 27.124C100.495 27.124 99.2834 27.64 98.2994 28.672C97.3394 29.68 96.8594 31.132 96.8594 33.028C96.8594 34.924 97.3274 36.388 98.2634 37.42C99.2234 38.428 100.423 38.932 101.863 38.932ZM123.776 22.732C125.264 22.732 126.572 23.032 127.7 23.632C128.828 24.208 129.716 24.964 130.364 25.9V23.056H135.44V43.144C135.44 44.992 135.068 46.636 134.324 48.076C133.58 49.54 132.464 50.692 130.976 51.532C129.488 52.396 127.688 52.828 125.576 52.828C122.744 52.828 120.416 52.168 118.592 50.848C116.792 49.528 115.772 47.728 115.532 45.448H120.536C120.8 46.36 121.364 47.08 122.228 47.608C123.116 48.16 124.184 48.436 125.432 48.436C126.896 48.436 128.084 47.992 128.996 47.104C129.908 46.24 130.364 44.92 130.364 43.144V40.048C129.716 40.984 128.816 41.764 127.664 42.388C126.536 43.012 125.24 43.324 123.776 43.324C122.096 43.324 120.56 42.892 119.168 42.028C117.776 41.164 116.672 39.952 115.856 38.392C115.064 36.808 114.668 34.996 114.668 32.956C114.668 30.94 115.064 29.152 115.856 27.592C116.672 26.032 117.764 24.832 119.132 23.992C120.524 23.152 122.072 22.732 123.776 22.732ZM130.364 33.028C130.364 31.804 130.124 30.76 129.644 29.896C129.164 29.008 128.516 28.336 127.7 27.88C126.884 27.4 126.008 27.16 125.072 27.16C124.136 27.16 123.272 27.388 122.48 27.844C121.688 28.3 121.04 28.972 120.536 29.86C120.056 30.724 119.816 31.756 119.816 32.956C119.816 34.156 120.056 35.212 120.536 36.124C121.04 37.012 121.688 37.696 122.48 38.176C123.296 38.656 124.16 38.896 125.072 38.896C126.008 38.896 126.884 38.668 127.7 38.212C128.516 37.732 129.164 37.06 129.644 36.196C130.124 35.308 130.364 34.252 130.364 33.028ZM149.219 43.324C147.299 43.324 145.571 42.904 144.035 42.064C142.499 41.2 141.287 39.988 140.399 38.428C139.535 36.868 139.103 35.068 139.103 33.028C139.103 30.988 139.547 29.188 140.435 27.628C141.347 26.068 142.583 24.868 144.143 24.028C145.703 23.164 147.443 22.732 149.363 22.732C151.283 22.732 153.023 23.164 154.583 24.028C156.143 24.868 157.367 26.068 158.255 27.628C159.167 29.188 159.623 30.988 159.623 33.028C159.623 35.068 159.155 36.868 158.219 38.428C157.307 39.988 156.059 41.2 154.475 42.064C152.915 42.904 151.163 43.324 149.219 43.324ZM149.219 38.932C150.131 38.932 150.983 38.716 151.775 38.284C152.591 37.828 153.239 37.156 153.719 36.268C154.199 35.38 154.439 34.3 154.439 33.028C154.439 31.132 153.935 29.68 152.927 28.672C151.943 27.64 150.731 27.124 149.291 27.124C147.851 27.124 146.639 27.64 145.655 28.672C144.695 29.68 144.215 31.132 144.215 33.028C144.215 34.924 144.683 36.388 145.619 37.42C146.579 38.428 147.779 38.932 149.219 38.932Z" fill="white"/>
<path d="M41.952 35.416C41.76 25.672 27.024 28.696 27.024 23.848C27.024 22.312 28.32 21.304 30.816 21.304C33.456 21.304 35.088 22.696 35.28 24.76H41.712C41.328 19.48 37.44 15.976 31.008 15.976C24.432 15.976 20.496 19.528 20.496 23.944C20.496 33.688 35.52 30.664 35.52 35.416C35.52 36.952 34.08 38.152 31.44 38.152C28.752 38.152 26.88 36.616 26.64 34.6H19.872C20.16 39.544 24.816 43.432 31.488 43.432C37.968 43.432 41.952 39.976 41.952 35.416Z" fill="#F16845"/>
</svg>
