<svg width="162" height="53" viewBox="0 0 162 53" fill="none" xmlns="http://www.w3.org/2000/svg">
<rect width="55.6816" height="53" fill="#F16845"/>
<path d="M72.6763 35.9881H80.9563V39.9841H67.6363V14.8561H72.6763V35.9881ZM93.0158 40.3081C91.0958 40.3081 89.3678 39.8881 87.8318 39.0481C86.2958 38.1841 85.0838 36.9721 84.1958 35.4121C83.3318 33.8521 82.8998 32.0521 82.8998 30.0121C82.8998 27.9721 83.3438 26.1721 84.2318 24.6121C85.1438 23.0521 86.3798 21.8521 87.9398 21.0121C89.4998 20.1481 91.2398 19.7161 93.1598 19.7161C95.0798 19.7161 96.8198 20.1481 98.3798 21.0121C99.9398 21.8521 101.164 23.0521 102.052 24.6121C102.964 26.1721 103.42 27.9721 103.42 30.0121C103.42 32.0521 102.952 33.8521 102.016 35.4121C101.104 36.9721 99.8558 38.1841 98.2718 39.0481C96.7118 39.8881 94.9598 40.3081 93.0158 40.3081ZM93.0158 35.9161C93.9278 35.9161 94.7798 35.7001 95.5718 35.2681C96.3878 34.8121 97.0358 34.1401 97.5158 33.2521C97.9958 32.3641 98.2358 31.2841 98.2358 30.0121C98.2358 28.1161 97.7318 26.6641 96.7238 25.6561C95.7398 24.6241 94.5278 24.1081 93.0878 24.1081C91.6478 24.1081 90.4358 24.6241 89.4518 25.6561C88.4918 26.6641 88.0118 28.1161 88.0118 30.0121C88.0118 31.9081 88.4798 33.3721 89.4158 34.4041C90.3758 35.4121 91.5758 35.9161 93.0158 35.9161ZM114.929 19.7161C116.417 19.7161 117.725 20.0161 118.853 20.6161C119.981 21.1921 120.869 21.9481 121.517 22.8841V20.0401H126.593V40.1281C126.593 41.9761 126.221 43.6201 125.477 45.0601C124.733 46.5241 123.617 47.6761 122.129 48.5161C120.641 49.3801 118.841 49.8121 116.729 49.8121C113.897 49.8121 111.569 49.1521 109.745 47.8321C107.945 46.5121 106.925 44.7121 106.685 42.4321H111.689C111.953 43.3441 112.517 44.0641 113.381 44.5921C114.269 45.1441 115.337 45.4201 116.585 45.4201C118.049 45.4201 119.237 44.9761 120.149 44.0881C121.061 43.2241 121.517 41.9041 121.517 40.1281V37.0321C120.869 37.9681 119.969 38.7481 118.817 39.3721C117.689 39.9961 116.393 40.3081 114.929 40.3081C113.249 40.3081 111.713 39.8761 110.321 39.0121C108.929 38.1481 107.825 36.9361 107.009 35.3761C106.217 33.7921 105.821 31.9801 105.821 29.9401C105.821 27.9241 106.217 26.1361 107.009 24.5761C107.825 23.0161 108.917 21.8161 110.285 20.9761C111.677 20.1361 113.225 19.7161 114.929 19.7161ZM121.517 30.0121C121.517 28.7881 121.277 27.7441 120.797 26.8801C120.317 25.9921 119.669 25.3201 118.853 24.8641C118.037 24.3841 117.161 24.1441 116.225 24.1441C115.289 24.1441 114.425 24.3721 113.633 24.8281C112.841 25.2841 112.193 25.9561 111.689 26.8441C111.209 27.7081 110.969 28.7401 110.969 29.9401C110.969 31.1401 111.209 32.1961 111.689 33.1081C112.193 33.9961 112.841 34.6801 113.633 35.1601C114.449 35.6401 115.313 35.8801 116.225 35.8801C117.161 35.8801 118.037 35.6521 118.853 35.1961C119.669 34.7161 120.317 34.0441 120.797 33.1801C121.277 32.2921 121.517 31.2361 121.517 30.0121ZM140.371 40.3081C138.451 40.3081 136.723 39.8881 135.187 39.0481C133.651 38.1841 132.439 36.9721 131.551 35.4121C130.687 33.8521 130.255 32.0521 130.255 30.0121C130.255 27.9721 130.699 26.1721 131.587 24.6121C132.499 23.0521 133.735 21.8521 135.295 21.0121C136.855 20.1481 138.595 19.7161 140.515 19.7161C142.435 19.7161 144.175 20.1481 145.735 21.0121C147.295 21.8521 148.519 23.0521 149.407 24.6121C150.319 26.1721 150.775 27.9721 150.775 30.0121C150.775 32.0521 150.307 33.8521 149.371 35.4121C148.459 36.9721 147.211 38.1841 145.627 39.0481C144.067 39.8881 142.315 40.3081 140.371 40.3081ZM140.371 35.9161C141.283 35.9161 142.135 35.7001 142.927 35.2681C143.743 34.8121 144.391 34.1401 144.871 33.2521C145.351 32.3641 145.591 31.2841 145.591 30.0121C145.591 28.1161 145.087 26.6641 144.079 25.6561C143.095 24.6241 141.883 24.1081 140.443 24.1081C139.003 24.1081 137.791 24.6241 136.807 25.6561C135.847 26.6641 135.367 28.1161 135.367 30.0121C135.367 31.9081 135.835 33.3721 136.771 34.4041C137.731 35.4121 138.931 35.9161 140.371 35.9161Z" fill="white"/>
<path d="M29.3357 41.051C27.1597 41.051 25.2077 40.667 23.4797 39.899C21.7517 39.099 20.3757 38.027 19.3517 36.683C18.3597 35.339 17.8157 33.851 17.7197 32.219H24.4877C24.6157 33.243 25.1117 34.091 25.9757 34.763C26.8717 35.435 27.9757 35.771 29.2877 35.771C30.5677 35.771 31.5597 35.515 32.2637 35.003C32.9997 34.491 33.3677 33.835 33.3677 33.035C33.3677 32.171 32.9197 31.531 32.0237 31.115C31.1597 30.667 29.7677 30.187 27.8477 29.675C25.8637 29.195 24.2317 28.699 22.9517 28.187C21.7037 27.675 20.6157 26.891 19.6877 25.835C18.7917 24.779 18.3437 23.355 18.3437 21.563C18.3437 20.091 18.7597 18.747 19.5917 17.531C20.4557 16.315 21.6717 15.355 23.2397 14.651C24.8397 13.947 26.7117 13.595 28.8557 13.595C32.0237 13.595 34.5517 14.395 36.4397 15.995C38.3277 17.563 39.3677 19.691 39.5597 22.379H33.1277C33.0317 21.323 32.5837 20.491 31.7837 19.883C31.0157 19.243 29.9757 18.923 28.6637 18.923C27.4477 18.923 26.5037 19.147 25.8317 19.595C25.1917 20.043 24.8717 20.667 24.8717 21.467C24.8717 22.363 25.3197 23.051 26.2157 23.531C27.1117 23.979 28.5037 24.443 30.3917 24.923C32.3117 25.403 33.8957 25.899 35.1437 26.411C36.3917 26.923 37.4637 27.723 38.3597 28.811C39.2877 29.867 39.7677 31.275 39.7997 33.035C39.7997 34.571 39.3677 35.947 38.5037 37.163C37.6717 38.379 36.4557 39.339 34.8557 40.043C33.2877 40.715 31.4477 41.051 29.3357 41.051Z" fill="white"/>
</svg>
