<svg width="168" height="25" viewBox="0 0 168 25" fill="none" xmlns="http://www.w3.org/2000/svg">
<path d="M22.6001 9.45218C22.5354 9.26154 22.4163 9.09402 22.2574 8.97031C22.0986 8.84661 21.907 8.77213 21.7063 8.75606L15.8356 8.28958L13.2952 2.66605C13.2143 2.48493 13.0827 2.33109 12.9163 2.22311C12.7499 2.11512 12.5558 2.0576 12.3574 2.0575C12.159 2.05739 11.9649 2.11469 11.7984 2.22249C11.6318 2.3303 11.5001 2.48399 11.419 2.66502L8.87854 8.28958L3.00787 8.75606C2.81063 8.77169 2.62206 8.84381 2.46473 8.9638C2.3074 9.08379 2.18797 9.24656 2.12072 9.43265C2.05348 9.61873 2.04127 9.82025 2.08556 10.0131C2.12985 10.2059 2.22875 10.3819 2.37045 10.52L6.70883 14.7493L5.17449 21.3933C5.1279 21.5944 5.14283 21.8049 5.21735 21.9974C5.29186 22.1899 5.42252 22.3556 5.59237 22.4729C5.76222 22.5903 5.96341 22.6539 6.16984 22.6554C6.37627 22.657 6.57841 22.5965 6.75003 22.4818L12.3571 18.7437L17.9641 22.4818C18.1395 22.5982 18.3464 22.6582 18.5569 22.6536C18.7674 22.6489 18.9714 22.58 19.1416 22.4559C19.3117 22.3319 19.4398 22.1587 19.5085 21.9597C19.5773 21.7607 19.5835 21.5455 19.5263 21.3428L17.6428 14.7524L22.3138 10.5489C22.6197 10.2729 22.7319 9.84246 22.6001 9.45218Z" fill="#F2C94C"/>
<path d="M59.6715 9.45218C59.6068 9.26154 59.4877 9.09402 59.3288 8.97031C59.17 8.84661 58.9784 8.77213 58.7777 8.75606L52.907 8.28958L50.3666 2.66605C50.2857 2.48493 50.1541 2.33109 49.9877 2.22311C49.8213 2.11512 49.6272 2.0576 49.4288 2.0575C49.2305 2.05739 49.0363 2.11469 48.8698 2.22249C48.7033 2.3303 48.5715 2.48399 48.4904 2.66502L45.95 8.28958L40.0793 8.75606C39.8821 8.77169 39.6935 8.84381 39.5362 8.9638C39.3788 9.08379 39.2594 9.24656 39.1922 9.43265C39.1249 9.61873 39.1127 9.82025 39.157 10.0131C39.2013 10.2059 39.3002 10.3819 39.4419 10.52L43.7803 14.7493L42.2459 21.3933C42.1993 21.5944 42.2143 21.8049 42.2888 21.9974C42.3633 22.1899 42.4939 22.3556 42.6638 22.4729C42.8336 22.5903 43.0348 22.6539 43.2413 22.6554C43.4477 22.657 43.6498 22.5965 43.8215 22.4818L49.4285 18.7437L55.0356 22.4818C55.211 22.5982 55.4178 22.6582 55.6283 22.6536C55.8388 22.6489 56.0429 22.58 56.213 22.4559C56.3831 22.3319 56.5112 22.1587 56.58 21.9597C56.6487 21.7607 56.6549 21.5455 56.5977 21.3428L54.7143 14.7524L59.3853 10.5489C59.6911 10.2729 59.8034 9.84246 59.6715 9.45218Z" fill="#F2C94C"/>
<path d="M96.7429 9.45218C96.6782 9.26154 96.5591 9.09402 96.4002 8.97031C96.2414 8.84661 96.0498 8.77213 95.8491 8.75606L89.9784 8.28958L87.438 2.66605C87.3571 2.48493 87.2255 2.33109 87.0591 2.22311C86.8927 2.11512 86.6986 2.0576 86.5002 2.0575C86.3018 2.05739 86.1077 2.11469 85.9412 2.22249C85.7746 2.3303 85.6429 2.48399 85.5618 2.66502L83.0213 8.28958L77.1507 8.75606C76.9534 8.77169 76.7649 8.84381 76.6075 8.9638C76.4502 9.08379 76.3308 9.24656 76.2635 9.43265C76.1963 9.61873 76.1841 9.82025 76.2284 10.0131C76.2727 10.2059 76.3716 10.3819 76.5133 10.52L80.8516 14.7493L79.3173 21.3933C79.2707 21.5944 79.2856 21.8049 79.3602 21.9974C79.4347 22.1899 79.5653 22.3556 79.7352 22.4729C79.905 22.5903 80.1062 22.6539 80.3126 22.6554C80.5191 22.657 80.7212 22.5965 80.8928 22.4818L86.4999 18.7437L92.1069 22.4818C92.2823 22.5982 92.4892 22.6582 92.6997 22.6536C92.9102 22.6489 93.1142 22.58 93.2844 22.4559C93.4545 22.3319 93.5826 22.1587 93.6513 21.9597C93.7201 21.7607 93.7263 21.5455 93.6691 21.3428L91.7857 14.7524L96.4567 10.5489C96.7625 10.2729 96.8747 9.84246 96.7429 9.45218Z" fill="#F2C94C"/>
<path d="M133.814 9.45218C133.75 9.26154 133.63 9.09402 133.472 8.97031C133.313 8.84661 133.121 8.77213 132.92 8.75606L127.05 8.28958L124.509 2.66605C124.428 2.48493 124.297 2.33109 124.13 2.22311C123.964 2.11512 123.77 2.0576 123.572 2.0575C123.373 2.05739 123.179 2.11469 123.013 2.22249C122.846 2.3303 122.714 2.48399 122.633 2.66502L120.093 8.28958L114.222 8.75606C114.025 8.77169 113.836 8.84381 113.679 8.9638C113.522 9.08379 113.402 9.24656 113.335 9.43265C113.268 9.61873 113.255 9.82025 113.3 10.0131C113.344 10.2059 113.443 10.3819 113.585 10.52L117.923 14.7493L116.389 21.3933C116.342 21.5944 116.357 21.8049 116.432 21.9974C116.506 22.1899 116.637 22.3556 116.807 22.4729C116.976 22.5903 117.178 22.6539 117.384 22.6554C117.59 22.657 117.793 22.5965 117.964 22.4818L123.571 18.7437L129.178 22.4818C129.354 22.5982 129.561 22.6582 129.771 22.6536C129.982 22.6489 130.186 22.58 130.356 22.4559C130.526 22.3319 130.654 22.1587 130.723 21.9597C130.792 21.7607 130.798 21.5455 130.74 21.3428L128.857 14.7524L133.528 10.5489C133.834 10.2729 133.946 9.84246 133.814 9.45218Z" fill="#F2C94C"/>
<g clip-path="url(#clip0_25_38)">
<path d="M167.6 9.45218C167.535 9.26154 167.416 9.09402 167.257 8.97031C167.099 8.84661 166.907 8.77213 166.706 8.75606L160.836 8.28958L158.295 2.66605C158.214 2.48493 158.083 2.33109 157.916 2.22311C157.75 2.11512 157.556 2.0576 157.357 2.0575C157.159 2.05739 156.965 2.11469 156.798 2.22249C156.632 2.3303 156.5 2.48399 156.419 2.66502L153.879 8.28958L148.008 8.75606C147.811 8.77169 147.622 8.84381 147.465 8.9638C147.307 9.08379 147.188 9.24656 147.121 9.43265C147.054 9.61873 147.041 9.82025 147.086 10.0131C147.13 10.2059 147.229 10.3819 147.371 10.52L151.709 14.7493L150.175 21.3933C150.128 21.5944 150.143 21.8049 150.217 21.9974C150.292 22.1899 150.423 22.3556 150.592 22.4729C150.762 22.5903 150.963 22.6539 151.17 22.6554C151.376 22.657 151.578 22.5965 151.75 22.4818L157.357 18.7437L162.964 22.4818C163.14 22.5982 163.346 22.6582 163.557 22.6536C163.767 22.6489 163.972 22.58 164.142 22.4559C164.312 22.3319 164.44 22.1587 164.509 21.9597C164.577 21.7607 164.584 21.5455 164.526 21.3428L162.643 14.7524L167.314 10.5489C167.62 10.2729 167.732 9.84246 167.6 9.45218Z" fill="#F2C94C"/>
</g>
<defs>
<clipPath id="clip0_25_38">
<rect width="24.7143" height="24.7143" fill="white" transform="translate(143)"/>
</clipPath>
</defs>
</svg>
