<svg width="674" height="100" viewBox="0 0 674 100" fill="none" xmlns="http://www.w3.org/2000/svg">
<mask id="mask0" mask-type="alpha" maskUnits="userSpaceOnUse" x="0" y="0" width="674" height="100">
<path d="M0 9.94841C0 4.89606 4.09574 0.800308 9.1481 0.800308H664.852C669.904 0.800308 674 4.89605 674 9.94841V90.2528C674 95.3052 669.904 99.4009 664.852 99.4009H9.14808C4.09572 99.4009 0 95.3052 0 90.2528V9.94841Z" fill="#C31331"/>
</mask>
<g mask="url(#mask0)">
<path d="M775.081 55.8891L775.349 45.0083L780.517 50.3112L775.081 55.8891ZM440.422 399.307L440.219 320.895C440.219 318.134 437.96 315.816 435.269 315.816C432.579 315.816 430.34 318.032 430.345 320.798L430.345 399.042L435.513 404.345L440.422 399.307ZM434.818 -215.056C437.508 -215.056 439.97 -217.583 439.97 -220.344L440.194 -298.919L436.009 -303.213L430.573 -297.635L430.285 -219.707C430.285 -216.946 432.122 -215.061 434.818 -215.056ZM759.33 45.8896C756.992 45.5279 754.704 48.1717 754.704 50.9326L754.967 76.53L764.706 66.5356L764.448 50.9377C764.448 48.1768 762.184 45.7622 759.35 45.9099L759.33 45.8896ZM678.405 149.288C676.067 148.926 673.63 151.723 673.63 154.484L673.724 159.888L682.134 151.259C681.17 150.22 680.143 149.033 678.45 149.334L678.405 149.288ZM612.547 110.466L612.592 175.369C612.592 178.13 614.776 180.371 617.471 180.377C620.162 180.377 622.341 178.14 622.341 175.379L622.296 110.477C622.296 107.716 620.112 105.474 617.417 105.469C614.726 105.459 612.542 107.7 612.547 110.466ZM698.51 -6.86402L713.685 -6.84874L713.7 8.96817C713.7 11.7291 715.884 13.9705 718.58 13.9756C718.62 13.9756 718.664 13.9705 718.699 13.9654C718.739 13.9654 719.061 13.6852 719.101 13.6852L744.557 13.4101L734.802 3.40042L724.011 3.39023L724.001 -7.68415L715.805 -16.0944L714.494 -17.4392L703.941 -17.4494L703.936 -28.2741L694.181 -38.2839L693.918 -12.1567C693.918 -9.39574 695.819 -6.86402 698.51 -6.86402ZM500.234 -156.557C500.234 -159.318 498.05 -161.559 495.355 -161.564L454.619 -161.595C451.929 -161.595 449.75 -159.358 449.75 -156.597L449.765 -141.025L434.351 -141.04C431.661 -141.04 429.481 -138.804 429.481 -136.043C429.481 -136.002 429.491 -135.962 429.491 -135.921C429.491 -135.88 429.481 -135.839 429.481 -135.799L429.511 -93.9971C429.511 -91.2362 431.695 -88.9948 434.391 -88.9897C437.081 -88.9897 439.261 -91.226 439.261 -93.9869L439.231 -131.031L454.644 -131.015C455.061 -131.015 455.473 -131.071 455.86 -131.173C456.248 -131.275 456.62 -131.423 456.967 -131.616C457.245 -131.769 457.504 -131.953 457.742 -132.156C457.861 -132.258 457.975 -132.365 458.089 -132.482C458.199 -132.594 458.303 -132.712 458.407 -132.839C459.102 -133.705 459.519 -134.815 459.519 -136.018L459.504 -151.59L495.36 -151.565C498.055 -151.549 500.239 -153.791 500.234 -156.557ZM653.476 133.802L653.655 180.494L663.394 170.499L663.225 133.812C663.225 131.051 661.041 128.81 658.346 128.805C655.655 128.805 653.476 131.041 653.476 133.802ZM576.94 232.585C574.249 232.585 572.07 234.821 572.07 237.582C572.07 240.343 574.398 242.732 577.093 242.737L592.844 242.895L601.159 234.363C600.167 233.344 598.911 232.748 597.57 232.748L576.94 232.585ZM520.989 279.374L520.974 258.351C520.974 255.59 518.79 253.348 516.095 253.343C513.404 253.343 511.225 255.579 511.225 258.34L511.24 279.363C511.24 282.124 513.424 284.366 516.12 284.371C518.81 284.381 520.994 282.14 520.989 279.374ZM420 341.806L419.916 216.824C419.916 214.063 417.731 211.822 415.036 211.817C412.345 211.817 410.166 214.053 410.166 216.814L410.25 341.796C410.25 344.556 412.435 346.798 415.13 346.803C417.821 346.803 420.005 344.562 420 341.806ZM521.158 237.542C521.158 234.781 518.974 232.539 516.278 232.534L495.792 232.519C495.772 232.519 495.757 232.524 495.742 232.519C495.722 232.519 495.707 232.514 495.692 232.519C493.002 232.519 490.823 234.755 490.823 237.516L490.867 299.352C490.867 302.113 493.051 304.355 495.747 304.36C498.437 304.36 500.617 302.123 500.617 299.362L500.577 242.534L516.283 242.544C518.974 242.544 521.158 240.302 521.158 237.542ZM516.07 221.898L516.268 221.898C518.959 221.898 521.138 219.662 521.138 216.901C521.138 216.412 521.069 215.943 520.945 215.5L520.915 174.89C520.915 172.129 518.731 169.888 516.035 169.883C513.345 169.883 511.165 172.119 511.165 174.88L511.19 211.888L475.493 211.863C472.803 211.863 470.624 214.099 470.624 216.86C470.624 217.206 470.658 217.537 470.723 217.868L470.768 278.696C470.768 281.457 472.952 283.698 475.647 283.703C478.343 283.709 480.517 281.467 480.517 278.706L480.477 221.877L516.07 221.898ZM597.049 -16.6496C594.359 -16.6496 592.179 -14.4133 592.179 -11.6524L592.194 9.37059C592.194 9.43172 592.199 9.49793 592.204 9.56415C592.199 9.63038 592.194 9.6966 592.194 9.75773C592.194 12.5187 594.378 14.7601 597.074 14.7651L653.282 14.811L653.292 30.8266C653.292 33.5875 655.476 35.8289 658.172 35.834C660.862 35.834 663.042 33.5977 663.042 30.8368L663.022 9.80868C663.022 7.04772 660.838 4.80636 658.142 4.80127L601.939 4.7605L601.924 -11.6473C601.924 -14.4083 599.74 -16.6496 597.049 -16.6496ZM556.229 191.079C553.539 191.079 551.36 193.315 551.36 196.076C551.36 198.837 553.544 201.079 556.239 201.084L576.726 201.099C579.417 201.099 581.596 198.863 581.596 196.102C581.596 196.061 581.591 196.025 581.591 195.995C581.591 195.954 581.596 195.918 581.596 195.888L581.507 76.9325L597.114 76.9426C597.143 76.9426 597.168 76.9376 597.198 76.9376C597.228 76.9376 597.253 76.9426 597.282 76.9426C599.973 76.9426 602.152 74.7064 602.152 71.9454L602.137 50.9224C602.137 48.1615 599.953 45.9201 597.258 45.915C594.567 45.915 592.388 48.1513 592.388 50.9122L592.398 66.9278L576.617 66.9125C576.111 66.9125 575.624 66.994 575.167 67.1367C574.919 67.2182 574.676 67.315 574.453 67.4321C572.849 68.2523 571.742 69.9486 571.747 71.9097L571.836 191.089L556.229 191.079ZM536.413 159.578C539.103 159.578 541.282 157.341 541.282 154.58L541.183 14.7193L556.075 14.7295C558.766 14.7295 560.945 12.4932 560.945 9.73225C560.945 6.9713 558.761 4.72994 556.066 4.72484L536.304 4.70956C533.613 4.70956 531.434 6.94583 531.434 9.70679L531.538 154.575C531.538 157.336 533.722 159.578 536.413 159.578ZM556.08 24.8717C553.39 24.8717 551.211 27.1079 551.211 29.8689L551.226 50.8919C551.226 53.6528 553.41 55.8942 556.105 55.8993L576.592 55.9146C579.283 55.9146 581.462 53.6783 581.462 50.9173C581.462 48.1564 579.278 45.915 576.582 45.9099L560.975 45.8997L560.965 29.8842C560.955 27.113 558.771 24.8717 556.08 24.8717ZM540.89 -52.4656C540.89 -55.2266 538.706 -57.468 536.011 -57.473L515.524 -57.4883C512.833 -57.4883 510.654 -55.252 510.654 -52.4911C510.654 -49.7301 512.838 -47.4888 515.534 -47.4837L536.021 -47.4684C538.716 -47.4633 540.895 -49.6996 540.89 -52.4656ZM495.742 -121.056C493.051 -121.056 490.872 -118.82 490.872 -116.059L490.887 -95.0363C490.887 -95.0261 490.892 -95.0108 490.887 -94.9955C490.887 -94.9853 490.882 -94.9701 490.887 -94.9548C490.887 -92.1938 493.071 -89.9525 495.767 -89.9474L516.254 -89.9321C518.944 -89.9321 521.123 -92.1684 521.123 -94.9293C521.123 -97.6903 518.939 -99.9316 516.244 -99.9367L500.637 -99.9469L500.627 -116.044C500.617 -118.815 498.432 -121.056 495.742 -121.056ZM500.319 -135.982C500.319 -138.743 498.135 -140.984 495.439 -140.989L474.952 -141.005C472.262 -141.005 470.083 -138.768 470.083 -136.007L470.097 -119.865L454.49 -119.875C451.8 -119.875 449.621 -117.638 449.621 -114.877C449.621 -112.117 451.805 -109.875 454.5 -109.87L474.987 -109.855C477.678 -109.855 479.857 -112.091 479.857 -114.852C479.857 -114.872 479.857 -114.893 479.852 -114.918C479.852 -114.939 479.852 -114.959 479.852 -114.979L479.842 -130.995L495.449 -130.985C498.145 -130.98 500.324 -133.216 500.319 -135.982ZM413.333 -162.109C412.092 -162.109 410.97 -161.63 410.111 -160.851C408.915 -159.939 408.141 -158.482 408.141 -156.842L408.2 -73.8605C408.2 -71.0995 410.384 -68.8581 413.08 -68.8531C415.77 -68.8531 417.95 -71.0893 417.95 -73.8503L417.895 -152.099L433.83 -152.089C436.52 -152.089 438.7 -154.325 438.7 -157.086L438.685 -178.109C438.68 -179.49 438.139 -180.738 437.255 -181.645C436.704 -182.21 436.024 -182.643 435.259 -182.888C434.798 -183.035 434.316 -183.112 433.81 -183.112L398.798 -183.137L398.778 -199.499C398.778 -202.26 396.594 -204.502 393.899 -204.507C391.208 -204.507 389.029 -202.27 389.029 -199.509L389.044 -178.486C389.044 -176.948 389.724 -175.578 390.786 -174.661C391.675 -173.729 392.906 -173.148 394.276 -173.148L428.93 -173.122L428.94 -162.109L413.333 -162.109ZM454.515 14.6531C457.206 14.6531 459.385 12.4168 459.385 9.65584L459.315 -90.1257L475.002 -90.1155C477.693 -90.1155 479.872 -92.3517 479.872 -95.1127C479.872 -97.8736 477.688 -100.115 474.992 -100.12L454.505 -100.135C452.237 -100.141 450.335 -98.5461 449.794 -96.3913C449.64 -95.9074 449.556 -95.3929 449.561 -94.858L449.635 9.64563C449.64 12.4117 451.825 14.6531 454.515 14.6531ZM536.234 -68.9906C537.688 -69.4542 538.845 -70.6003 539.361 -72.0674C539.55 -72.5972 539.654 -73.1728 539.659 -73.7688L539.644 -94.7918C539.644 -97.5527 537.46 -99.7941 534.765 -99.7992C532.074 -99.7992 529.895 -97.5629 529.895 -94.8019L529.905 -78.7864L475.439 -78.8271C472.748 -78.8271 470.569 -76.5909 470.569 -73.8299L470.584 -52.807C470.584 -50.046 472.768 -47.8046 475.464 -47.7995C478.154 -47.7995 480.333 -50.0358 480.333 -52.7967L480.323 -68.8123L534.789 -68.7716C535.291 -68.7665 535.777 -68.848 536.234 -68.9906ZM535.385 -183.652C532.695 -183.652 530.515 -181.415 530.515 -178.654L530.545 -137.118C530.545 -136.547 530.644 -135.997 530.813 -135.488C531.414 -133.425 533.275 -131.912 535.489 -131.912L551.096 -131.902L551.181 -11.7594C551.181 -8.99843 553.365 -6.75706 556.061 -6.75197C558.751 -6.75196 560.93 -8.98825 560.93 -11.7492L560.841 -136.889C560.841 -139.65 558.657 -141.891 555.961 -141.896L540.285 -141.906L540.255 -178.644C540.26 -181.41 538.076 -183.652 535.385 -183.652ZM556.914 180.239C559.605 180.239 561.784 178.003 561.784 175.242C561.784 172.481 559.6 170.239 556.904 170.234L536.418 170.219C533.727 170.219 531.548 172.455 531.548 175.216C531.548 175.226 531.553 175.232 531.553 175.242C531.553 175.252 531.548 175.257 531.548 175.267L531.627 279.389C531.627 282.15 533.812 284.391 536.507 284.396C539.198 284.396 541.377 282.16 541.377 279.399L541.302 180.234L556.914 180.239ZM561.273 154.596L561.213 71.9097C561.213 69.1488 559.029 66.9074 556.334 66.9023C553.643 66.9023 551.464 69.1386 551.464 71.8996L551.523 154.586C551.523 157.347 553.708 159.588 556.403 159.593C559.099 159.598 561.278 157.362 561.273 154.596ZM576.9 -121.204C574.209 -121.204 572.03 -118.968 572.03 -116.207L572.134 28.7329C572.134 29.1303 572.184 29.5072 572.263 29.874L572.263 29.8842C572.263 32.6451 574.448 34.8865 577.143 34.8916L612.492 34.9171L612.517 71.9556C612.517 74.7166 614.701 76.9579 617.397 76.963C617.397 76.963 617.397 76.963 617.407 76.963C617.407 76.963 617.407 76.963 617.417 76.963L637.903 76.9783C640.594 76.9783 642.773 74.742 642.773 71.9811C642.773 69.2201 640.589 66.9788 637.894 66.9737L622.272 66.9584L622.247 29.9198C622.247 27.1589 620.063 24.9175 617.367 24.9124L581.884 24.8818L581.775 -116.202C581.775 -118.963 579.59 -121.204 576.9 -121.204ZM637.447 55.9604C637.487 55.9604 637.531 55.9553 637.571 55.9553C637.611 55.9553 637.655 55.9604 637.695 55.9604L653.307 55.9757L653.317 71.9913C653.317 74.7522 655.501 76.9936 658.197 76.9987C660.887 76.9987 663.066 74.7624 663.066 72.0015L663.052 50.9785C663.052 48.2175 660.867 45.9762 658.172 45.9711L642.317 45.9609L642.307 29.9453C642.307 27.1844 640.122 24.943 637.427 24.9379C634.736 24.9379 632.557 27.1742 632.557 29.9351L632.572 50.9581C632.572 53.7089 634.756 55.9502 637.447 55.9604ZM620.936 -99.1115C620.053 -100.018 618.831 -100.579 617.486 -100.584L596.999 -100.599C594.309 -100.599 592.13 -98.3627 592.13 -95.6017C592.13 -92.8408 594.314 -90.5994 597.009 -90.5943L612.621 -90.579L612.631 -79.3926L597.019 -79.4078C596.682 -79.4078 596.349 -79.3722 596.036 -79.306C593.812 -78.8475 592.135 -76.8303 592.135 -74.4055L592.164 -33.1542C592.149 -32.9963 592.14 -32.8333 592.14 -32.6703C592.14 -29.9093 594.324 -27.668 597.019 -27.6629L612.676 -27.6527L612.686 -11.7084C612.686 -8.94747 614.87 -6.70611 617.566 -6.70102C620.256 -6.70102 622.435 -8.93729 622.435 -11.6982L622.42 -32.7212C622.42 -35.4822 620.236 -37.7236 617.541 -37.7287C617.263 -37.7287 616.985 -37.6981 616.722 -37.6522L601.914 -37.6675L601.894 -69.4032L617.506 -69.3879C620.197 -69.3879 622.376 -71.6242 622.376 -74.3851C622.376 -74.4055 622.376 -74.4157 622.376 -74.4361C622.376 -74.4768 622.381 -74.5125 622.381 -74.5532L622.366 -95.5762C622.366 -96.9516 621.82 -98.2047 620.936 -99.1115ZM640.708 -57.4068C640.589 -57.5087 640.465 -57.6055 640.331 -57.6921C640.013 -57.9162 639.661 -58.0945 639.298 -58.232C638.772 -58.4358 638.206 -58.5478 637.611 -58.5478L617.124 -58.5632C614.433 -58.5632 612.254 -56.3269 612.254 -53.5659C612.254 -50.805 614.438 -48.5636 617.134 -48.5585L632.746 -48.5534L632.771 -11.7186C632.771 -11.0258 632.91 -10.3636 633.158 -9.76251C633.897 -7.96433 635.63 -6.70612 637.65 -6.70102L658.137 -6.68572C660.828 -6.68572 663.007 -8.922 663.007 -11.683C663.007 -14.4439 660.823 -16.6853 658.127 -16.6904L642.515 -16.7056L642.49 -53.5506C642.485 -55.1043 641.79 -56.4899 640.708 -57.4068ZM556.636 211.924C556.517 211.924 556.403 211.929 556.289 211.934C556.254 211.939 556.219 211.944 556.18 211.944C555.961 211.965 555.738 212 555.529 212.051C555.41 212.082 555.296 212.107 555.177 212.148C553.191 212.78 551.757 214.68 551.757 216.921L551.787 258.58C551.787 261.341 553.971 263.582 556.666 263.587C559.357 263.587 561.536 261.351 561.536 258.59L561.511 221.928L597.406 221.954C600.097 221.954 602.276 219.718 602.276 216.957C602.276 214.196 600.092 211.954 597.397 211.949L556.636 211.924ZM515.578 295.022C515.181 295.073 514.799 295.16 514.437 295.297C514.069 295.44 513.722 295.613 513.404 295.837C513.275 295.929 513.151 296.026 513.027 296.123C512.55 296.53 512.426 297.32 512.128 297.89C511.756 298.598 511.622 299.755 511.701 300.692L511.96 300.427L511.438 299.892L511.563 326.305L521.302 316.31L521.292 305.297L532.034 305.297L541.774 295.303L516.273 295.134C516.085 295.134 515.757 295.002 515.578 295.022ZM434.987 294.926C432.296 294.926 430.117 297.162 430.117 299.923C430.117 302.684 432.301 304.925 434.996 304.93L475.762 304.961C478.452 304.961 480.631 302.724 480.631 299.964C480.631 297.203 478.447 294.961 475.752 294.956L434.987 294.926ZM470.519 341.79C470.519 344.551 472.848 346.941 475.543 346.946L491.294 347.104L501.034 337.109L475.533 336.941C472.843 336.941 470.514 339.024 470.519 341.79ZM455.285 315.755C454.441 315.755 453.651 315.974 452.961 316.356C452.549 316.585 452.167 316.876 451.835 317.217C451.616 317.441 451.413 317.691 451.239 317.961C451.06 318.226 450.911 318.511 450.787 318.811C450.539 319.412 450.405 320.07 450.41 320.757L450.608 383.556C450.613 384.937 451.189 386.22 452.182 387.239L460.497 378.707L460.313 325.907L496.134 325.856C498.825 325.856 500.969 323.585 500.969 320.824C500.969 318.063 498.765 315.801 496.075 315.801L455.285 315.755ZM572.422 258.748L572.571 263.699L580.782 255.274C579.764 254.28 578.662 253.832 577.366 253.827C574.676 253.827 572.422 255.987 572.422 258.748ZM552.154 279.547C552.154 280.881 552.665 282.089 553.633 283.133L561.849 274.702L557.098 274.626C554.408 274.626 552.154 276.786 552.154 279.547ZM495.563 -6.1356C498.254 -6.1356 500.433 -8.37187 500.433 -11.1328L500.423 -26.9446L515.832 -26.9345C518.522 -26.9345 520.701 -29.1707 520.701 -31.9317C520.701 -34.6926 518.517 -36.934 515.822 -36.9391L500.413 -36.9493L500.403 -52.7611C500.403 -55.522 498.219 -57.7634 495.524 -57.7685C492.833 -57.7685 490.654 -55.5322 490.654 -52.7713L490.664 -36.9594L475.255 -36.9696C472.565 -36.9696 470.385 -34.7334 470.385 -31.9724C470.385 -29.2115 472.57 -26.9701 475.265 -26.965L490.674 -26.9548L490.684 -11.143C490.688 -8.37696 492.873 -6.1356 495.563 -6.1356ZM618.191 191.415L617.928 191.685L617.953 191.66C615.118 191.512 613.063 193.621 613.207 196.53L613.723 196L613.272 195.536L612.919 222.295L622.659 212.301L622.649 201.43L633.242 201.44L642.982 191.446L617.739 190.952L618.191 191.415ZM719.017 66.1586C716.326 66.1586 714.147 68.3949 714.147 71.1559L714.326 113.141C714.331 114.47 714.842 115.678 715.81 116.722L724.219 108.093L724.04 71.3138C724.035 68.5477 721.707 66.1586 719.017 66.1586ZM739.637 25.0805C739.469 25.0602 739.29 25.05 739.111 25.05C736.421 25.05 734.242 27.2862 734.242 30.0472L734.256 50.5506C734.256 53.3115 736.441 55.5529 739.136 55.558C741.827 55.558 744.006 53.3217 744.006 50.5608L744.001 35.0597L759.846 34.7846C761.216 34.7846 762.646 34.0103 763.624 32.9763L755.349 24.4845L740.442 24.7647C740.263 24.7647 739.811 25.0652 739.637 25.0805ZM455.146 -278.003L460.298 -278.288L451.974 -286.831C450.981 -285.812 450.41 -284.533 450.41 -283.148C450.405 -280.392 452.45 -278.008 455.146 -278.003ZM475.399 -194.41C478.09 -194.41 480.552 -196.937 480.552 -199.698L480.795 -257.255L471.041 -267.265L470.807 -199.703C470.807 -196.942 472.714 -194.415 475.399 -194.41ZM698.52 4.21036C695.829 4.21036 693.65 6.44664 693.65 9.20759L693.665 29.711C693.665 31.4429 694.524 32.9661 695.829 33.8677C696.614 34.4178 697.562 34.7388 698.575 34.7388L718.56 34.7592C721.251 34.7592 723.43 32.5229 723.43 29.7619C723.43 27.001 721.246 24.7596 718.55 24.7545L703.41 24.7443L703.4 9.21777C703.395 6.45172 701.21 4.21036 698.52 4.21036ZM673.312 -11.5913L673.382 87.1409L597.119 87.0848C594.428 87.0848 592.249 89.3211 592.249 92.0821C592.249 92.0922 592.254 92.1075 592.254 92.1177C592.254 92.1279 592.254 92.1381 592.249 92.1533L592.323 195.893C592.323 198.654 594.507 200.895 597.203 200.9C599.893 200.9 602.073 198.664 602.073 195.903L602.003 97.0996L678.266 97.1557H678.296C680.987 97.1557 683.166 94.9194 683.166 92.1585C683.166 91.9751 683.151 91.7866 683.131 91.6032L683.057 -11.5862C683.057 -14.3471 680.873 -16.5885 678.177 -16.5936C675.487 -16.5936 673.307 -14.3573 673.312 -11.5913ZM637.7 105.479C635.009 105.479 632.83 107.716 632.83 110.477L632.875 175.379C632.875 178.14 635.059 180.382 637.755 180.387C640.445 180.387 642.624 178.15 642.624 175.39L642.585 115.484L698.917 115.525C701.608 115.525 703.787 113.288 703.787 110.527C703.787 107.767 701.603 105.525 698.907 105.52L637.7 105.479ZM698.589 97.1659C701.28 97.1659 703.459 94.9296 703.459 92.1687L703.434 55.5376L718.58 55.5529C721.27 55.5529 723.45 53.3166 723.45 50.5557C723.45 47.7947 721.265 45.5534 718.57 45.5483L698.589 45.533C696.907 45.5279 695.427 46.4041 694.549 47.7336C694.003 48.5384 693.68 49.5216 693.68 50.5811L693.71 92.1585C693.71 94.9194 695.894 97.1608 698.589 97.1659ZM632.721 -74.375C632.721 -71.614 635.188 -69.663 637.884 -69.6579L663.339 -69.933L653.585 -79.9427L643.031 -79.9529L643.026 -90.7777L633.272 -100.787L633.009 -74.6704C633.004 -74.6653 632.721 -74.375 632.721 -74.375ZM655 -57.0757C654.121 -56.1741 653.575 -54.9209 653.575 -53.5455L653.59 -33.195C653.59 -32.2067 653.873 -31.2949 654.35 -30.5206C655.213 -29.1248 656.732 -28.1876 658.47 -28.1876L678.45 -28.1723C681.141 -28.1723 683.32 -30.4085 683.32 -33.1695C683.32 -35.9304 681.136 -38.1718 678.44 -38.1769L663.33 -38.1871L663.325 -48.533L678.713 -48.8081C680.004 -48.8081 681.304 -49.4602 682.327 -50.4484L673.893 -59.1031L658.728 -58.8229C657.378 -58.8331 655.883 -57.9824 655 -57.0757ZM495.672 -215.01C498.363 -215.01 500.825 -217.537 500.825 -220.298L501.098 -236.421L491.344 -246.43L491.081 -220.303C491.081 -217.542 492.982 -215.01 495.672 -215.01ZM490.609 -199.402C490.609 -196.641 492.793 -194.4 495.489 -194.395L536.547 -194.655C537.847 -194.655 539.163 -195.322 540.18 -196.315L531.766 -204.95L495.767 -204.685C493.071 -204.69 490.609 -202.163 490.609 -199.402ZM556.76 -173.443L556.855 -173.54C557.987 -173.683 559.198 -174.763 560.225 -175.746L552.05 -184.136L551.965 -178.945C551.97 -176.179 553.926 -173.591 556.76 -173.443ZM572.318 -136.573C572.318 -133.812 574.502 -131.571 577.198 -131.565L592.308 -131.555L592.318 -116.049C592.318 -113.288 594.502 -111.047 597.198 -111.042C597.248 -111.042 597.302 -111.047 597.352 -111.047C597.401 -111.047 597.451 -111.037 597.506 -111.042L617.764 -111.312C619.065 -111.312 620.38 -111.979 621.393 -112.977L612.979 -121.612L602.624 -121.622L602.619 -132.243L601.244 -133.654L592.978 -142.136L577.471 -141.86C574.78 -141.86 572.313 -139.329 572.318 -136.573ZM515.861 14.704C518.552 14.704 520.731 12.4677 520.731 9.70679L520.716 -6.11013L535.827 -6.09992C538.518 -6.09992 540.697 -8.33619 540.697 -11.0971L540.682 -31.6006C540.682 -34.3615 538.498 -36.6029 535.802 -36.608C533.112 -36.608 530.932 -34.3717 530.932 -31.6107L530.942 -16.1046L515.832 -16.1148C513.141 -16.1148 510.962 -13.8785 510.962 -11.1175C510.962 -11.0666 510.967 -11.0106 510.967 -10.9596C510.967 -10.9087 510.957 -10.8577 510.962 -10.8017L510.977 9.70167C510.982 12.4575 513.166 14.6989 515.861 14.704ZM450.221 50.9784C450.221 53.7394 452.405 55.9807 455.101 55.9858L511.205 56.0266L511.235 92.6424C511.235 95.4033 513.419 97.6447 516.115 97.6498C518.805 97.6498 520.984 95.4135 520.984 92.6526L520.955 51.493C520.955 49.9036 520.23 48.4875 519.098 47.5706C518.209 46.6282 516.968 46.0373 515.588 46.0373L455.101 45.9914C452.396 45.9761 450.216 48.2124 450.221 50.9784ZM516.954 159.384C519.262 158.992 521.024 156.939 521.019 154.458L520.989 113.299C520.989 110.721 519.088 108.607 516.651 108.327C516.318 108.25 515.976 108.215 515.623 108.21L500.512 108.199L500.488 71.8333C500.488 69.0724 498.303 66.831 495.608 66.8259C492.917 66.8259 490.738 69.0622 490.738 71.8231L490.768 112.983C490.768 113.013 490.773 113.049 490.773 113.08C490.773 113.11 490.768 113.146 490.768 113.176C490.768 115.937 492.952 118.179 495.648 118.184L511.245 118.194L511.27 149.548L495.672 149.537C492.982 149.537 490.803 151.774 490.803 154.535C490.803 154.575 490.808 154.611 490.808 154.652C490.808 154.693 490.803 154.728 490.803 154.769L490.832 195.929C490.832 198.689 493.017 200.931 495.712 200.936C498.403 200.936 500.582 198.7 500.582 195.939L500.557 159.552L515.668 159.562C516.11 159.567 516.541 159.501 516.954 159.384ZM429.595 30.1388C429.595 32.8998 431.78 35.1412 434.475 35.1463L475.032 35.1768C477.722 35.1768 479.902 32.9406 479.902 30.1796C479.902 27.4187 477.717 25.1773 475.022 25.1722L439.335 25.1467L439.266 -73.8401C439.266 -76.6011 437.081 -78.8424 434.386 -78.8475C431.695 -78.8475 429.516 -76.6113 429.516 -73.8503L429.595 30.1388ZM495.588 35.1921L515.569 35.2074C518.259 35.2074 520.438 32.9711 520.438 30.2102C520.438 27.4492 518.254 25.2079 515.559 25.2028L500.448 25.1926L500.438 9.6864C500.438 6.92544 498.254 4.68408 495.558 4.67899L480.507 4.66879L480.497 -10.8374C480.497 -13.5983 478.313 -15.8397 475.618 -15.8448C472.927 -15.8448 470.748 -13.6085 470.748 -10.8476L470.763 8.93249C470.728 9.17191 470.703 9.4113 470.708 9.66091C470.708 12.4219 472.892 14.6632 475.588 14.6683L490.698 14.6785L490.708 30.1847C490.713 32.9508 492.898 35.1921 495.588 35.1921ZM515.886 -183.57C515.807 -183.57 515.727 -183.56 515.648 -183.56C515.568 -183.56 515.489 -183.57 515.41 -183.57L459.474 -183.611L459.42 -261.626C459.42 -264.387 457.235 -266.628 454.54 -266.633C451.849 -266.633 449.67 -264.397 449.67 -261.636L449.73 -178.848C449.73 -177.065 450.648 -175.501 452.018 -174.615C452.832 -173.993 453.84 -173.611 454.932 -173.611L511.021 -173.566L511.061 -116.767C511.061 -116.238 511.145 -115.733 511.294 -115.254C511.692 -112.901 513.687 -111.098 516.095 -111.103L535.44 -111.087C538.13 -111.087 540.31 -113.324 540.31 -116.085C540.31 -118.846 538.125 -121.087 535.43 -121.092L520.806 -121.102L520.766 -178.563C520.766 -181.324 518.582 -183.565 515.886 -183.57ZM511.562 -219.773C511.21 -217.374 513.821 -215.275 516.512 -215.275L521.218 -215.775L513.017 -224.19C512.054 -223.14 511.309 -221.541 511.662 -219.865L511.567 -219.768L511.562 -219.773ZM551.508 -157.713C551.508 -154.952 553.976 -153.001 556.671 -152.996L582.127 -153.271L572.373 -163.281L556.661 -163.001C553.966 -163.006 551.504 -160.479 551.508 -157.713ZM734.276 71.1711L734.281 76.7185C734.281 76.7695 734.415 76.9681 734.415 77.0191L734.574 97.4562L744.314 87.4618L744.324 87.4516L744.17 71.3291C744.17 68.5681 741.911 66.2503 739.221 66.2503C736.525 66.2452 734.276 68.4102 734.276 71.1711ZM681.25 128.672L678.291 128.672C675.601 128.672 673.422 130.909 673.422 133.67C673.422 136.431 675.779 138.494 678.475 138.499L681.612 138.315L681.657 138.361L694.107 138.983L703.846 128.988L681.404 128.82C681.404 128.82 681.255 128.667 681.25 128.672ZM373.859 337.002L374.454 337.613L374.737 337.323L369.49 336.595L370.801 337.939L378.997 346.35L378.868 341.806C378.863 339.04 376.693 336.854 373.859 337.002ZM394.405 284.029C397.096 284.029 399.275 281.793 399.275 279.032L399.215 195.806C399.215 193.045 397.031 190.804 394.336 190.799C391.645 190.799 389.466 193.035 389.466 195.796L389.525 279.022C389.53 281.788 391.715 284.029 394.405 284.029ZM460.184 216.855L460.174 200.849L475.583 200.86C478.273 200.86 480.453 198.623 480.453 195.862L480.413 138.758L495.826 138.774C498.517 138.774 500.696 136.537 500.696 133.777C500.696 131.016 498.512 128.774 495.816 128.769L475.528 128.754C472.838 128.754 470.658 130.99 470.658 133.751C470.658 133.802 470.663 133.838 470.663 133.889C470.658 133.934 470.653 133.98 470.658 134.026L470.708 190.855L455.3 190.845C452.609 190.845 450.43 193.081 450.43 195.842C450.43 195.873 450.43 195.903 450.435 195.939C450.435 195.969 450.435 196 450.43 196.036L450.44 216.85C450.44 219.611 452.624 221.852 455.319 221.857C458.01 221.857 460.189 219.621 460.184 216.855ZM435.18 200.834C437.871 200.834 440.05 198.598 440.05 195.837C440.05 193.076 437.866 190.835 435.17 190.829L414.882 190.814C412.191 190.814 410.012 193.05 410.012 195.811C410.012 198.572 412.196 200.814 414.892 200.819L435.18 200.834ZM439.32 50.9275C439.32 48.1665 437.136 45.9252 434.44 45.9201C431.745 45.915 429.571 48.1563 429.571 50.9173L429.586 71.7365C429.591 73.1374 430.146 74.4007 431.055 75.3126C431.939 76.2193 433.16 76.7796 434.5 76.7796L470.619 76.8102L470.648 113.171C470.648 115.932 472.833 118.174 475.528 118.179C478.219 118.179 480.398 115.942 480.398 113.181L480.368 71.8181C480.368 71.3902 480.314 70.9673 480.214 70.57C480.115 70.1727 479.966 69.7856 479.777 69.4392C479.629 69.1539 479.45 68.889 479.251 68.6445C479.152 68.5222 479.048 68.4051 478.934 68.2879C478.824 68.1758 478.71 68.0689 478.586 67.9619C477.742 67.2487 476.66 66.8208 475.484 66.8157L439.325 66.7851L439.32 50.9275ZM413.745 25.2639C411.055 25.2639 408.875 27.5001 408.875 30.2611L408.92 92.3724C408.92 95.0824 411.03 97.2881 413.651 97.3696C413.929 97.4205 414.207 97.4511 414.495 97.4511L429.605 97.4613L429.645 154.484C429.645 157.245 431.829 159.486 434.525 159.491C437.215 159.491 439.395 157.255 439.395 154.494L439.355 92.4692V92.3877C439.355 89.6267 437.171 87.3853 434.475 87.3802C434.177 87.3802 433.879 87.4108 433.597 87.4668L418.665 87.4567L418.62 30.2764C418.625 27.5103 416.441 25.269 413.745 25.2639ZM430.876 258.391L430.891 279.211C430.891 281.971 433.075 284.213 435.771 284.218C438.461 284.218 440.641 281.982 440.641 279.221L440.626 258.401C440.626 255.641 438.442 253.399 435.746 253.394C433.051 253.389 430.871 255.625 430.876 258.391ZM455.339 284.075C458.03 284.075 460.209 281.839 460.209 279.078L460.179 238.02C460.194 237.852 460.204 237.679 460.209 237.501C460.209 234.74 458.025 232.498 455.329 232.493L455.3 232.493L439.861 232.483L439.846 216.666C439.846 213.905 437.662 211.664 434.967 211.659C432.276 211.659 430.097 213.895 430.097 216.656L430.112 237.475C430.112 240.236 432.296 242.478 434.991 242.483C435.001 242.483 435.006 242.478 435.016 242.478C435.026 242.478 435.031 242.483 435.041 242.483L450.43 242.493L450.455 279.073C450.46 281.829 452.644 284.07 455.339 284.075ZM420.015 362.421C420.015 359.66 417.811 357.439 415.115 357.434L389.798 357.434L399.553 367.444L415.125 367.439C417.816 367.439 420.015 365.182 420.015 362.421ZM354.072 294.752C351.381 294.752 349.182 297.009 349.182 299.77L349.177 315.75L358.932 325.76L358.932 299.77C358.932 297.009 356.762 294.752 354.072 294.752ZM420.06 383.526C419.916 380.617 417.841 378.528 415.145 378.523L410.345 378.518L418.62 387.01C419.598 385.976 420.318 385.298 419.985 383.602L420.06 383.526ZM129.839 55.1046C130.028 55.1046 130.206 55.0944 130.385 55.074C130.564 55.0944 130.742 55.1046 130.926 55.1097C133.617 55.1097 135.796 52.8734 135.796 50.1124L135.771 13.4814L150.639 13.4967C153.329 13.4967 155.508 11.2604 155.508 8.49946C155.508 5.7385 153.667 3.84859 150.976 3.84859L136.456 4.17973L135.032 5.6417L126.717 14.1742L126.394 45.4464L110.613 45.2578C107.923 45.2578 105.654 47.4024 105.659 50.1685C105.659 52.9294 107.803 55.13 110.494 55.13L129.839 55.1046ZM475.97 357.419C475.91 357.419 475.856 357.414 475.796 357.414C473.106 357.414 471.07 359.798 471.07 362.559L471.219 367.704L479.534 359.171L480.959 357.709L476.288 357.551C476.233 357.556 476.025 357.414 475.97 357.419ZM130.936 65.7154C130.747 65.7154 130.569 65.7256 130.39 65.7459C130.211 65.7256 130.033 65.7154 129.849 65.7103L110.434 65.7154C109.089 65.7103 107.962 66.1738 106.97 67.1926L115.294 75.7353L126.027 75.7455L126.037 86.7587L135.791 96.7685L135.791 70.7279C135.791 67.9771 133.622 65.7205 130.936 65.7154ZM369.709 320.742C369.709 323.503 371.893 325.744 374.588 325.749C377.279 325.749 379.458 323.513 379.458 320.752L379.572 278.966C379.572 276.205 377.646 273.648 374.807 273.791L374.951 273.938L374.588 274.31L308.581 274.091L318.335 284.101L369.659 284.116L369.709 320.742ZM374.539 263.49C377.229 263.49 379.409 261.254 379.409 258.493L379.349 180.27L454.957 180.326C456.233 180.331 457.394 179.821 458.258 178.996C459.41 178.079 460.154 176.653 460.154 175.043L460.095 92.3877C460.095 89.6267 457.911 87.3854 455.215 87.3803C452.525 87.3803 450.345 89.6165 450.345 92.3775L450.4 170.311L374.464 170.255C373.119 170.25 371.898 170.81 371.014 171.717C370.131 172.623 369.59 173.871 369.59 175.257L369.649 258.483C369.664 261.249 371.848 263.49 374.539 263.49ZM389.54 299.892L389.57 341.531C389.57 344.292 391.754 346.533 394.45 346.538C397.145 346.543 399.32 344.302 399.32 341.541L399.295 299.897C399.295 297.136 397.111 294.895 394.415 294.89C391.724 294.89 389.54 297.131 389.54 299.892ZM293.158 232.254C290.467 232.254 288.268 234.511 288.268 237.272L288.263 253.241L298.017 263.251V237.282C298.017 234.521 295.853 232.259 293.158 232.254ZM334.002 294.91L328.884 294.926L337.318 303.58C338.341 302.592 338.872 301.364 338.872 299.928C338.872 297.167 336.698 294.915 334.002 294.91ZM273.053 232.407L267.975 232.422L276.389 241.056C277.406 240.063 277.923 238.851 277.918 237.419C277.918 234.658 275.744 232.407 273.053 232.407ZM353.675 263.465C356.365 263.465 358.545 261.229 358.545 258.468L358.53 237.964L358.53 237.954L358.53 237.944C358.53 235.183 356.345 232.942 353.65 232.937L333.669 232.921C330.979 232.921 328.8 235.158 328.8 237.918C328.8 238.051 328.81 238.173 328.815 238.301L328.83 253.404L313.719 253.394C311.028 253.394 308.849 255.63 308.849 258.391C308.849 261.152 311.033 263.394 313.729 263.399L333.709 263.414C336.4 263.414 338.579 261.178 338.579 258.417C338.579 258.386 338.579 258.366 338.574 258.34C338.574 258.31 338.579 258.284 338.579 258.264L338.564 242.936L348.78 242.946L348.79 258.473C348.8 261.224 350.984 263.465 353.675 263.465ZM353.645 221.582C356.336 221.582 358.515 219.346 358.515 216.585L358.5 196.071C358.5 196.051 358.5 196.03 358.5 196.01C358.5 195.99 358.5 195.969 358.5 195.949C358.5 193.188 356.316 190.947 353.62 190.941L338.49 190.931L338.475 175.44C338.475 174.381 338.152 173.408 337.606 172.593C336.737 171.233 335.238 170.336 333.53 170.336L313.55 170.321C310.859 170.321 308.68 172.557 308.68 175.318C308.68 178.079 310.864 180.32 313.56 180.326L328.735 180.341L328.75 195.944C328.75 198.705 330.934 200.946 333.63 200.951C333.719 200.951 333.813 200.946 333.903 200.936L348.755 200.946L348.765 216.575C348.765 219.335 350.949 221.577 353.645 221.582ZM353.61 180.254C356.301 180.254 358.48 178.018 358.48 175.257L358.47 159.751L413.839 159.792C414.425 159.792 414.976 159.685 415.497 159.486C415.731 159.399 415.959 159.297 416.173 159.17C417.682 158.325 418.709 156.679 418.709 154.784L418.679 112.718C418.679 109.957 416.495 107.716 413.8 107.71L398.62 107.7L398.61 92.1737C398.61 89.4128 396.425 87.1714 393.73 87.1663C391.039 87.1663 388.86 89.4026 388.86 92.1635L388.875 112.667C388.88 114.913 390.325 116.813 392.305 117.45C392.782 117.613 393.293 117.7 393.819 117.7L408.93 117.71L408.95 149.772L353.58 149.731C352.905 149.731 352.265 149.868 351.679 150.123C351.386 150.251 351.108 150.403 350.85 150.587C350.592 150.77 350.349 150.969 350.125 151.198C349.793 151.539 349.515 151.926 349.286 152.354C348.914 153.062 348.701 153.872 348.701 154.738L348.716 175.242C348.735 178.013 350.92 180.254 353.61 180.254ZM353.585 138.702C356.276 138.702 358.455 136.466 358.455 133.705L358.43 97.4103L373.541 97.4205C376.232 97.4205 378.411 95.1843 378.411 92.4233C378.411 89.6624 376.227 87.421 373.531 87.4159L353.551 87.4006C353.213 87.4006 352.885 87.4312 352.568 87.5025C352.463 87.528 352.364 87.5585 352.265 87.5789C352.21 87.5942 352.151 87.6044 352.101 87.6248C351.987 87.6605 351.873 87.7063 351.759 87.7521C351.724 87.7674 351.684 87.7776 351.649 87.7929C351.575 87.8285 351.5 87.8642 351.426 87.8998C351.357 87.9304 351.287 87.961 351.222 87.9966C351.198 88.0119 351.178 88.0221 351.153 88.0374C349.674 88.8932 348.671 90.5232 348.676 92.3927L348.676 92.403L348.701 128.698L333.59 128.688C332.245 128.682 331.024 129.243 330.15 130.15C329.266 131.056 328.725 132.304 328.725 133.68C328.725 136.441 330.909 138.682 333.6 138.682L353.585 138.702ZM333.828 118.102C336.519 118.102 338.698 115.866 338.698 113.105C338.698 110.344 336.514 108.103 333.823 108.103L313.843 108.087C312.498 108.082 311.276 108.643 310.403 109.549C309.519 110.456 308.978 111.704 308.978 113.079L308.993 133.583C308.993 136.344 311.177 138.585 313.873 138.59C316.563 138.59 318.742 136.354 318.742 133.593L318.733 118.087L333.828 118.102ZM216.711 71.1609C216.711 68.4 214.526 66.1586 211.836 66.1586L191.855 66.1433C190.51 66.1382 189.289 66.6986 188.415 67.6053C187.532 68.512 186.991 69.76 186.991 71.1354C186.991 73.8964 189.175 76.1377 191.865 76.1377L211.846 76.153C214.536 76.153 216.711 73.9219 216.711 71.1609ZM313.773 14.6123L333.754 14.6276C336.444 14.6276 338.624 12.3913 338.624 9.63036C338.624 6.8694 336.439 4.62804 333.749 4.62804L313.768 4.61276C312.423 4.60767 311.202 5.16798 310.328 6.07472C309.445 6.98145 308.904 8.22951 308.904 9.60489C308.899 12.3709 311.078 14.6072 313.773 14.6123ZM212.079 -17.3476C210.734 -17.3526 209.513 -16.7923 208.639 -15.8856C207.755 -14.9788 207.214 -13.7308 207.214 -12.3554C207.214 -9.59447 209.398 -7.35313 212.089 -7.35313L232.069 -7.33781C234.76 -7.33781 236.939 -9.57408 236.939 -12.335C236.939 -15.096 234.755 -17.3373 232.064 -17.3373L212.079 -17.3476ZM310.303 -14.6019C309.42 -13.6951 308.879 -12.4471 308.879 -11.0717C308.879 -8.31077 311.063 -6.06941 313.754 -6.06941L333.734 -6.05409C336.424 -6.05409 338.604 -8.29036 338.604 -11.0513C338.604 -13.8123 336.42 -16.0536 333.729 -16.0536L313.749 -16.0689C312.408 -16.0689 311.182 -15.5137 310.303 -14.6019ZM333.724 -26.7664C336.415 -26.7664 338.594 -29.0026 338.594 -31.7636C338.594 -34.5245 336.41 -36.7659 333.719 -36.7659L313.739 -36.7812C312.393 -36.7863 311.172 -36.2259 310.299 -35.3192C309.415 -34.4124 308.874 -33.1644 308.874 -31.7891C308.874 -29.0281 311.058 -26.7867 313.749 -26.7867L333.724 -26.7664ZM308.502 30.2917L308.546 87.6655L293.187 87.6553C292.631 87.6553 292.105 87.7572 291.609 87.9304C289.598 88.5468 288.134 90.457 288.134 92.7188L288.144 108.225L273.033 108.215C271.688 108.21 270.467 108.77 269.593 109.677C268.709 110.583 268.168 111.832 268.168 113.207C268.168 115.968 270.352 118.209 273.043 118.209L293.024 118.224C295.714 118.224 297.893 115.988 297.893 113.227L297.883 97.6599L313.173 97.6702C314.727 97.6753 316.102 96.9264 316.995 95.7649C317.794 94.8735 318.296 93.6866 318.291 92.3775L318.246 30.2967C318.246 27.5358 316.062 25.2944 313.366 25.2893C310.686 25.2893 308.502 27.5307 308.502 30.2917ZM328.661 51.2026C328.661 51.2433 328.666 51.2892 328.666 51.33C328.651 51.4879 328.641 51.6406 328.641 51.8036L328.671 92.3826C328.671 95.1435 330.855 97.3849 333.55 97.39C336.241 97.39 338.42 95.1537 338.42 92.3928L338.39 56.2151L353.516 56.2304C356.206 56.2304 358.386 53.9941 358.386 51.2332C358.386 48.4722 356.201 46.2308 353.506 46.2257L333.525 46.2104C330.84 46.2053 328.661 48.4416 328.661 51.2026ZM333.525 35.3092L353.506 35.3245C353.595 35.3245 353.685 35.3144 353.779 35.3093C353.873 35.3144 353.958 35.3195 354.052 35.3246C356.743 35.3246 358.922 33.0883 358.922 30.3273L358.847 -73.3919C358.847 -76.1528 356.663 -78.3942 353.968 -78.3992C351.277 -78.3992 349.098 -76.163 349.098 -73.402L349.167 25.3199L333.516 25.3046C330.825 25.3046 328.646 27.5409 328.646 30.3018C328.651 33.0679 330.835 35.3092 333.525 35.3092ZM375.035 108.133C372.345 108.133 370.165 110.37 370.165 113.13L370.18 133.634C370.18 133.644 370.185 133.659 370.18 133.675C370.18 133.685 370.175 133.7 370.18 133.715C370.18 136.476 372.365 138.718 375.06 138.723L395.04 138.738C397.731 138.738 399.91 136.502 399.91 133.741C399.91 130.98 397.726 128.739 395.031 128.733L379.92 128.723L379.91 113.146C379.91 110.375 377.726 108.133 375.035 108.133ZM257.605 154.305L257.565 97.6294L272.715 97.6396L272.735 97.6395C275.426 97.6395 277.605 95.4033 277.605 92.6423C277.605 92.5506 277.6 92.4539 277.59 92.3622L277.55 30.3069C277.55 27.546 275.366 25.3046 272.671 25.2995C269.98 25.2995 267.801 27.5358 267.801 30.2967L267.841 87.6349L252.745 87.6197C251.4 87.6146 250.178 88.1749 249.305 89.0816C249.191 89.1988 249.076 89.3261 248.977 89.4586C248.262 90.3246 247.83 91.4503 247.83 92.6831L247.875 154.295C247.875 157.056 250.059 159.297 252.755 159.303C255.426 159.303 257.605 157.066 257.605 154.305ZM288.089 30.312L288.119 71.3392C288.119 74.1002 290.303 76.3415 292.999 76.3466C295.689 76.3466 297.868 74.1104 297.868 71.3494L297.839 30.3222C297.839 27.5613 295.654 25.3199 292.959 25.3148C290.268 25.3148 288.089 27.5511 288.089 30.312ZM247.061 -11.79L247.121 70.9164C247.121 73.6773 249.305 75.9187 252 75.9238C254.696 75.9289 256.87 73.6875 256.87 70.9266L256.81 -11.7798C256.81 -14.5407 254.626 -16.7821 251.931 -16.7872C249.24 -16.7872 247.061 -14.5509 247.061 -11.79ZM273.033 180.295C275.724 180.295 277.908 178.064 277.903 175.298L277.878 138.646L293.038 138.657C295.729 138.657 297.908 136.42 297.908 133.659C297.908 130.898 295.724 128.657 293.033 128.657L273.579 128.642C273.386 128.616 273.192 128.601 272.998 128.606C270.308 128.606 268.129 130.842 268.129 133.603L268.158 170.29L253.048 170.28C251.702 170.275 250.486 170.841 249.608 171.742C248.729 172.644 248.183 173.897 248.183 175.272C248.183 178.033 250.367 180.275 253.058 180.275L273.033 180.295ZM398.56 -11.469L398.545 -31.9724C398.545 -34.7334 396.361 -36.9747 393.665 -36.9798C393.655 -36.9798 393.641 -36.9747 393.626 -36.9798C393.616 -36.9798 393.601 -36.985 393.586 -36.9799L373.606 -36.9951C370.915 -36.9951 368.736 -34.7588 368.736 -31.9979C368.736 -29.2369 370.92 -26.9956 373.615 -26.9905L388.806 -26.9803L388.815 -11.4741C388.815 -8.71318 391 -6.47182 393.695 -6.46672C396.386 -6.46672 398.565 -8.70299 398.56 -11.469ZM353.963 -90.0595C356.653 -90.0595 358.832 -92.2957 358.832 -95.0567L358.817 -115.397L358.818 -115.57C358.818 -118.331 356.633 -120.573 353.938 -120.578C353.511 -120.578 353.094 -120.517 352.702 -120.41L313.168 -120.44C310.477 -120.44 308.298 -118.204 308.298 -115.443C308.298 -115.392 308.303 -115.336 308.303 -115.285C308.303 -115.234 308.298 -115.178 308.298 -115.127L308.328 -72.643C308.328 -69.8821 310.512 -67.6407 313.207 -67.6356C315.898 -67.6356 318.077 -69.8719 318.077 -72.6329L318.047 -110.43L349.068 -110.405L349.078 -95.072C349.088 -92.3008 351.272 -90.0595 353.963 -90.0595ZM373.7 -16.4306C371.009 -16.4306 368.83 -14.1943 368.83 -11.4334L368.875 50.9835C368.875 53.7445 371.059 55.9859 373.754 55.991C376.445 55.991 378.624 53.7547 378.624 50.9937L378.58 -11.4232C378.575 -14.1892 376.39 -16.4306 373.7 -16.4306ZM393.685 4.60769C390.995 4.60769 388.816 6.84396 388.816 9.60492L388.855 66.7087L353.913 66.6833C351.222 66.6833 349.043 68.9195 349.043 71.6805C349.043 74.4415 351.227 76.6828 353.923 76.6879L393.626 76.7185C393.646 76.7185 393.67 76.7134 393.695 76.7185C393.715 76.7185 393.725 76.7185 393.74 76.7236C396.43 76.7236 398.61 74.4873 398.61 71.7264L398.565 9.61508C398.56 6.84903 396.376 4.60769 393.685 4.60769ZM293.431 200.921C296.121 200.921 298.3 198.684 298.3 195.923L298.276 159.659L334.091 159.685C336.782 159.685 338.961 157.448 338.961 154.687C338.961 151.926 336.777 149.685 334.081 149.68L293.654 149.649C293.297 149.649 292.949 149.69 292.616 149.767C290.298 150.149 288.521 152.207 288.521 154.692L288.551 195.913C288.551 198.674 290.735 200.916 293.431 200.921ZM237.594 175.267L237.55 113.186C237.55 111.781 236.979 110.512 236.071 109.6C235.182 108.617 233.916 108.001 232.506 108.001L191.731 107.97C189.041 107.97 186.862 110.207 186.862 112.967C186.862 115.728 189.046 117.97 191.741 117.975L227.815 118L227.86 175.262C227.86 178.023 230.044 180.264 232.74 180.27C235.415 180.264 237.594 178.028 237.594 175.267ZM151.234 86.8199C148.544 86.8199 146.345 89.0766 146.345 91.8375L146.34 107.603L156.094 117.613L156.094 91.8375C156.094 89.0765 153.925 86.8199 151.234 86.8199ZM171.448 117.333C174.139 117.333 176.318 115.097 176.318 112.336L176.288 70.7483C176.288 67.9873 174.104 65.746 171.408 65.7409C171.061 65.7409 170.723 65.7816 170.396 65.8529L156.094 65.8376L156.064 29.3238C156.064 26.5628 153.88 24.3214 151.185 24.3163C148.494 24.3163 146.315 26.5526 146.315 29.3136L146.345 70.9011C146.345 73.662 148.529 75.9034 151.224 75.9085C151.492 75.9085 151.746 75.883 152.004 75.8423L166.539 75.8525L166.563 112.331C166.573 115.092 168.758 117.333 171.448 117.333ZM206.971 8.60644L207.001 45.1611L176.273 45.1407L176.248 8.59116C176.248 5.83021 174.064 3.58885 171.369 3.58376C168.678 3.58375 166.499 5.82003 166.499 8.58098L166.529 50.1379L166.529 50.1685C166.529 52.9294 168.713 55.1708 171.408 55.1759C171.587 55.1759 171.766 55.1657 171.944 55.1453L211.359 55.1759C211.538 55.1963 211.712 55.2115 211.895 55.2064C214.586 55.2064 216.765 52.9702 216.765 50.2092L216.735 8.62172C216.735 5.86076 214.551 3.61943 211.856 3.61433C209.15 3.60924 206.971 5.84549 206.971 8.60644ZM196.824 154.142C197.177 151.743 194.576 149.115 191.88 149.109L186.757 149.079L195.171 157.713C196.189 156.72 197.038 155.951 196.74 154.219L196.819 154.137L196.824 154.142ZM216.81 133.247C216.805 131.866 216.264 130.618 215.38 129.711C215.271 129.599 215.157 129.492 215.033 129.385C214.914 129.284 214.79 129.187 214.655 129.1C214.263 128.83 213.836 128.616 213.38 128.474C212.918 128.326 212.436 128.25 211.93 128.25L171.587 128.234C170.177 128.234 168.971 128.789 168.013 129.844L176.214 138.259L207.031 138.28L207.05 169.903L215.226 178.293C216.259 177.315 216.825 176.052 216.825 174.595L216.81 133.247ZM268.188 216.88C268.188 219.641 270.372 221.883 273.068 221.888C275.758 221.888 277.938 219.651 277.938 216.89L277.923 195.755C277.923 194.889 277.709 194.079 277.337 193.371C277.188 193.086 277.009 192.821 276.811 192.577C276.712 192.454 276.607 192.337 276.493 192.22C276.384 192.108 276.27 192.001 276.146 191.894C275.302 191.181 274.205 190.768 273.023 190.768L227.368 190.753L237.123 200.763H268.158L268.188 216.88ZM252.765 211.863L252.685 211.944L247.974 211.898L256.24 220.38L257.615 221.791L257.625 216.89C257.625 214.129 256.096 212.52 252.765 211.863ZM192.342 86.7944C189.651 86.7944 187.472 89.0307 187.472 91.7916C187.472 94.5526 189.656 96.7939 192.352 96.799L231.856 96.8296C231.876 96.8296 231.886 96.8296 231.901 96.8347C234.591 96.8347 236.77 94.5984 236.77 91.8375L236.711 8.85606C236.711 6.09511 234.527 3.8537 231.831 3.84861C229.141 3.84861 226.961 6.08488 226.961 8.84583L227.016 86.8301L192.342 86.7944ZM419.871 -261.366L420.198 -286.989L410.459 -276.994L410.121 -261.376C410.121 -258.615 412.306 -256.374 415.001 -256.369C417.692 -256.369 419.871 -258.605 419.871 -261.366ZM414.663 -245.967C411.973 -245.967 409.794 -243.73 409.794 -240.97L409.823 -199.443C409.823 -196.682 412.008 -194.441 414.703 -194.436L434.991 -194.42C437.682 -194.42 439.861 -196.657 439.861 -199.418C439.861 -202.179 437.677 -204.42 434.981 -204.425L419.568 -204.44L419.538 -240.964C419.538 -243.725 417.354 -245.967 414.663 -245.967ZM353.804 -173.173C353.883 -173.173 353.953 -173.184 354.027 -173.189C354.102 -173.184 354.176 -173.178 354.251 -173.173L373.645 -173.158C373.735 -173.158 373.824 -173.168 373.918 -173.173C374.013 -173.168 374.102 -173.158 374.191 -173.158C376.882 -173.158 379.061 -175.394 379.061 -178.155L379.046 -199.504C379.046 -202.265 376.862 -204.507 374.166 -204.512C371.476 -204.512 369.297 -202.275 369.297 -199.514L369.307 -183.163L358.674 -183.173L358.664 -199.525C358.664 -202.286 356.479 -204.527 353.784 -204.532C351.093 -204.532 348.914 -202.296 348.914 -199.535L348.929 -178.186C348.929 -175.415 351.113 -173.173 353.804 -173.173ZM329.048 -158.273C328.904 -155.365 330.984 -153.016 333.679 -153.011L389.163 -152.843L389.158 -73.942C389.158 -71.181 391.312 -68.9091 394.008 -68.904C396.698 -68.904 398.863 -71.125 398.863 -73.886L398.793 -156.857C398.793 -156.949 398.783 -157.041 398.773 -157.132C398.793 -157.326 398.808 -157.514 398.803 -157.713C398.803 -160.474 396.619 -162.715 393.924 -162.72L338.296 -162.761L338.614 -199.183C338.609 -200.513 338.092 -201.725 337.621 -202.26L329.212 -193.631L329.172 -158.146L329.048 -158.273ZM190.441 34.5961C193.131 34.6368 195.345 32.4362 195.385 29.6753L196.194 -28.3099L252.576 -28.2691C255.267 -28.2691 257.446 -30.5054 257.446 -33.2663C257.446 -36.0273 255.262 -38.2686 252.566 -38.2737L191.523 -38.3196C191.503 -38.3196 191.488 -38.3145 191.473 -38.3196L191.463 -38.3196C188.773 -38.3604 186.559 -36.1597 186.519 -33.3988L185.635 29.5123C185.601 32.2783 187.745 34.5502 190.441 34.5961ZM272.869 -16.0435C270.179 -16.0435 268 -13.8072 268 -11.0463L268.014 9.97673C268.014 12.7377 270.199 14.979 272.894 14.9841C272.904 14.9841 272.914 14.9841 272.919 14.979C272.929 14.979 272.939 14.9791 272.944 14.9842L292.924 14.9994C295.615 14.9994 297.794 12.7632 297.794 10.0022C297.794 7.24126 295.61 4.9999 292.919 4.9999L277.759 4.98969L277.744 -11.031C277.749 -13.797 275.565 -16.0384 272.869 -16.0435ZM293.267 -6.51256C295.957 -6.51256 298.137 -8.74883 298.137 -11.5098L298.122 -31.9011C298.151 -32.1253 298.171 -32.3494 298.171 -32.5735C298.171 -35.3345 295.987 -37.5759 293.292 -37.581L277.734 -37.5911L277.719 -52.4503C277.784 -52.7713 277.818 -53.1126 277.818 -53.459C277.818 -56.2199 275.634 -58.4613 272.939 -58.4664L252.452 -58.4816C249.761 -58.4816 247.582 -56.2454 247.582 -53.4844C247.582 -50.7235 249.766 -48.4821 252.462 -48.4771L267.97 -48.4668L267.98 -33.2765C267.95 -33.0523 267.93 -32.8282 267.93 -32.6041C267.93 -32.0438 268.024 -31.5089 268.188 -31.0148C268.794 -28.9568 270.655 -27.454 272.854 -27.4489C273.261 -27.4489 273.654 -27.505 274.026 -27.6018L288.362 -27.5916L288.387 -11.52C288.387 -8.75904 290.571 -6.51766 293.267 -6.51256ZM293.133 -48.4516L333.511 -48.421C336.201 -48.421 338.38 -50.6573 338.38 -53.4182C338.38 -53.6729 338.356 -53.9124 338.321 -54.162L338.296 -95.021C338.296 -97.782 336.112 -100.023 333.416 -100.028C330.726 -100.028 328.546 -97.7922 328.546 -95.0312L328.571 -58.4307L298.007 -58.4562L297.998 -74.4718C297.993 -76.3718 296.96 -78.0223 295.446 -78.873C294.756 -79.255 293.962 -79.4792 293.123 -79.4741L272.636 -79.4894C269.945 -79.4894 267.766 -77.2531 267.766 -74.4922C267.766 -71.7312 269.95 -69.4898 272.646 -69.4848L288.253 -69.4745L288.263 -53.459C288.258 -50.6929 290.442 -48.4516 293.133 -48.4516ZM293.004 -90.2836C295.694 -90.2836 297.873 -92.5199 297.873 -95.2808L297.849 -130.883L369.341 -130.832L369.396 -52.9801C369.396 -52.9598 369.401 -52.9445 369.401 -52.9241C369.401 -52.9037 369.396 -52.8885 369.396 -52.8681C369.396 -50.1071 371.58 -47.8658 374.276 -47.8607L408.215 -47.8352L408.255 9.61508C408.255 12.376 410.439 14.6174 413.135 14.6225C415.825 14.6225 418.004 12.3862 418.004 9.62529L417.96 -53.0362C417.96 -55.7971 415.775 -58.0385 413.08 -58.0436C412.593 -58.0436 412.132 -57.9672 411.695 -57.8347L379.145 -57.8602L379.091 -135.824C379.091 -137.036 378.669 -138.142 377.974 -139.008C377.473 -139.634 376.817 -140.134 376.078 -140.444C375.502 -140.689 374.871 -140.826 374.216 -140.826L292.984 -140.887C290.293 -140.887 288.109 -138.656 288.114 -135.89L288.139 -100.288L252.343 -100.314C249.652 -100.314 247.468 -98.0826 247.473 -95.3165C247.473 -92.5556 249.657 -90.3141 252.353 -90.3091L293.004 -90.2836ZM176.467 -11.7543L176.799 -37.2193L167.06 -27.2248L167.065 -16.4102L156.526 -16.4153L146.786 -6.42088L171.771 -6.57881C174.466 -6.57372 176.472 -8.98829 176.467 -11.7543ZM232.278 -48.7012C234.968 -48.7012 237.148 -50.9375 237.148 -53.6984L237.138 -69.5102L252.546 -69.5001C255.237 -69.5001 257.416 -71.7363 257.416 -74.4973C257.416 -77.2582 255.232 -79.4995 252.536 -79.5046L237.128 -79.5149L237.46 -94.9752C237.46 -96.4117 236.795 -97.7769 236.269 -98.2558L228.058 -89.8303L228.068 -78.817L217.341 -78.8221L209.13 -70.3965C209.602 -69.8617 210.932 -69.1791 212.327 -69.174L227.567 -69.337L227.493 -53.6118C227.488 -50.856 229.587 -48.7012 232.278 -48.7012ZM313.843 242.732C316.533 242.732 318.713 240.496 318.713 237.735L318.703 221.923L334.111 221.933C336.802 221.933 338.981 219.697 338.981 216.936C338.981 214.175 336.797 211.934 334.101 211.929L318.693 211.919L318.683 196.107C318.683 193.346 316.499 191.105 313.803 191.099C311.113 191.099 308.933 193.336 308.933 196.097L308.943 211.908L293.535 211.898C290.844 211.898 288.665 214.135 288.665 216.895C288.665 219.656 290.849 221.898 293.545 221.903L308.953 221.913L308.963 237.725C308.963 240.486 311.147 242.727 313.843 242.732ZM394.281 -215.219C395.631 -215.219 396.842 -215.78 397.721 -216.681C398.585 -217.568 399.126 -218.785 399.146 -220.13L399.146 -220.303L399.116 -262.665C399.116 -262.726 399.468 -262.436 399.468 -262.497L399.816 -266.073L399.806 -266.063L390.066 -256.068L390.086 -224.516L359.344 -224.541L349.604 -214.547L353.134 -214.898L394.281 -215.219Z" fill="url(#paint0_linear)" fill-opacity="0.15"/>
</g>
<defs>
<linearGradient id="paint0_linear" x1="558.245" y1="-30.3132" x2="256.876" y2="219.895" gradientUnits="userSpaceOnUse">
<stop stop-color="#1F1F1F"/>
<stop offset="1" stop-color="#0A0A0A" stop-opacity="0"/>
</linearGradient>
</defs>
</svg>
