<svg width="191" height="49" viewBox="0 0 191 49" fill="none" xmlns="http://www.w3.org/2000/svg">
<path d="M65.0793 34.8103C61.3879 34.8103 58.8107 32.9467 58.3519 30.0719C58.2769 29.5981 58.6504 29.1701 59.1429 29.1701H61.8545C62.2203 29.1701 62.5331 29.4141 62.6287 29.7573C62.9131 30.77 63.9096 31.2751 65.2421 31.2751C66.4571 31.2751 67.5454 30.7387 67.5454 29.6843C67.5454 28.6063 66.1417 28.2801 64.4305 28.0008C61.8442 27.5819 58.5535 26.9073 58.5535 23.1906C58.5535 20.2061 61.1592 18.1456 65.0677 18.1456C68.591 18.1456 71.0221 19.8668 71.4797 22.5134C71.5611 22.9858 71.1811 23.4151 70.69 23.4151H68.0947C67.7341 23.4151 67.4226 23.1789 67.3243 22.8409C67.071 21.9731 66.2322 21.5438 64.9604 21.5438C63.5981 21.5438 62.7942 22.1519 62.7942 23.0549C62.7942 24.1068 64.1758 24.3508 65.8574 24.6483C68.4992 25.1103 71.87 25.6545 71.87 29.4964C71.8687 32.7158 69.1674 34.8116 65.0793 34.8103Z" fill="white"/>
<path d="M97.9923 24.4748V33.5863C97.9923 34.0169 97.6343 34.3653 97.1923 34.3653H94.4134C93.9714 34.3653 93.6134 34.0169 93.6134 33.5863V25.1782C93.6134 23.0733 92.7655 21.9627 91.1796 21.9627C89.2253 21.9627 88.0673 23.3643 88.0673 25.8333V33.585C88.0673 34.0156 87.7093 34.364 87.2672 34.364H84.5982C84.1562 34.364 83.7982 34.0156 83.7982 33.585V25.1769C83.7982 23.072 82.9749 21.9614 81.4071 21.9614C79.4283 21.9614 78.2457 23.363 78.2457 25.832V33.5837C78.2457 34.0143 77.8876 34.3627 77.4456 34.3627H74.6668C74.2247 34.3627 73.8667 34.0143 73.8667 33.5837V19.3736C73.8667 18.943 74.2247 18.5945 74.6668 18.5945H76.3883C76.7128 18.5945 77.0062 18.7864 77.1289 19.0787L77.2776 19.435C77.4844 19.9269 78.1306 20.0874 78.5403 19.7364C79.639 18.7955 81.0659 18.2213 82.5755 18.2213C84.2725 18.2213 85.7279 18.8595 86.7128 19.9713C87.0242 20.3223 87.5684 20.3432 87.9018 20.0118C89.016 18.9038 90.5773 18.2213 92.2873 18.2213C95.64 18.22 97.9923 20.7791 97.9923 24.4748Z" fill="white"/>
<path d="M124.916 24.4748V33.5863C124.916 34.0169 124.558 34.3653 124.116 34.3653H121.337C120.895 34.3653 120.537 34.0169 120.537 33.5863V25.1782C120.537 23.0733 119.69 21.9627 118.104 21.9627C116.149 21.9627 114.991 23.3643 114.991 25.8333V33.585C114.991 34.0156 114.633 34.364 114.191 34.364H111.522C111.08 34.364 110.722 34.0156 110.722 33.585V25.1769C110.722 23.072 109.899 21.9614 108.331 21.9614C106.352 21.9614 105.17 23.363 105.17 25.832V33.5837C105.17 34.0143 104.812 34.3627 104.37 34.3627H101.591C101.149 34.3627 100.791 34.0143 100.791 33.5837V19.3736C100.791 18.943 101.149 18.5945 101.591 18.5945H103.312C103.637 18.5945 103.93 18.7864 104.053 19.0787L104.203 19.435C104.41 19.9269 105.056 20.0874 105.466 19.7364C106.564 18.7955 107.991 18.2213 109.501 18.2213C111.198 18.2213 112.653 18.8595 113.638 19.9713C113.95 20.3223 114.494 20.3432 114.827 20.0118C115.941 18.9038 117.503 18.2213 119.213 18.2213C122.564 18.22 124.916 20.7791 124.916 24.4748Z" fill="white"/>
<path d="M133.619 34.8821C129.608 34.8821 127.027 33.0068 126.551 30.1006C126.474 29.6256 126.848 29.195 127.341 29.195H131.129C131.489 29.195 131.817 29.4181 131.916 29.7535C132.143 30.5208 132.853 30.8784 133.722 30.8784C134.537 30.8784 135.312 30.4726 135.312 29.6582C135.312 28.7487 134.086 28.489 132.53 28.2384C130.02 27.8417 126.692 27.1044 126.692 23.2794C126.692 20.1188 129.458 18.0778 133.606 18.0778C137.322 18.0778 139.859 19.8134 140.37 22.4951C140.461 22.9715 140.08 23.4099 139.582 23.4099H135.922C135.568 23.4099 135.268 23.1803 135.155 22.854C134.941 22.2302 134.337 21.9353 133.536 21.9353C132.641 21.9353 132.042 22.366 132.042 23.0981C132.042 23.9959 133.28 24.2047 134.818 24.4722C137.376 24.9146 140.776 25.4327 140.776 29.4325C140.776 32.725 137.92 34.8821 133.619 34.8821Z" fill="white"/>
<path d="M160.133 26.4793C160.133 31.3926 156.594 34.8991 151.644 34.8991C150.628 34.8991 149.672 34.719 148.801 34.3836C148.272 34.18 147.698 34.5493 147.698 35.1039V39.2825C147.698 39.7132 147.34 40.0616 146.898 40.0616H142.984C142.542 40.0616 142.184 39.7132 142.184 39.2825V19.3736C142.184 18.943 142.542 18.5945 142.984 18.5945H145.502C145.796 18.5945 146.064 18.7511 146.205 19.0017L146.23 19.0461C146.453 19.4467 146.985 19.5824 147.374 19.3266C148.586 18.528 150.043 18.0778 151.645 18.0778C156.594 18.0778 160.133 21.566 160.133 26.4793ZM154.522 26.4793C154.522 24.407 152.987 22.8697 150.898 22.8697C148.81 22.8697 147.274 24.407 147.274 26.4793C147.274 28.5516 148.81 30.0889 150.898 30.0889C152.974 30.0889 154.522 28.5516 154.522 26.4793Z" fill="white"/>
<path d="M160.549 26.4793C160.549 21.5908 164.348 18.0778 169.626 18.0778C174.888 18.0778 178.703 21.5908 178.703 26.4793C178.703 31.3508 174.888 34.8821 169.626 34.8821C164.348 34.8821 160.549 31.3521 160.549 26.4793ZM169.626 30.0028C171.659 30.0028 173.119 28.566 173.119 26.4806C173.119 24.4083 171.661 22.9584 169.626 22.9584C167.592 22.9584 166.134 24.3952 166.134 26.4806C166.135 28.5647 167.593 30.0028 169.626 30.0028Z" fill="white"/>
<path d="M191 30.3864V33.5863C191 34.0169 190.642 34.3653 190.2 34.3653H187.163C183.583 34.3653 181.406 32.233 181.406 28.7291V23.5574C181.406 23.1268 181.048 22.7783 180.606 22.7783H179.242C178.8 22.7783 178.442 22.4299 178.442 21.9993V21.8166C178.442 21.6182 178.52 21.4277 178.66 21.2828L185.459 14.2293C185.611 14.0727 185.821 13.984 186.042 13.984C186.484 13.984 186.842 14.3324 186.842 14.7631V17.8168C186.842 18.2474 187.2 18.5958 187.642 18.5958H190.111C190.553 18.5958 190.911 18.9443 190.911 19.3749V22.0006C190.911 22.4312 190.553 22.7796 190.111 22.7796H187.783C187.341 22.7796 186.983 23.1281 186.983 23.5587V27.7986C186.983 28.9274 187.682 29.61 188.86 29.61H190.2C190.642 29.6073 191 29.9558 191 30.3864Z" fill="white"/>
<path d="M41.3326 24.4799C41.3326 19.7845 39.5309 15.3815 36.2583 12.0838C29.4766 5.24957 18.4439 5.24957 11.6622 12.0838C8.39091 15.3815 6.58789 19.7832 6.58789 24.4799C6.58789 29.1766 8.38962 33.5783 11.6622 36.876L14.5949 39.8318C14.7383 39.9766 14.971 39.9766 15.1144 39.8318L19.8398 35.0712C19.9833 34.9263 20.2159 34.9263 20.3594 35.0712L23.7005 38.4381C23.8439 38.5829 24.0766 38.5829 24.22 38.4381L27.5611 35.0699C27.7046 34.925 27.9372 34.925 28.0807 35.0699L32.8073 39.8305C32.9508 39.9753 33.1834 39.9753 33.3269 39.8305L36.2596 36.8747C39.5309 33.5783 41.3326 29.1766 41.3326 24.4799ZM34.432 33.4073L33.3269 34.5205C33.1834 34.6653 32.9508 34.6653 32.8073 34.5205L30.5894 32.285C30.4679 32.1624 30.4447 31.9705 30.5377 31.8257C32.5333 28.7289 32.1339 24.5752 29.5063 21.9273C26.4483 18.845 21.4722 18.845 18.4142 21.9273C15.7878 24.5752 15.3885 28.7289 17.3828 31.8257C17.4758 31.9705 17.4526 32.1624 17.3311 32.285L15.1157 34.5192C14.9723 34.664 14.7396 34.664 14.5962 34.5192L13.4911 33.406C10.5093 30.4006 9.30858 25.9937 10.3581 21.9078C12.1017 15.1166 17.4409 10.7279 23.9615 10.7279C30.4821 10.7279 35.8214 15.1166 37.565 21.9078C38.6145 25.995 37.4138 30.4019 34.432 33.4073ZM24.1192 33.2312C24.0326 33.3186 23.8917 33.3186 23.8051 33.2312L21.0496 30.4554C20.8389 30.244 20.6502 30.0052 20.4886 29.7481C19.4663 28.1169 19.7028 25.9467 21.0496 24.5869C21.8522 23.7778 22.9069 23.3733 23.9615 23.3733C25.0162 23.3733 26.0709 23.7778 26.8735 24.5869C28.2229 25.9467 28.4594 28.1169 27.4345 29.7481C27.2768 30.0013 27.0881 30.2388 26.8735 30.4541L24.1192 33.2312Z" fill="#C31331"/>
<path d="M29.465 44.103C27.6646 44.625 25.7931 44.8886 23.9008 44.8886C22.019 44.8886 20.1539 44.6263 18.3587 44.1095C18.2165 44.0691 18.0627 44.1174 17.9709 44.2348L15.8797 46.8787C15.722 47.0784 15.8073 47.3772 16.0464 47.4607C18.5667 48.3455 21.2086 48.7931 23.9008 48.7931C26.5957 48.7931 29.2466 48.3416 31.7773 47.4529C32.0164 47.3694 32.1017 47.0706 31.944 46.8709L29.8528 44.227C29.761 44.1108 29.6072 44.0612 29.465 44.103Z" fill="#C31331"/>
<path d="M23.9007 0.612976C10.7225 0.612976 0 11.4196 0 24.7031C0 32.7509 3.96536 40.2364 10.6062 44.7255C10.7496 44.8221 10.9396 44.8051 11.0637 44.6851L13.3928 42.4418C13.566 42.2748 13.5375 41.9864 13.3333 41.8585C12.0382 41.0442 10.8285 40.0732 9.73632 38.9757C5.9545 35.1652 3.8723 30.0953 3.8723 24.7031C3.8723 19.3096 5.95579 14.241 9.73891 10.4304C13.5194 6.61723 18.5485 4.5175 23.9007 4.5175C29.2529 4.5175 34.282 6.61723 38.0625 10.4304C41.8456 14.241 43.9291 19.3096 43.9291 24.7031C43.9291 30.0966 41.8456 35.1652 38.0625 38.9757C36.9833 40.0641 35.7787 41.0298 34.4849 41.8467C34.282 41.9746 34.2523 42.263 34.4255 42.4301L36.7545 44.6733C36.8786 44.7934 37.0699 44.8104 37.2134 44.7125C43.8438 40.2233 47.8014 32.7431 47.8014 24.7031C47.8014 11.4196 37.0802 0.612976 23.9007 0.612976Z" fill="#C31331"/>
</svg>
