<svg width="49" height="50" viewBox="0 0 49 50" fill="none" xmlns="http://www.w3.org/2000/svg">
<path d="M42.2653 24.5003C42.2653 19.7558 40.4447 15.3067 37.1378 11.9744C30.2851 5.06866 19.1369 5.06866 12.2842 11.9744C8.97864 15.3067 7.15674 19.7545 7.15674 24.5003C7.15674 29.2462 8.97734 33.694 12.2842 37.0262L15.2476 40.013C15.3925 40.1594 15.6276 40.1594 15.7726 40.013L20.5474 35.2025C20.6924 35.0562 20.9274 35.0562 21.0724 35.2025L24.4485 38.6047C24.5935 38.751 24.8285 38.751 24.9735 38.6047L28.3496 35.2012C28.4945 35.0549 28.7296 35.0549 28.8746 35.2012L33.6507 40.0117C33.7957 40.158 34.0308 40.158 34.1757 40.0117L37.1391 37.0249C40.4447 33.694 42.2653 29.2462 42.2653 24.5003ZM35.2924 33.5213L34.1757 34.6461C34.0308 34.7924 33.7957 34.7924 33.6507 34.6461L31.4096 32.3872C31.2868 32.2633 31.2633 32.0694 31.3574 31.923C33.3738 28.7939 32.9703 24.5966 30.3151 21.9211C27.2251 18.8064 22.1969 18.8064 19.1069 21.9211C16.453 24.5966 16.0495 28.7939 18.0646 31.923C18.1587 32.0694 18.1352 32.2633 18.0124 32.3872L15.7739 34.6448C15.6289 34.7911 15.3938 34.7911 15.2489 34.6448L14.1322 33.5199C11.1192 30.4831 9.90592 26.03 10.9664 21.9013C12.7282 15.039 18.1234 10.6044 24.7123 10.6044C31.3012 10.6044 36.6964 15.039 38.4582 21.9013C39.5187 26.0313 38.3054 30.4844 35.2924 33.5213ZM24.8716 33.3432C24.7841 33.4316 24.6418 33.4316 24.5543 33.3432L21.7698 30.5385C21.557 30.3248 21.3663 30.0835 21.203 29.8237C20.17 28.1754 20.409 25.9825 21.7698 24.6085C22.5809 23.7909 23.6466 23.3821 24.7123 23.3821C25.778 23.3821 26.8437 23.7909 27.6548 24.6085C29.0183 25.9825 29.2573 28.1754 28.2216 29.8237C28.0623 30.0796 27.8716 30.3196 27.6548 30.5371L24.8716 33.3432Z" fill="#C31331"/>
<path d="M30.2734 44.3289C28.4541 44.8564 26.563 45.1228 24.651 45.1228C22.7494 45.1228 20.8648 44.8577 19.0507 44.3355C18.9071 44.2946 18.7517 44.3434 18.6589 44.4621L16.5458 47.1337C16.3864 47.3355 16.4726 47.6374 16.7143 47.7218C19.261 48.6159 21.9305 49.0682 24.651 49.0682C27.374 49.0682 30.0527 48.6119 32.6099 47.7139C32.8515 47.6295 32.9377 47.3276 32.7783 47.1258L30.6652 44.4542C30.5725 44.3368 30.417 44.2867 30.2734 44.3289Z" fill="#C31331"/>
<path d="M24.651 0.383484C11.3348 0.383484 0.5 11.3033 0.5 24.7258C0.5 32.858 4.50688 40.4218 11.2172 44.958C11.3622 45.0555 11.5542 45.0384 11.6796 44.9171L14.033 42.6503C14.208 42.4815 14.1793 42.1901 13.9729 42.0609C12.6643 41.238 11.4419 40.2569 10.3383 39.148C6.51685 35.2975 4.41285 30.1745 4.41285 24.7258C4.41285 19.2758 6.51815 14.1542 10.3409 10.3037C14.161 6.45061 19.2427 4.3289 24.651 4.3289C30.0592 4.3289 35.141 6.45061 38.9611 10.3037C42.7838 14.1542 44.8891 19.2758 44.8891 24.7258C44.8891 30.1758 42.7838 35.2975 38.9611 39.148C37.8705 40.2477 36.6533 41.2235 35.346 42.049C35.141 42.1782 35.1109 42.4697 35.2859 42.6384L37.6394 44.9052C37.7648 45.0265 37.9581 45.0437 38.103 44.9448C44.8029 40.4086 48.802 32.8501 48.802 24.7258C48.802 11.3033 37.9685 0.383484 24.651 0.383484Z" fill="#C31331"/>
</svg>
