<svg xmlns="http://www.w3.org/2000/svg" version="1.1" xmlns:xlink="http://www.w3.org/1999/xlink" xmlns:svgjs="http://svgjs.com/svgjs" width="750" height="100" preserveAspectRatio="none" viewBox="0 0 750 100"><g mask="url(&quot;#SvgjsMask1075&quot;)" fill="none"><path d="M367 39L366 1" stroke-width="6" stroke="url(#SvgjsLinearGradient1076)" stroke-linecap="round" class="Down"></path><path d="M137 72L136 139" stroke-width="10" stroke="url(#SvgjsLinearGradient1076)" stroke-linecap="round" class="Down"></path><path d="M406 15L405 60" stroke-width="10" stroke="url(#SvgjsLinearGradient1076)" stroke-linecap="round" class="Down"></path><path d="M665 85L664 129" stroke-width="6" stroke="url(#SvgjsLinearGradient1077)" stroke-linecap="round" class="Up"></path><path d="M462 42L461 10" stroke-width="10" stroke="url(#SvgjsLinearGradient1076)" stroke-linecap="round" class="Down"></path><path d="M704 2L703 -66" stroke-width="8" stroke="url(#SvgjsLinearGradient1076)" stroke-linecap="round" class="Down"></path><path d="M36 5L35 -61" stroke-width="8" stroke="url(#SvgjsLinearGradient1077)" stroke-linecap="round" class="Up"></path><path d="M124 94L123 138" stroke-width="8" stroke="url(#SvgjsLinearGradient1076)" stroke-linecap="round" class="Down"></path><path d="M194 87L193 140" stroke-width="10" stroke="url(#SvgjsLinearGradient1076)" stroke-linecap="round" class="Down"></path><path d="M409 63L408 37" stroke-width="10" stroke="url(#SvgjsLinearGradient1077)" stroke-linecap="round" class="Up"></path><path d="M66 47L65 -13" stroke-width="10" stroke="url(#SvgjsLinearGradient1076)" stroke-linecap="round" class="Down"></path><path d="M211 92L210 150" stroke-width="8" stroke="url(#SvgjsLinearGradient1076)" stroke-linecap="round" class="Down"></path><path d="M498 18L497 -10" stroke-width="6" stroke="url(#SvgjsLinearGradient1077)" stroke-linecap="round" class="Up"></path><path d="M265 32L264 -24" stroke-width="8" stroke="url(#SvgjsLinearGradient1077)" stroke-linecap="round" class="Up"></path><path d="M565 49L564 115" stroke-width="10" stroke="url(#SvgjsLinearGradient1076)" stroke-linecap="round" class="Down"></path><path d="M334 98L333 163" stroke-width="8" stroke="url(#SvgjsLinearGradient1076)" stroke-linecap="round" class="Down"></path><path d="M297 76L296 9" stroke-width="6" stroke="url(#SvgjsLinearGradient1076)" stroke-linecap="round" class="Down"></path><path d="M86 82L85 53" stroke-width="10" stroke="url(#SvgjsLinearGradient1076)" stroke-linecap="round" class="Down"></path><path d="M515 87L514 25" stroke-width="6" stroke="url(#SvgjsLinearGradient1077)" stroke-linecap="round" class="Up"></path></g><defs><mask id="SvgjsMask1075"><rect width="750" height="100" fill="#ffffff"></rect></mask><linearGradient x1="0%" y1="0%" x2="0%" y2="100%" id="SvgjsLinearGradient1076"><stop stop-color="rgba(0, 0, 0, 0)" offset="0"></stop><stop stop-color="rgba(0, 0, 0, 0.13)" offset="1"></stop></linearGradient><linearGradient x1="0%" y1="100%" x2="0%" y2="0%" id="SvgjsLinearGradient1077"><stop stop-color="rgba(0, 0, 0, 0)" offset="0"></stop><stop stop-color="rgba(0, 0, 0, 0.13)" offset="1"></stop></linearGradient></defs></svg>