<svg width="910" height="616" viewBox="0 0 910 616" fill="none" xmlns="http://www.w3.org/2000/svg">
<rect x="0.615234" y="0.452148" width="909.339" height="615.278" rx="74.2154" fill="#C31331"/>
<mask id="mask0" mask-type="alpha" maskUnits="userSpaceOnUse" x="0" y="0" width="910" height="616">
<rect x="0.615234" y="0.452148" width="909.339" height="615.278" rx="74.2154" fill="#C31331" fill-opacity="0.5"/>
</mask>
<g mask="url(#mask0)">
<path d="M1643.27 236.211L1644.38 192.175L1665.87 213.636L1643.27 236.211ZM252.158 1626.08L251.312 1308.73C251.312 1297.56 241.923 1288.18 230.739 1288.18C219.555 1288.18 210.248 1297.15 210.269 1308.34L210.269 1625.01L231.75 1646.47L252.158 1626.08ZM228.861 -860.351C240.045 -860.351 250.28 -870.577 250.28 -881.751L251.208 -1199.76L233.813 -1217.14L211.218 -1194.56L210.021 -879.174C210.021 -868 217.656 -860.372 228.861 -860.351ZM1577.8 195.742C1568.08 194.278 1558.56 204.978 1558.56 216.152L1559.66 319.749L1600.14 279.3L1599.07 216.172C1599.07 204.998 1589.66 195.226 1577.88 195.824L1577.8 195.742ZM1241.41 614.212C1231.69 612.748 1221.56 624.066 1221.56 635.241L1221.95 657.114L1256.91 622.19C1252.9 617.985 1248.63 613.181 1241.59 614.397L1241.41 614.212ZM967.647 457.095L967.833 719.768C967.833 730.942 976.912 740.013 988.117 740.033C999.301 740.033 1008.36 730.983 1008.36 719.809L1008.17 457.136C1008.17 445.962 999.095 436.891 987.89 436.87C976.706 436.829 967.627 445.9 967.647 457.095ZM1324.98 -17.7613L1388.06 -17.6994L1388.12 46.3143C1388.12 57.4884 1397.2 66.5595 1408.41 66.5801C1408.57 66.5801 1408.76 66.5595 1408.9 66.5389C1409.07 66.5389 1410.41 65.405 1410.57 65.405L1516.39 64.2917L1475.84 23.7807L1430.98 23.7394L1430.94 -21.0805L1396.87 -55.1181L1391.42 -60.5608L1347.55 -60.602L1347.53 -104.412L1306.99 -144.923L1305.89 -39.1816C1305.89 -28.0076 1313.8 -17.7613 1324.98 -17.7613ZM500.786 -623.593C500.786 -634.767 491.706 -643.838 480.502 -643.859L311.173 -643.983C299.989 -643.983 290.93 -634.932 290.93 -623.758L290.992 -560.734L226.921 -560.796C215.737 -560.796 206.678 -551.745 206.678 -540.571C206.678 -540.406 206.72 -540.241 206.72 -540.076C206.72 -539.911 206.678 -539.746 206.678 -539.581L206.802 -370.404C206.802 -359.23 215.882 -350.158 227.086 -350.138C238.27 -350.138 247.329 -359.188 247.329 -370.363L247.205 -520.285L311.276 -520.223C313.009 -520.223 314.722 -520.449 316.332 -520.862C317.941 -521.274 319.489 -521.872 320.933 -522.655C322.089 -523.274 323.162 -524.016 324.152 -524.841C324.648 -525.253 325.122 -525.686 325.597 -526.16C326.051 -526.614 326.484 -527.088 326.917 -527.603C329.806 -531.108 331.539 -535.602 331.539 -540.468L331.477 -603.492L480.522 -603.389C491.727 -603.327 500.806 -612.398 500.786 -623.593ZM1137.78 551.538L1138.52 740.508L1179.01 700.058L1178.31 551.579C1178.31 540.405 1169.23 531.334 1158.02 531.314C1146.84 531.314 1137.78 540.364 1137.78 551.538ZM819.634 951.33C808.45 951.33 799.391 960.381 799.391 971.555C799.391 982.729 809.069 992.398 820.274 992.419L885.748 993.058L920.311 958.525C916.184 954.402 910.964 951.99 905.392 951.99L819.634 951.33ZM587.06 1140.69L586.998 1055.61C586.998 1044.43 577.918 1035.36 566.714 1035.34C555.53 1035.34 546.471 1044.39 546.471 1055.57L546.533 1140.65C546.533 1151.82 555.612 1160.9 566.817 1160.92C578.001 1160.96 587.08 1151.89 587.06 1140.69ZM167.266 1393.37L166.915 887.543C166.915 876.369 157.836 867.298 146.631 867.277C135.447 867.277 126.389 876.328 126.389 887.502L126.74 1393.32C126.74 1404.5 135.819 1413.57 147.023 1413.59C158.208 1413.59 167.287 1404.52 167.266 1393.37ZM587.761 971.39C587.761 960.216 578.682 951.145 567.477 951.124L482.318 951.062C482.235 951.062 482.173 951.083 482.111 951.062C482.029 951.062 481.967 951.042 481.905 951.062C470.721 951.062 461.662 960.113 461.662 971.287L461.848 1221.55C461.848 1232.72 470.927 1241.79 482.132 1241.81C493.316 1241.81 502.375 1232.76 502.375 1221.59L502.21 991.594L567.498 991.635C578.682 991.635 587.761 982.564 587.761 971.39ZM566.611 908.077L567.436 908.077C578.62 908.077 587.679 899.027 587.679 887.852C587.679 885.873 587.39 883.977 586.874 882.183L586.75 717.83C586.75 706.656 577.671 697.584 566.466 697.564C555.282 697.564 546.224 706.614 546.224 717.788L546.327 867.566L397.942 867.463C386.758 867.463 377.699 876.513 377.699 887.687C377.699 889.089 377.844 890.43 378.112 891.77L378.298 1137.95C378.298 1149.12 387.377 1158.19 398.582 1158.22C409.787 1158.24 418.825 1149.16 418.825 1137.99L418.659 907.995L566.611 908.077ZM903.225 -57.3653C892.041 -57.3653 882.983 -48.3147 882.983 -37.1406L883.045 47.943C883.045 48.1904 883.065 48.4584 883.086 48.7264C883.065 48.9944 883.045 49.2624 883.045 49.5098C883.045 60.6839 892.124 69.755 903.329 69.7757L1136.98 69.9612L1137.02 134.779C1137.02 145.953 1146.1 155.024 1157.3 155.045C1168.49 155.045 1177.54 145.994 1177.54 134.82L1177.46 49.716C1177.46 38.5419 1168.38 29.4708 1157.18 29.4502L923.551 29.2852L923.489 -37.1201C923.489 -48.2941 914.41 -57.3653 903.225 -57.3653ZM733.546 783.348C722.362 783.348 713.303 792.399 713.303 803.573C713.303 814.747 722.382 823.818 733.587 823.839L818.747 823.901C829.931 823.901 838.99 814.85 838.99 803.676C838.99 803.511 838.969 803.367 838.969 803.243C838.969 803.078 838.989 802.934 838.989 802.81L838.618 321.377L903.494 321.419C903.618 321.419 903.721 321.398 903.845 321.398C903.968 321.398 904.072 321.419 904.195 321.419C915.379 321.419 924.438 312.368 924.438 301.194L924.376 216.11C924.376 204.936 915.297 195.865 904.092 195.845C892.908 195.845 883.849 204.895 883.849 216.069L883.891 280.887L818.293 280.825C816.188 280.825 814.166 281.155 812.267 281.732C811.236 282.062 810.225 282.454 809.296 282.928C802.631 286.247 798.029 293.112 798.05 301.05L798.422 783.39L733.546 783.348ZM651.172 655.857C662.356 655.857 671.415 646.806 671.415 635.632L671.002 69.5901L732.906 69.6313C744.09 69.6313 753.149 60.5807 753.149 49.4067C753.149 38.2326 744.07 29.1614 732.865 29.1408L650.718 29.079C639.534 29.079 630.475 38.1296 630.475 49.3037L630.909 635.612C630.909 646.786 639.988 655.857 651.172 655.857ZM732.927 110.678C721.743 110.678 712.684 119.729 712.684 130.903L712.746 215.987C712.746 227.161 721.825 236.232 733.03 236.253L818.19 236.314C829.374 236.314 838.432 227.264 838.432 216.09C838.432 204.916 829.353 195.845 818.148 195.824L753.273 195.783L753.231 130.965C753.19 119.75 744.111 110.678 732.927 110.678ZM669.784 -202.319C669.784 -213.493 660.705 -222.564 649.5 -222.585L564.341 -222.646C553.157 -222.646 544.098 -213.596 544.098 -202.422C544.098 -191.248 553.177 -182.177 564.382 -182.156L649.542 -182.094C660.746 -182.074 669.805 -191.124 669.784 -202.319ZM482.111 -479.918C470.927 -479.918 461.869 -470.867 461.869 -459.693L461.93 -374.61C461.93 -374.568 461.951 -374.506 461.93 -374.445C461.93 -374.403 461.91 -374.341 461.93 -374.28C461.93 -363.106 471.01 -354.034 482.214 -354.014L567.374 -353.952C578.558 -353.952 587.617 -363.003 587.617 -374.177C587.617 -385.351 578.537 -394.422 567.333 -394.442L502.457 -394.484L502.416 -459.631C502.375 -470.847 493.295 -479.918 482.111 -479.918ZM501.137 -540.324C501.137 -551.498 492.057 -560.569 480.852 -560.589L395.693 -560.651C384.509 -560.651 375.45 -551.601 375.45 -540.427L375.512 -475.094L310.636 -475.135C299.452 -475.135 290.394 -466.084 290.394 -454.91C290.394 -443.736 299.473 -434.665 310.678 -434.644L395.837 -434.582C407.021 -434.582 416.08 -443.633 416.08 -454.807C416.08 -454.89 416.08 -454.972 416.059 -455.075C416.059 -455.157 416.059 -455.24 416.059 -455.322L416.018 -520.14L480.894 -520.099C492.099 -520.078 501.157 -529.129 501.137 -540.324ZM139.554 -646.065C134.395 -646.065 129.731 -644.127 126.162 -640.973C121.189 -637.282 117.97 -631.386 117.97 -624.748L118.217 -288.907C118.217 -277.733 127.297 -268.662 138.501 -268.641C149.685 -268.641 158.744 -277.692 158.744 -288.866L158.517 -605.554L224.755 -605.512C235.939 -605.512 244.997 -614.563 244.997 -625.737L244.935 -710.821C244.915 -716.408 242.665 -721.459 238.992 -725.128C236.702 -727.417 233.875 -729.169 230.697 -730.159C228.778 -730.757 226.777 -731.066 224.672 -731.066L79.135 -731.169L79.0524 -797.389C79.0524 -808.563 69.9731 -817.634 58.7684 -817.655C47.5844 -817.655 38.5258 -808.604 38.5258 -797.43L38.5877 -712.346C38.5877 -706.12 41.4147 -700.574 45.8305 -696.864C49.5241 -693.091 54.6416 -690.74 60.3368 -690.74L204.388 -690.637L204.429 -646.065L139.554 -646.065ZM310.74 69.3221C321.924 69.3221 330.982 60.2715 330.982 49.0975L330.693 -354.735L395.899 -354.694C407.083 -354.694 416.142 -363.745 416.142 -374.919C416.142 -386.093 407.063 -395.164 395.858 -395.185L310.698 -395.246C301.268 -395.267 293.365 -388.814 291.116 -380.093C290.476 -378.135 290.125 -376.053 290.146 -373.888L290.456 49.0562C290.476 60.2509 299.556 69.3221 310.74 69.3221ZM650.429 -269.198C656.475 -271.074 661.283 -275.713 663.429 -281.65C664.213 -283.795 664.646 -286.124 664.667 -288.536L664.605 -373.62C664.605 -384.794 655.526 -393.865 644.321 -393.886C633.137 -393.886 624.078 -384.835 624.078 -373.661L624.12 -308.844L397.715 -309.008C386.531 -309.008 377.472 -299.958 377.472 -288.784L377.534 -203.7C377.534 -192.526 386.614 -183.455 397.818 -183.434C409.002 -183.434 418.061 -192.485 418.061 -203.659L418.02 -268.477L644.424 -268.312C646.508 -268.291 648.531 -268.621 650.429 -269.198ZM646.901 -733.251C635.716 -733.251 626.658 -724.201 626.658 -713.027L626.782 -544.921C626.782 -542.612 627.194 -540.385 627.896 -538.324C630.393 -529.974 638.131 -523.851 647.334 -523.851L712.209 -523.81L712.56 -37.5736C712.56 -26.3996 721.64 -17.3284 732.844 -17.3078C744.028 -17.3078 753.087 -26.3584 753.087 -37.5324L752.716 -543.993C752.716 -555.167 743.636 -564.239 732.432 -564.259L667.267 -564.3L667.143 -712.985C667.164 -724.18 658.085 -733.251 646.901 -733.251ZM736.393 739.477C747.577 739.477 756.636 730.426 756.636 719.252C756.636 708.078 747.557 699.007 736.352 698.986L651.193 698.924C640.008 698.924 630.95 707.975 630.95 719.149C630.95 719.19 630.97 719.211 630.97 719.252C630.97 719.293 630.95 719.314 630.95 719.355L631.28 1140.75C631.28 1151.93 640.359 1161 651.564 1161.02C662.748 1161.02 671.807 1151.97 671.807 1140.79L671.497 739.456L736.393 739.477ZM754.511 635.694L754.263 301.05C754.263 289.876 745.184 280.804 733.979 280.784C722.795 280.784 713.736 289.834 713.736 301.008L713.984 635.653C713.984 646.827 723.063 655.898 734.268 655.919C745.473 655.939 754.531 646.889 754.511 635.694ZM819.469 -480.516C808.285 -480.516 799.226 -471.465 799.226 -460.291L799.66 126.306C799.66 127.914 799.866 129.439 800.196 130.924L800.196 130.965C800.196 142.139 809.275 151.21 820.48 151.231L967.42 151.334L967.523 301.235C967.523 312.409 976.603 321.481 987.807 321.501C987.807 321.501 987.807 321.501 987.849 321.501C987.849 321.501 987.849 321.501 987.89 321.501L1073.05 321.563C1084.23 321.563 1093.29 312.512 1093.29 301.338C1093.29 290.164 1084.21 281.093 1073.01 281.073L1008.07 281.011L1007.97 131.109C1007.97 119.935 998.888 110.864 987.684 110.843L840.186 110.72L839.732 -460.27C839.732 -471.444 830.653 -480.516 819.469 -480.516ZM1071.15 236.5C1071.32 236.5 1071.5 236.479 1071.67 236.479C1071.83 236.479 1072.02 236.5 1072.18 236.5L1137.08 236.562L1137.12 301.38C1137.12 312.554 1146.2 321.625 1157.4 321.645C1168.59 321.645 1177.65 312.595 1177.65 301.421L1177.59 216.337C1177.59 205.163 1168.51 196.092 1157.3 196.071L1091.39 196.03L1091.35 131.212C1091.35 120.038 1082.27 110.967 1071.07 110.947C1059.88 110.947 1050.83 119.997 1050.83 131.171L1050.89 216.255C1050.89 227.388 1059.97 236.459 1071.15 236.5ZM1002.52 -391.103C998.847 -394.772 993.771 -397.04 988.179 -397.061L903.019 -397.123C891.835 -397.123 882.776 -388.072 882.776 -376.898C882.776 -365.724 891.856 -356.653 903.06 -356.632L967.957 -356.57L967.998 -311.297L903.102 -311.359C901.699 -311.359 900.316 -311.214 899.016 -310.946C889.772 -309.091 882.797 -300.927 882.797 -291.113L882.921 -124.162C882.859 -123.523 882.818 -122.863 882.818 -122.204C882.818 -111.03 891.897 -101.958 903.102 -101.938L968.184 -101.897L968.225 -37.3674C968.225 -26.1933 977.304 -17.1222 988.509 -17.1016C999.693 -17.1016 1008.75 -26.1521 1008.75 -37.3262L1008.69 -122.41C1008.69 -133.584 999.61 -142.655 988.406 -142.676C987.25 -142.676 986.095 -142.552 985.001 -142.366L923.447 -142.428L923.365 -270.868L988.261 -270.806C999.445 -270.806 1008.5 -279.857 1008.5 -291.031C1008.5 -291.113 1008.5 -291.155 1008.5 -291.237C1008.5 -291.402 1008.52 -291.546 1008.52 -291.711L1008.46 -376.795C1008.46 -382.361 1006.19 -387.433 1002.52 -391.103ZM1084.71 -222.317C1084.21 -222.729 1083.7 -223.121 1083.14 -223.471C1081.82 -224.378 1080.35 -225.1 1078.85 -225.656C1076.66 -226.481 1074.31 -226.935 1071.83 -226.935L986.672 -226.997C975.488 -226.997 966.43 -217.946 966.43 -206.772C966.43 -195.598 975.509 -186.527 986.714 -186.506L1051.61 -186.485L1051.71 -37.4086C1051.71 -34.6048 1052.29 -31.9247 1053.32 -29.492C1056.4 -22.2144 1063.6 -17.1222 1072 -17.1016L1157.16 -17.0397C1168.34 -17.0397 1177.4 -26.0903 1177.4 -37.2643C1177.4 -48.4384 1168.32 -57.5096 1157.12 -57.5302L1092.22 -57.592L1092.12 -206.71C1092.1 -212.998 1089.21 -218.606 1084.71 -222.317ZM735.238 867.71C734.743 867.71 734.268 867.731 733.793 867.752C733.649 867.772 733.505 867.793 733.34 867.793C732.432 867.875 731.503 868.02 730.636 868.226C730.141 868.35 729.666 868.453 729.171 868.617C720.917 871.174 714.954 878.864 714.954 887.935L715.078 1056.54C715.078 1067.71 724.157 1076.78 735.362 1076.8C746.546 1076.8 755.604 1067.75 755.604 1056.58L755.501 908.201L904.711 908.304C915.895 908.304 924.954 899.253 924.954 888.079C924.954 876.905 915.875 867.834 904.67 867.813L735.238 867.71ZM564.568 1204.02C562.917 1204.23 561.328 1204.58 559.822 1205.14C558.295 1205.72 556.85 1206.42 555.53 1207.32C554.993 1207.69 554.477 1208.09 553.962 1208.48C551.981 1210.13 551.465 1213.32 550.227 1215.63C548.679 1218.5 548.122 1223.18 548.452 1226.97L549.525 1225.9L547.358 1223.73L547.874 1330.63L588.36 1290.18L588.319 1245.61L632.972 1245.61L673.457 1205.16L567.457 1204.48C566.673 1204.48 565.311 1203.94 564.568 1204.02ZM229.563 1203.63C218.379 1203.63 209.32 1212.68 209.32 1223.86C209.32 1235.03 218.399 1244.1 229.604 1244.12L399.056 1244.25C410.241 1244.25 419.299 1235.2 419.299 1224.02C419.299 1212.85 410.22 1203.78 399.015 1203.76L229.563 1203.63ZM377.266 1393.3C377.266 1404.48 386.944 1414.15 398.149 1414.17L463.623 1414.81L504.108 1374.36L398.107 1373.68C386.923 1373.68 377.246 1382.11 377.266 1393.3ZM313.938 1287.93C310.43 1287.93 307.149 1288.82 304.281 1290.37C302.568 1291.29 300.979 1292.47 299.597 1293.85C298.689 1294.76 297.843 1295.77 297.121 1296.86C296.378 1297.93 295.759 1299.09 295.243 1300.3C294.211 1302.74 293.654 1305.4 293.675 1308.18L294.5 1562.34C294.521 1567.92 296.914 1573.12 301.041 1577.24L335.605 1542.71L334.841 1329.02L483.741 1328.82C494.926 1328.82 503.84 1319.62 503.84 1308.45C503.84 1297.27 494.678 1288.12 483.494 1288.12L313.938 1287.93ZM800.856 1057.22L801.475 1077.25L835.605 1043.16C831.375 1039.14 826.794 1037.32 821.409 1037.3C810.225 1037.3 800.856 1046.04 800.856 1057.22ZM716.605 1141.39C716.605 1146.79 718.73 1151.68 722.754 1155.91L756.905 1121.79L737.157 1121.48C725.973 1121.48 716.605 1130.22 716.605 1141.39ZM481.368 -14.8132C492.552 -14.8132 501.611 -23.8638 501.611 -35.0378L501.57 -99.031L565.62 -98.9897C576.804 -98.9897 585.863 -108.04 585.863 -119.214C585.863 -130.388 576.783 -139.46 565.579 -139.48L501.529 -139.521L501.487 -203.515C501.487 -214.689 492.408 -223.76 481.203 -223.78C470.019 -223.78 460.961 -214.73 460.961 -203.556L461.002 -139.563L396.952 -139.604C385.768 -139.604 376.709 -130.553 376.709 -119.379C376.709 -108.205 385.788 -99.134 396.993 -99.1134L461.043 -99.0722L461.084 -35.0791C461.105 -23.8844 470.184 -14.8132 481.368 -14.8132ZM991.109 784.709L990.015 785.802L990.118 785.699C978.336 785.101 969.793 793.636 970.392 805.408L972.538 803.264L970.66 801.388L969.195 909.685L1009.68 869.236L1009.64 825.241L1053.67 825.282L1094.16 784.833L989.231 782.833L991.109 784.709ZM1410.22 277.774C1399.04 277.774 1389.98 286.824 1389.98 297.999L1390.72 467.918C1390.74 473.299 1392.87 478.185 1396.89 482.412L1431.85 447.488L1431.1 298.638C1431.08 287.443 1421.41 277.774 1410.22 277.774ZM1495.94 111.524C1495.24 111.441 1494.49 111.4 1493.75 111.4C1482.57 111.4 1473.51 120.451 1473.51 131.625L1473.57 214.605C1473.57 225.78 1482.65 234.851 1493.85 234.871C1505.04 234.871 1514.1 225.821 1514.1 214.647L1514.08 151.911L1579.94 150.798C1585.64 150.798 1591.58 147.664 1595.65 143.479L1561.25 109.112L1499.28 110.246C1498.54 110.246 1496.66 111.462 1495.94 111.524ZM313.36 -1115.11L334.779 -1116.26L300.174 -1150.84C296.048 -1146.71 293.675 -1141.54 293.675 -1135.93C293.654 -1124.78 302.156 -1115.13 313.36 -1115.11ZM397.55 -776.793C408.734 -776.793 418.969 -787.019 418.969 -798.193L419.98 -1031.14L379.433 -1071.65L378.463 -798.213C378.463 -787.039 386.386 -776.814 397.55 -776.793ZM1325.02 27.0586C1313.84 27.0586 1304.78 36.1092 1304.78 47.2833L1304.84 130.264C1304.84 137.274 1308.41 143.438 1313.84 147.087C1317.1 149.313 1321.04 150.612 1325.25 150.612L1408.32 150.695C1419.51 150.695 1428.57 141.644 1428.57 130.47C1428.57 119.296 1419.49 110.225 1408.28 110.204L1345.35 110.163L1345.3 47.3245C1345.28 36.1298 1336.2 27.0586 1325.02 27.0586ZM1220.24 -36.8932L1220.53 362.693L903.514 362.466C892.33 362.466 883.272 371.516 883.272 382.69C883.272 382.732 883.292 382.794 883.292 382.835C883.292 382.876 883.292 382.917 883.272 382.979L883.581 802.831C883.581 814.005 892.66 823.076 903.865 823.097C915.049 823.097 924.108 814.046 924.108 802.872L923.819 402.998L1240.83 403.224L1240.95 403.224C1252.14 403.224 1261.2 394.174 1261.2 383C1261.2 382.258 1261.14 381.495 1261.05 380.752L1260.74 -36.8726C1260.74 -48.0467 1251.66 -57.1178 1240.46 -57.1384C1229.28 -57.1384 1220.22 -48.0879 1220.24 -36.8932ZM1072.2 436.911C1061.02 436.911 1051.96 445.962 1051.96 457.136L1052.15 719.809C1052.15 730.983 1061.23 740.054 1072.43 740.075C1083.61 740.075 1092.67 731.024 1092.67 719.85L1092.51 477.402L1326.67 477.567C1337.86 477.567 1346.91 468.516 1346.91 457.342C1346.91 446.168 1337.83 437.097 1326.63 437.076L1072.2 436.911ZM1325.31 403.266C1336.49 403.266 1345.55 394.215 1345.55 383.041L1345.45 234.789L1408.41 234.851C1419.59 234.851 1428.65 225.8 1428.65 214.626C1428.65 203.452 1419.57 194.381 1408.36 194.36L1325.31 194.298C1318.31 194.278 1312.17 197.824 1308.51 203.205C1306.24 206.462 1304.9 210.441 1304.9 214.729L1305.03 383C1305.03 394.174 1314.1 403.245 1325.31 403.266ZM1051.51 -290.99C1051.51 -279.816 1061.76 -271.92 1072.97 -271.899L1178.78 -273.012L1138.23 -313.523L1094.37 -313.565L1094.34 -357.374L1053.8 -397.885L1052.7 -292.185C1052.68 -292.165 1051.51 -290.99 1051.51 -290.99ZM1144.12 -220.977C1140.46 -217.327 1138.19 -212.256 1138.19 -206.689L1138.26 -124.327C1138.26 -120.328 1139.43 -116.637 1141.41 -113.504C1145 -107.855 1151.32 -104.061 1158.54 -104.061L1241.59 -103.999C1252.78 -103.999 1261.84 -113.05 1261.84 -124.224C1261.84 -135.398 1252.76 -144.469 1241.55 -144.49L1178.74 -144.531L1178.72 -186.403L1242.69 -187.516C1248.05 -187.516 1253.46 -190.155 1257.71 -194.155L1222.65 -229.182L1159.61 -228.048C1154 -228.089 1147.79 -224.646 1144.12 -220.977ZM481.822 -860.165C493.006 -860.165 503.241 -870.391 503.241 -881.565L504.376 -946.816L463.829 -987.327L462.735 -881.586C462.735 -870.412 470.638 -860.165 481.822 -860.165ZM460.775 -796.997C460.775 -785.823 469.854 -776.752 481.059 -776.731L651.729 -777.783C657.135 -777.783 662.604 -780.483 666.834 -784.503L631.858 -819.448L482.214 -818.376C471.01 -818.397 460.775 -808.171 460.775 -796.997ZM735.754 -691.936L736.146 -692.328C740.85 -692.905 745.885 -697.276 750.157 -701.255L716.171 -735.21L715.82 -714.202C715.841 -703.007 723.971 -692.534 735.754 -691.936ZM800.423 -542.715C800.423 -531.541 809.502 -522.47 820.707 -522.449L883.519 -522.408L883.56 -459.652C883.56 -448.478 892.64 -439.407 903.844 -439.386C904.051 -439.386 904.278 -439.407 904.484 -439.407C904.691 -439.407 904.897 -439.365 905.124 -439.386L989.334 -440.479C994.741 -440.479 1000.21 -443.179 1004.42 -447.22L969.442 -482.165L926.398 -482.206L926.378 -525.191L920.662 -530.902L886.305 -565.228L821.842 -564.115C810.658 -564.115 800.402 -553.869 800.423 -542.715ZM565.744 69.5283C576.928 69.5283 585.987 60.4777 585.987 49.3037L585.925 -14.7101L648.737 -14.6688C659.921 -14.6688 668.98 -23.7193 668.98 -34.8934L668.918 -117.874C668.918 -129.048 659.839 -138.119 648.634 -138.14C637.45 -138.14 628.391 -129.089 628.391 -117.915L628.432 -55.1593L565.62 -55.2005C554.436 -55.2005 545.377 -46.1499 545.377 -34.9759C545.377 -34.7697 545.398 -34.5431 545.398 -34.3369C545.398 -34.1307 545.357 -33.9245 545.377 -33.6978L545.439 49.283C545.46 60.4364 554.539 69.5077 565.744 69.5283ZM292.891 216.337C292.891 227.511 301.97 236.582 313.175 236.603L546.389 236.768L546.512 384.958C546.512 396.132 555.592 405.203 566.796 405.224C577.98 405.224 587.039 396.173 587.039 384.999L586.915 218.419C586.915 211.987 583.903 206.256 579.198 202.545C575.504 198.731 570.346 196.339 564.609 196.339L313.174 196.154C301.928 196.092 292.87 205.142 292.891 216.337ZM570.284 655.073C579.879 653.486 587.204 645.178 587.183 635.138L587.06 468.557C587.06 458.126 579.157 449.57 569.025 448.436C567.642 448.127 566.219 447.982 564.753 447.962L501.941 447.921L501.838 300.74C501.838 289.566 492.759 280.495 481.554 280.475C470.37 280.475 461.311 289.525 461.311 300.699L461.435 467.279C461.435 467.403 461.456 467.547 461.456 467.671C461.456 467.795 461.435 467.939 461.435 468.063C461.435 479.237 470.515 488.308 481.719 488.329L546.554 488.37L546.657 615.263L481.822 615.222C470.638 615.222 461.58 624.273 461.58 635.447C461.58 635.612 461.6 635.756 461.6 635.921C461.6 636.086 461.58 636.23 461.58 636.395L461.704 802.975C461.704 814.149 470.783 823.22 481.988 823.241C493.172 823.241 502.23 814.19 502.23 803.016L502.127 655.754L564.939 655.795C566.776 655.816 568.571 655.548 570.284 655.073ZM207.153 131.996C207.153 143.17 216.232 152.241 227.437 152.262L396.023 152.385C407.207 152.385 416.266 143.335 416.266 132.161C416.266 120.987 407.186 111.915 395.982 111.895L247.638 111.792L247.35 -288.825C247.35 -299.999 238.27 -309.07 227.066 -309.091C215.882 -309.091 206.823 -300.04 206.823 -288.866L207.153 131.996ZM481.472 152.447L564.527 152.509C575.711 152.509 584.769 143.458 584.769 132.284C584.769 121.11 575.69 112.039 564.485 112.018L501.673 111.977L501.632 49.2211C501.632 38.0471 492.553 28.9759 481.348 28.9553L418.783 28.914L418.742 -33.842C418.742 -45.0161 409.663 -54.0873 398.458 -54.1079C387.274 -54.1079 378.215 -45.0573 378.215 -33.8833L378.277 46.17C378.133 47.1389 378.029 48.1078 378.05 49.118C378.05 60.2921 387.129 69.3633 398.334 69.3839L461.146 69.4252L461.188 132.181C461.208 143.376 470.288 152.447 481.472 152.447ZM565.847 -732.921C565.517 -732.921 565.187 -732.88 564.857 -732.88C564.526 -732.88 564.196 -732.921 563.866 -732.921L331.354 -733.086L331.127 -1048.83C331.127 -1060 322.047 -1069.07 310.843 -1069.09C299.659 -1069.09 290.6 -1060.04 290.6 -1048.87L290.848 -713.81C290.848 -706.594 294.665 -700.265 300.36 -696.678C303.744 -694.163 307.933 -692.616 312.473 -692.616L545.625 -692.431L545.79 -462.559C545.79 -460.415 546.141 -458.374 546.76 -456.436C548.411 -446.911 556.706 -439.613 566.714 -439.633L647.127 -439.571C658.312 -439.571 667.37 -448.622 667.37 -459.796C667.37 -470.97 658.291 -480.041 647.086 -480.062L586.296 -480.103L586.131 -712.656C586.131 -723.83 577.052 -732.901 565.847 -732.921ZM547.874 -879.442C546.409 -869.731 557.263 -861.237 568.447 -861.237L588.009 -863.258L553.92 -897.316C549.917 -893.069 546.822 -886.596 548.287 -879.813L547.895 -879.421L547.874 -879.442ZM713.922 -628.273C713.922 -617.099 724.178 -609.203 735.382 -609.182L841.197 -610.295L800.65 -650.807L735.341 -649.673C724.136 -649.693 713.901 -639.468 713.922 -628.273ZM1473.65 298.06L1473.67 320.512C1473.67 320.718 1474.23 321.522 1474.23 321.728L1474.89 404.441L1515.38 363.991L1515.42 363.95L1514.78 298.7C1514.78 287.525 1505.39 278.145 1494.21 278.145C1483 278.124 1473.65 286.886 1473.65 298.06ZM1253.23 530.778L1240.93 530.778C1229.75 530.778 1220.69 539.828 1220.69 551.002C1220.69 562.176 1230.49 570.526 1241.7 570.547L1254.74 569.804L1254.92 569.99L1306.68 572.505L1347.16 532.056L1253.87 531.375C1253.87 531.375 1253.25 530.757 1253.23 530.778ZM-24.534 1373.92L-22.0578 1376.4L-20.8816 1375.22L-42.6925 1372.27L-37.2449 1377.72L-3.17689 1411.75L-3.71338 1393.36C-3.73402 1382.17 -12.7515 1373.33 -24.534 1373.92ZM60.8733 1159.53C72.0574 1159.53 81.116 1150.48 81.116 1139.31L80.8684 802.48C80.8684 791.306 71.7891 782.235 60.5844 782.214C49.4004 782.214 40.3417 791.265 40.3417 802.439L40.5894 1139.27C40.61 1150.46 49.6893 1159.53 60.8733 1159.53ZM334.305 887.667L334.263 822.89L398.314 822.932C409.498 822.932 418.556 813.881 418.556 802.707L418.391 571.598L482.462 571.66C493.646 571.66 502.705 562.609 502.705 551.435C502.705 540.261 493.626 531.19 482.421 531.169L398.087 531.107C386.902 531.107 377.844 540.158 377.844 551.332C377.844 551.538 377.864 551.683 377.864 551.889C377.844 552.074 377.823 552.26 377.844 552.445L378.05 782.441L314 782.4C302.816 782.4 293.757 791.45 293.757 802.625C293.757 802.748 293.757 802.872 293.778 803.016C293.778 803.14 293.778 803.264 293.757 803.408L293.799 887.646C293.799 898.82 302.878 907.892 314.083 907.912C325.267 907.912 334.325 898.862 334.305 887.667ZM230.367 822.829C241.551 822.829 250.61 813.778 250.61 802.604C250.61 791.43 241.531 782.359 230.326 782.338L145.992 782.276C134.808 782.276 125.749 791.327 125.749 802.501C125.749 813.675 134.828 822.746 146.033 822.767L230.367 822.829ZM247.577 216.131C247.577 204.957 238.497 195.886 227.293 195.865C216.088 195.844 207.05 204.916 207.05 216.09L207.112 300.349C207.132 306.018 209.443 311.131 213.22 314.821C216.893 318.491 221.969 320.759 227.54 320.759L377.679 320.883L377.803 468.042C377.803 479.216 386.882 488.287 398.087 488.308C409.271 488.308 418.329 479.257 418.329 468.083L418.205 300.679C418.205 298.947 417.979 297.236 417.566 295.628C417.153 294.02 416.534 292.453 415.75 291.051C415.131 289.896 414.388 288.824 413.562 287.835C413.15 287.34 412.717 286.866 412.242 286.392C411.788 285.938 411.313 285.505 410.797 285.072C407.29 282.186 402.791 280.454 397.901 280.433L247.597 280.31L247.577 216.131ZM141.266 112.266C130.082 112.266 121.023 121.316 121.023 132.49L121.209 383.866C121.209 394.833 129.979 403.76 140.874 404.09C142.03 404.296 143.185 404.42 144.382 404.42L207.194 404.461L207.359 635.24C207.359 646.415 216.439 655.486 227.643 655.506C238.827 655.506 247.886 646.456 247.886 635.282L247.721 384.257L247.721 383.927C247.721 372.753 238.642 363.682 227.437 363.662C226.199 363.662 224.961 363.785 223.785 364.012L161.715 363.971L161.53 132.552C161.55 121.358 152.471 112.286 141.266 112.266ZM212.477 1055.77L212.539 1140.03C212.539 1151.21 221.618 1160.28 232.823 1160.3C244.007 1160.3 253.065 1151.25 253.065 1140.07L253.004 1055.81C253.004 1044.64 243.924 1035.57 232.72 1035.55C221.515 1035.53 212.456 1044.58 212.477 1055.77ZM314.165 1159.72C325.349 1159.72 334.408 1150.67 334.408 1139.5L334.284 973.328C334.346 972.648 334.387 971.946 334.408 971.225C334.408 960.051 325.328 950.98 314.124 950.959L314 950.959L249.826 950.918L249.764 886.904C249.764 875.73 240.685 866.659 229.48 866.638C218.296 866.638 209.237 875.689 209.237 886.863L209.299 971.122C209.299 982.296 218.378 991.367 229.583 991.388C229.624 991.388 229.645 991.367 229.686 991.367C229.727 991.367 229.748 991.388 229.79 991.388L293.757 991.429L293.86 1139.47C293.881 1150.63 302.96 1159.7 314.165 1159.72ZM167.328 1476.8C167.328 1465.63 158.166 1456.64 146.962 1456.62L41.7244 1456.62L82.2716 1497.13L147.003 1497.11C158.187 1497.11 167.328 1487.97 167.328 1476.8ZM-106.784 1202.93C-117.968 1202.93 -127.109 1212.06 -127.109 1223.24L-127.13 1287.91L-86.5826 1328.42L-86.5827 1223.24C-86.5827 1212.06 -95.6002 1202.93 -106.784 1202.93ZM167.514 1562.21C166.915 1550.44 158.29 1541.99 147.085 1541.97L127.132 1541.95L161.53 1576.31C165.595 1572.13 168.587 1569.39 167.204 1562.52L167.514 1562.21ZM-1038.88 233.036C-1038.09 233.036 -1037.35 232.995 -1036.61 232.913C-1035.86 232.995 -1035.12 233.036 -1034.36 233.057C-1023.17 233.057 -1014.12 224.006 -1014.12 212.832L-1014.22 64.5802L-952.417 64.6421C-941.233 64.6421 -932.175 55.5915 -932.175 44.4175C-932.175 33.2434 -939.83 25.5946 -951.014 25.5946L-1011.37 26.9349L-1017.29 32.8517L-1051.86 67.3841L-1053.2 193.948L-1118.8 193.185C-1129.98 193.185 -1139.41 201.864 -1139.39 213.059C-1139.39 224.233 -1130.47 233.139 -1119.29 233.139L-1038.88 233.036ZM399.923 1456.55C399.675 1456.55 399.449 1456.53 399.201 1456.53C388.017 1456.53 379.557 1466.18 379.557 1477.36L380.176 1498.18L414.739 1463.65L420.661 1457.73L401.244 1457.09C401.017 1457.11 400.15 1456.53 399.923 1456.55ZM-1034.32 275.98C-1035.1 275.98 -1035.84 276.021 -1036.59 276.104C-1037.33 276.021 -1038.07 275.98 -1038.84 275.96L-1119.54 275.98C-1125.13 275.96 -1129.81 277.836 -1133.94 281.959L-1099.34 316.533L-1054.72 316.574L-1054.68 361.146L-1014.14 401.657L-1014.14 296.267C-1014.14 285.134 -1023.15 276.001 -1034.32 275.98ZM-41.7845 1308.12C-41.7845 1319.29 -32.7052 1328.36 -21.5005 1328.38C-10.3164 1328.38 -1.25789 1319.33 -1.25789 1308.16L-0.78346 1139.04C-0.78346 1127.87 -8.78957 1117.52 -20.5927 1118.1L-19.9942 1118.69L-21.5006 1120.2L-295.881 1119.31L-255.334 1159.82L-41.991 1159.89L-41.7845 1308.12ZM-21.7069 1076.41C-10.5228 1076.41 -1.46418 1067.36 -1.46418 1056.18L-1.71201 739.6L312.576 739.827C317.879 739.848 322.708 737.786 326.298 734.446C331.085 730.735 334.181 724.963 334.181 718.448L333.933 383.927C333.933 372.753 324.854 363.682 313.649 363.662C302.465 363.662 293.406 372.712 293.406 383.886L293.633 699.295L-22.0166 699.069C-27.6087 699.048 -32.6848 701.316 -36.3578 704.986C-40.0307 708.655 -42.2799 713.706 -42.2799 719.314L-42.0322 1056.14C-41.9703 1067.34 -32.8909 1076.41 -21.7069 1076.41ZM40.6512 1223.73L40.7751 1392.25C40.7751 1403.43 49.8544 1412.5 61.059 1412.52C72.2637 1412.54 81.3018 1403.47 81.3018 1392.29L81.1985 1223.75C81.1985 1212.58 72.1192 1203.51 60.9145 1203.49C49.7305 1203.49 40.6512 1212.56 40.6512 1223.73ZM-359.993 949.99C-371.177 949.99 -380.318 959.123 -380.318 970.297L-380.339 1034.93L-339.792 1075.44L-339.792 970.338C-339.792 959.164 -348.788 950.011 -359.993 949.99ZM-190.21 1203.57L-211.485 1203.63L-176.426 1238.66C-172.176 1234.66 -169.968 1229.69 -169.968 1223.88C-169.968 1212.7 -179.006 1203.59 -190.21 1203.57ZM-443.564 950.609L-464.673 950.67L-429.697 985.615C-425.467 981.595 -423.321 976.688 -423.342 970.895C-423.342 959.721 -432.38 950.609 -443.564 950.609ZM-108.435 1076.31C-97.2509 1076.31 -88.1922 1067.26 -88.1922 1056.08L-88.254 973.101L-88.254 973.06L-88.2541 973.019C-88.2541 961.845 -97.3334 952.773 -108.538 952.753L-191.593 952.691C-202.777 952.691 -211.836 961.742 -211.836 972.916C-211.836 973.452 -211.795 973.946 -211.774 974.462L-211.712 1035.59L-274.524 1035.55C-285.708 1035.55 -294.767 1044.6 -294.767 1055.77C-294.767 1066.95 -285.687 1076.02 -274.483 1076.04L-191.428 1076.1C-180.244 1076.1 -171.185 1067.05 -171.185 1055.88C-171.185 1055.75 -171.185 1055.67 -171.206 1055.57C-171.206 1055.44 -171.185 1055.34 -171.185 1055.26L-171.247 993.223L-128.781 993.264L-128.739 1056.1C-128.698 1067.24 -119.619 1076.31 -108.435 1076.31ZM-108.559 906.799C-97.3746 906.799 -88.316 897.748 -88.316 886.574L-88.378 803.552C-88.378 803.47 -88.378 803.388 -88.378 803.305C-88.378 803.223 -88.378 803.14 -88.378 803.058C-88.378 791.883 -97.4574 782.812 -108.662 782.792L-171.557 782.75L-171.619 720.056C-171.619 715.768 -172.96 711.83 -175.23 708.532C-178.841 703.027 -185.073 699.399 -192.171 699.399L-275.226 699.337C-286.41 699.337 -295.468 708.387 -295.468 719.561C-295.468 730.735 -286.389 739.807 -275.185 739.827L-212.104 739.889L-212.042 803.037C-212.042 814.211 -202.963 823.282 -191.758 823.303C-191.387 823.303 -190.995 823.282 -190.623 823.241L-128.884 823.282L-128.843 886.533C-128.843 897.707 -119.763 906.778 -108.559 906.799ZM-108.703 739.538C-97.5191 739.538 -88.4604 730.488 -88.4604 719.314L-88.5018 656.558L141.658 656.723C144.093 656.723 146.384 656.29 148.55 655.486C149.52 655.135 150.469 654.723 151.357 654.208C157.63 650.785 161.901 644.126 161.901 636.457L161.777 466.207C161.777 455.033 152.698 445.962 141.493 445.941L78.3923 445.9L78.3509 383.062C78.3509 371.888 69.2716 362.816 58.0669 362.796C46.8829 362.796 37.8242 371.846 37.8242 383.02L37.8863 466.001C37.9069 475.093 43.9115 482.783 52.1448 485.36C54.1257 486.019 56.251 486.37 58.4383 486.37L121.251 486.411L121.333 616.17L-108.827 616.005C-111.633 616.005 -114.295 616.562 -116.73 617.593C-117.948 618.108 -119.103 618.727 -120.176 619.469C-121.249 620.211 -122.26 621.015 -123.189 621.943C-124.571 623.324 -125.727 624.891 -126.676 626.623C-128.224 629.489 -129.111 632.767 -129.111 636.271L-129.049 719.252C-128.966 730.467 -119.887 739.538 -108.703 739.538ZM-108.806 571.371C-97.6224 571.371 -88.5636 562.321 -88.5636 551.146L-88.667 404.255L-25.8547 404.296C-14.6706 404.296 -5.61197 395.246 -5.61197 384.072C-5.61197 372.898 -14.6913 363.826 -25.8959 363.806L-108.951 363.744C-110.354 363.744 -111.716 363.868 -113.036 364.156C-113.47 364.259 -113.883 364.383 -114.295 364.466C-114.522 364.527 -114.77 364.569 -114.976 364.651C-115.451 364.795 -115.925 364.981 -116.4 365.167C-116.544 365.228 -116.709 365.27 -116.854 365.331C-117.163 365.476 -117.473 365.62 -117.782 365.764C-118.071 365.888 -118.36 366.012 -118.629 366.156C-118.732 366.218 -118.814 366.259 -118.917 366.321C-125.067 369.785 -129.235 376.382 -129.214 383.948L-129.214 383.989L-129.111 530.881L-191.923 530.839C-197.515 530.819 -202.591 533.087 -206.223 536.756C-209.896 540.426 -212.145 545.477 -212.145 551.043C-212.145 562.217 -203.066 571.289 -191.882 571.289L-108.806 571.371ZM-190.933 487.999C-179.749 487.999 -170.69 478.948 -170.69 467.774C-170.69 456.6 -179.769 447.529 -190.953 447.529L-274.008 447.467C-279.6 447.446 -284.676 449.714 -288.308 453.384C-291.981 457.053 -294.23 462.104 -294.23 467.671L-294.168 550.652C-294.168 561.826 -285.089 570.897 -273.884 570.918C-262.7 570.918 -253.642 561.867 -253.642 550.693L-253.683 487.937L-190.933 487.999ZM-677.769 298.019C-677.769 286.845 -686.848 277.774 -698.032 277.774L-781.087 277.712C-786.679 277.691 -791.755 279.959 -795.387 283.629C-799.06 287.299 -801.309 292.35 -801.309 297.916C-801.309 309.09 -792.23 318.161 -781.045 318.161L-697.991 318.223C-686.807 318.223 -677.769 309.193 -677.769 298.019ZM-274.297 69.157L-191.242 69.2191C-180.058 69.2191 -171 60.1685 -171 48.9944C-171 37.8204 -180.079 28.7492 -191.263 28.7492L-274.318 28.6873C-279.91 28.6667 -284.986 30.9344 -288.618 34.6041C-292.291 38.2738 -294.54 43.3249 -294.54 48.8913C-294.56 60.086 -285.502 69.1364 -274.297 69.157ZM-697.021 -60.1898C-702.613 -60.2104 -707.689 -57.9426 -711.321 -54.2729C-714.994 -50.6032 -717.243 -45.5522 -717.243 -39.9858C-717.243 -28.8117 -708.164 -19.7407 -696.98 -19.7407L-613.925 -19.6787C-602.741 -19.6787 -593.682 -28.7293 -593.682 -39.9033C-593.682 -51.0774 -602.761 -60.1486 -613.945 -60.1486L-697.021 -60.1898ZM-288.721 -49.0776C-292.394 -45.4079 -294.643 -40.3569 -294.643 -34.7905C-294.643 -23.6165 -285.564 -14.5452 -274.38 -14.5452L-191.325 -14.4833C-180.141 -14.4833 -171.082 -23.5338 -171.082 -34.7079C-171.082 -45.8819 -180.161 -54.9531 -191.345 -54.9531L-274.4 -55.0151C-279.972 -55.0151 -285.069 -52.768 -288.721 -49.0776ZM-191.366 -98.3093C-180.182 -98.3093 -171.123 -107.36 -171.123 -118.534C-171.123 -129.708 -180.203 -138.779 -191.387 -138.779L-274.442 -138.841C-280.034 -138.862 -285.11 -136.594 -288.741 -132.924C-292.414 -129.254 -294.664 -124.204 -294.664 -118.637C-294.664 -107.463 -285.584 -98.3919 -274.4 -98.3919L-191.366 -98.3093ZM-296.211 132.614L-296.026 364.816L-359.869 364.775C-362.181 364.775 -364.368 365.187 -366.431 365.888C-374.788 368.383 -380.876 376.114 -380.876 385.267L-380.834 448.024L-443.647 447.982C-449.239 447.962 -454.315 450.23 -457.947 453.899C-461.62 457.569 -463.869 462.62 -463.869 468.186C-463.869 479.36 -454.789 488.432 -443.605 488.432L-360.55 488.493C-349.366 488.493 -340.308 479.443 -340.308 468.269L-340.349 405.265L-276.794 405.307C-270.335 405.327 -264.619 402.296 -260.905 397.596C-257.583 393.988 -255.499 389.184 -255.519 383.886L-255.705 132.635C-255.705 121.461 -264.785 112.39 -275.989 112.369C-287.132 112.369 -296.211 121.44 -296.211 132.614ZM-212.413 217.244C-212.413 217.409 -212.393 217.595 -212.393 217.76C-212.455 218.399 -212.496 219.017 -212.496 219.677L-212.372 383.907C-212.372 395.081 -203.293 404.152 -192.088 404.173C-180.904 404.173 -171.846 395.122 -171.846 383.948L-171.969 237.531L-109.095 237.593C-97.9111 237.593 -88.8525 228.542 -88.8525 217.368C-88.8525 206.194 -97.9318 197.123 -109.137 197.102L-192.191 197.04C-203.355 197.02 -212.413 206.07 -212.413 217.244ZM-192.191 152.921L-109.137 152.983C-108.765 152.983 -108.394 152.942 -108.002 152.921C-107.61 152.942 -107.259 152.963 -106.867 152.983C-95.6827 152.983 -86.6241 143.933 -86.6241 132.759L-86.9335 -287.011C-86.9335 -298.185 -96.0128 -307.256 -107.217 -307.277C-118.401 -307.277 -127.46 -298.226 -127.46 -287.052L-127.171 112.493L-192.233 112.431C-203.417 112.431 -212.476 121.481 -212.476 132.655C-212.455 143.85 -203.376 152.921 -192.191 152.921ZM-19.6436 447.652C-30.8276 447.652 -39.8863 456.703 -39.8863 467.877L-39.8244 550.858C-39.8244 550.899 -39.8038 550.961 -39.8245 551.023C-39.8245 551.064 -39.845 551.126 -39.8244 551.188C-39.8244 562.362 -30.7451 571.433 -19.5404 571.454L63.5145 571.515C74.6985 571.515 83.7572 562.465 83.7572 551.291C83.7572 540.117 74.678 531.046 63.4733 531.025L0.660945 530.984L0.619842 467.939C0.619842 456.724 -8.45954 447.652 -19.6436 447.652ZM-507.779 634.519L-507.945 405.142L-444.967 405.183L-444.885 405.183C-433.701 405.183 -424.642 396.132 -424.642 384.958C-424.642 384.587 -424.663 384.196 -424.704 383.824L-424.869 132.676C-424.869 121.502 -433.948 112.431 -445.153 112.41C-456.337 112.41 -465.396 121.461 -465.396 132.635L-465.231 364.692L-527.981 364.631C-533.573 364.61 -538.649 366.878 -542.281 370.547C-542.755 371.022 -543.23 371.537 -543.643 372.073C-546.614 375.578 -548.409 380.134 -548.409 385.123L-548.224 634.478C-548.224 645.652 -539.144 654.723 -527.94 654.743C-516.838 654.743 -507.779 645.693 -507.779 634.519ZM-381.061 132.697L-380.938 298.741C-380.938 309.915 -371.858 318.986 -360.654 319.007C-349.47 319.007 -340.411 309.956 -340.411 298.782L-340.535 132.738C-340.535 121.564 -349.614 112.493 -360.819 112.472C-372.003 112.472 -381.061 121.523 -381.061 132.697ZM-551.608 -37.6973L-551.36 297.029C-551.36 308.204 -542.281 317.275 -531.076 317.295C-519.871 317.316 -510.833 308.245 -510.833 297.071L-511.081 -37.6561C-511.081 -48.8302 -520.16 -57.9013 -531.365 -57.922C-542.549 -57.922 -551.608 -48.8714 -551.608 -37.6973ZM-443.647 739.703C-432.463 739.703 -423.383 730.673 -423.404 719.479L-423.507 571.144L-360.488 571.185C-349.304 571.185 -340.246 562.135 -340.246 550.961C-340.246 539.787 -349.325 530.716 -360.509 530.716L-441.377 530.654C-442.182 530.551 -442.986 530.489 -443.791 530.509C-454.975 530.509 -464.034 539.56 -464.034 550.734L-463.91 699.213L-526.722 699.172C-532.314 699.151 -537.37 701.439 -541.022 705.089C-544.674 708.738 -546.944 713.81 -546.944 719.376C-546.944 730.55 -537.865 739.621 -526.681 739.621L-443.647 739.703ZM78.1447 -36.3985L78.0827 -119.379C78.0827 -130.553 69.0034 -139.624 57.7987 -139.645C57.7574 -139.645 57.6954 -139.624 57.6335 -139.645C57.5923 -139.645 57.5305 -139.666 57.4686 -139.645L-25.5863 -139.707C-36.7703 -139.707 -45.829 -130.656 -45.829 -119.482C-45.829 -108.308 -36.7498 -99.2371 -25.5451 -99.2165L37.5972 -99.1753L37.6385 -36.4191C37.6385 -25.245 46.7178 -16.1738 57.9224 -16.1532C69.1065 -16.1532 78.1653 -25.2038 78.1447 -36.3985ZM-107.238 -354.467C-96.054 -354.467 -86.9954 -363.518 -86.9954 -374.692L-87.0575 -457.013L-87.0573 -457.714C-87.0573 -468.888 -96.1366 -477.959 -107.341 -477.98C-109.116 -477.98 -110.849 -477.732 -112.479 -477.299L-276.815 -477.423C-287.999 -477.423 -297.057 -468.373 -297.057 -457.199C-297.057 -456.992 -297.037 -456.766 -297.037 -456.559C-297.037 -456.353 -297.057 -456.127 -297.057 -455.92L-296.933 -283.98C-296.933 -272.806 -287.854 -263.735 -276.65 -263.714C-265.466 -263.714 -256.407 -272.765 -256.407 -283.939L-256.531 -436.912L-127.584 -436.809L-127.543 -374.754C-127.501 -363.539 -118.422 -354.467 -107.238 -354.467ZM-25.1943 -56.4787C-36.3783 -56.4787 -45.437 -47.4282 -45.437 -36.2541L-45.2514 216.358C-45.2514 227.532 -36.172 236.603 -24.9674 236.624C-13.7833 236.624 -4.72466 227.573 -4.72466 216.399L-4.91034 -36.2129C-4.93098 -47.4076 -14.0102 -56.4787 -25.1943 -56.4787ZM57.8813 28.6668C46.6972 28.6668 37.6386 37.7173 37.6386 48.8914L37.8037 280L-107.444 279.897C-118.628 279.897 -127.687 288.948 -127.687 300.122C-127.687 311.296 -118.608 320.367 -107.403 320.388L57.6337 320.512C57.7162 320.512 57.8193 320.491 57.9225 320.512C58.005 320.512 58.0463 320.511 58.1082 320.532C69.2923 320.532 78.3509 311.482 78.3509 300.307L78.1651 48.9326C78.1445 37.7379 69.0653 28.6668 57.8813 28.6668ZM-358.858 823.179C-347.674 823.179 -338.616 814.128 -338.616 802.954L-338.719 656.187L-189.839 656.29C-178.655 656.29 -169.596 647.239 -169.596 636.065C-169.596 624.891 -178.676 615.82 -189.88 615.799L-357.93 615.676C-359.416 615.676 -360.86 615.84 -362.242 616.15C-371.879 617.696 -379.266 626.025 -379.266 636.086L-379.142 802.913C-379.142 814.087 -370.063 823.158 -358.858 823.179ZM-590.958 719.355L-591.144 468.104C-591.144 462.414 -593.517 457.28 -597.293 453.59C-600.987 449.611 -606.249 447.116 -612.109 447.116L-781.603 446.993C-792.787 446.993 -801.846 456.043 -801.846 467.217C-801.846 478.391 -792.766 487.463 -781.562 487.483L-631.609 487.586L-631.423 719.334C-631.423 730.508 -622.343 739.58 -611.139 739.6C-600.017 739.58 -590.958 730.529 -590.958 719.355ZM-949.941 361.394C-961.125 361.394 -970.266 370.527 -970.266 381.701L-970.287 445.508L-929.74 486.019L-929.74 381.701C-929.74 370.527 -938.757 361.394 -949.941 361.394ZM-865.916 484.886C-854.732 484.886 -845.674 475.835 -845.674 464.661L-845.798 296.349C-845.798 285.175 -854.877 276.104 -866.082 276.083C-867.526 276.083 -868.929 276.248 -870.291 276.537L-929.74 276.475L-929.864 128.697C-929.864 117.523 -938.943 108.452 -950.148 108.431C-961.332 108.431 -970.39 117.482 -970.39 128.656L-970.266 296.968C-970.266 308.142 -961.187 317.213 -949.982 317.233C-948.868 317.233 -947.816 317.13 -946.743 316.966L-886.324 317.007L-886.221 464.64C-886.18 475.814 -877.1 484.886 -865.916 484.886ZM-718.254 44.8505L-718.13 192.793L-845.859 192.711L-845.963 44.7886C-845.963 33.6146 -855.042 24.5433 -866.247 24.5227C-877.431 24.5227 -886.489 33.5733 -886.489 44.7474L-886.365 212.935L-886.365 213.059C-886.365 224.233 -877.286 233.304 -866.081 233.325C-865.338 233.325 -864.596 233.284 -863.853 233.201L-700.013 233.325C-699.27 233.407 -698.548 233.469 -697.784 233.449C-686.6 233.449 -677.542 224.398 -677.542 213.224L-677.666 44.9123C-677.666 33.7382 -686.745 24.6671 -697.949 24.6465C-709.195 24.6259 -718.254 33.6764 -718.254 44.8505ZM-760.432 633.859C-758.966 624.149 -769.779 613.511 -780.984 613.49L-802.279 613.366L-767.303 648.311C-763.073 644.291 -759.544 641.178 -760.782 634.168L-760.452 633.839L-760.432 633.859ZM-677.356 549.291C-677.377 543.704 -679.626 538.653 -683.299 534.983C-683.753 534.529 -684.227 534.097 -684.743 533.664C-685.238 533.252 -685.754 532.86 -686.311 532.509C-687.941 531.417 -689.716 530.551 -691.615 529.974C-693.534 529.376 -695.535 529.066 -697.64 529.066L-865.339 529.004C-871.199 529.004 -876.213 531.252 -880.196 535.519L-846.107 569.577L-718.006 569.66L-717.924 697.646L-683.938 731.601C-679.646 727.643 -677.294 722.53 -677.294 716.634L-677.356 549.291ZM-463.786 887.77C-463.786 898.944 -454.707 908.015 -443.502 908.036C-432.318 908.036 -423.259 898.985 -423.259 887.811L-423.321 802.274C-423.321 798.769 -424.209 795.491 -425.756 792.626C-426.375 791.471 -427.118 790.399 -427.944 789.409C-428.356 788.915 -428.79 788.44 -429.264 787.966C-429.718 787.513 -430.193 787.08 -430.709 786.647C-434.216 783.761 -438.777 782.091 -443.688 782.091L-633.466 782.029L-592.918 822.54L-463.91 822.54L-463.786 887.77ZM-527.898 867.463L-528.229 867.793L-547.811 867.607L-513.454 901.933L-507.738 907.644L-507.697 887.811C-507.697 876.637 -514.052 870.122 -527.898 867.463ZM-779.065 361.291C-790.249 361.291 -799.307 370.341 -799.307 381.515C-799.307 392.689 -790.228 401.76 -779.023 401.781L-614.812 401.905C-614.729 401.905 -614.688 401.905 -614.626 401.925C-603.442 401.925 -594.384 392.875 -594.384 381.701L-594.631 45.8607C-594.631 34.6867 -603.71 25.6154 -614.915 25.5948C-626.099 25.5948 -635.158 34.6454 -635.158 45.8194L-634.931 361.435L-779.065 361.291ZM166.73 -1047.77L168.091 -1151.47L127.606 -1111.03L126.203 -1047.82C126.203 -1036.64 135.282 -1027.57 146.487 -1027.55C157.671 -1027.55 166.73 -1036.6 166.73 -1047.77ZM145.084 -985.451C133.9 -985.451 124.841 -976.4 124.841 -965.226L124.965 -797.162C124.965 -785.988 134.044 -776.917 145.249 -776.896L229.583 -776.834C240.767 -776.834 249.826 -785.885 249.826 -797.059C249.826 -808.233 240.746 -817.304 229.542 -817.325L165.471 -817.386L165.347 -965.206C165.347 -976.38 156.268 -985.451 145.084 -985.451ZM-107.899 -690.844C-107.568 -690.844 -107.279 -690.885 -106.97 -690.905C-106.66 -690.885 -106.351 -690.864 -106.041 -690.843L-25.4213 -690.782C-25.0499 -690.782 -24.6785 -690.823 -24.2864 -690.844C-23.8943 -690.823 -23.5229 -690.782 -23.1515 -690.782C-11.9674 -690.782 -2.90878 -699.832 -2.90878 -711.006L-2.97076 -797.409C-2.97076 -808.583 -12.05 -817.655 -23.2547 -817.675C-34.4387 -817.675 -43.4974 -808.625 -43.4974 -797.451L-43.456 -731.272L-87.6558 -731.313L-87.6971 -797.492C-87.6971 -808.666 -96.7764 -817.737 -107.981 -817.758C-119.165 -817.758 -128.224 -808.707 -128.224 -797.533L-128.162 -711.13C-128.162 -699.915 -119.083 -690.844 -107.899 -690.844ZM-210.804 -630.541C-211.402 -618.769 -202.756 -609.265 -191.552 -609.244L39.0829 -608.564L39.0622 -289.237C39.0622 -278.063 48.0178 -268.868 59.2224 -268.848C70.4065 -268.848 79.4032 -277.836 79.4032 -289.01L79.1143 -624.809C79.1143 -625.18 79.0731 -625.552 79.0319 -625.923C79.1144 -626.706 79.1764 -627.469 79.1557 -628.273C79.1557 -639.447 70.0764 -648.518 58.8717 -648.539L-172.362 -648.704L-171.041 -796.11C-171.061 -801.491 -173.207 -806.398 -175.168 -808.563L-210.123 -773.639L-210.288 -630.025L-210.804 -630.541ZM-786.968 150.035C-775.784 150.2 -766.581 141.294 -766.416 130.12L-763.052 -104.556L-528.683 -104.391C-517.498 -104.391 -508.44 -113.442 -508.44 -124.616C-508.44 -135.79 -517.519 -144.861 -528.724 -144.882L-782.47 -145.067C-782.552 -145.067 -782.614 -145.047 -782.676 -145.067L-782.717 -145.067C-793.901 -145.232 -803.104 -136.326 -803.269 -125.152L-806.942 129.46C-807.087 140.655 -798.172 149.849 -786.968 150.035ZM-444.328 -54.912C-455.512 -54.912 -464.57 -45.8615 -464.57 -34.6874L-464.508 50.3964C-464.508 61.5704 -455.429 70.6416 -444.224 70.6622C-444.183 70.6622 -444.142 70.662 -444.121 70.6414C-444.08 70.6414 -444.039 70.6416 -444.018 70.6622L-360.963 70.724C-349.779 70.724 -340.72 61.6734 -340.72 50.4994C-340.72 39.3253 -349.8 30.2541 -360.984 30.2541L-424.002 30.2129L-424.064 -34.6256C-424.044 -45.8202 -433.123 -54.8914 -444.328 -54.912ZM-359.539 -16.3389C-348.355 -16.3389 -339.297 -25.3894 -339.297 -36.5635L-339.359 -119.091C-339.235 -119.998 -339.152 -120.905 -339.152 -121.812C-339.152 -132.986 -348.232 -142.057 -359.436 -142.078L-424.106 -142.119L-424.167 -202.257C-423.899 -203.556 -423.755 -204.937 -423.755 -206.339C-423.755 -217.513 -432.834 -226.584 -444.039 -226.605L-529.198 -226.667C-540.382 -226.667 -549.441 -217.616 -549.441 -206.442C-549.441 -195.268 -540.362 -186.197 -529.157 -186.176L-464.694 -186.135L-464.653 -124.657C-464.777 -123.75 -464.859 -122.843 -464.859 -121.936C-464.859 -119.668 -464.467 -117.503 -463.786 -115.503C-461.269 -107.174 -453.531 -101.093 -444.389 -101.072C-442.697 -101.072 -441.067 -101.299 -439.52 -101.69L-379.926 -101.649L-379.823 -36.6047C-379.823 -25.4307 -370.744 -16.3595 -359.539 -16.3389ZM-360.096 -186.073L-192.253 -185.95C-181.069 -185.95 -172.011 -195 -172.011 -206.174C-172.011 -207.205 -172.114 -208.174 -172.258 -209.184L-172.361 -374.548C-172.361 -385.722 -181.441 -394.793 -192.645 -394.814C-203.83 -394.814 -212.888 -385.763 -212.888 -374.589L-212.785 -226.461L-339.833 -226.564L-339.874 -291.381C-339.895 -299.071 -344.187 -305.751 -350.481 -309.194C-353.349 -310.74 -356.651 -311.647 -360.138 -311.627L-445.297 -311.688C-456.481 -311.688 -465.54 -302.638 -465.54 -291.464C-465.54 -280.29 -456.461 -271.219 -445.256 -271.198L-380.38 -271.157L-380.339 -206.339C-380.36 -195.144 -371.281 -186.073 -360.096 -186.073ZM-360.633 -355.374C-349.449 -355.374 -340.39 -364.425 -340.39 -375.599L-340.493 -519.687L-43.3117 -519.48L-43.0846 -204.401C-43.0846 -204.319 -43.0641 -204.257 -43.0641 -204.174C-43.0641 -204.092 -43.0847 -204.03 -43.0847 -203.948C-43.0847 -192.773 -34.0054 -183.702 -22.8007 -183.682L118.279 -183.579L118.444 48.9326C118.444 60.1066 127.523 69.1778 138.728 69.1984C149.912 69.1984 158.971 60.1478 158.971 48.9738L158.785 -204.628C158.785 -215.802 149.706 -224.873 138.501 -224.894C136.479 -224.894 134.56 -224.584 132.744 -224.048L-2.55805 -224.151L-2.78506 -539.685C-2.78506 -544.591 -4.53902 -549.065 -7.42788 -552.57C-9.51199 -555.106 -12.2357 -557.126 -15.3103 -558.384C-17.704 -559.373 -20.3245 -559.93 -23.0483 -559.93L-360.716 -560.177C-371.9 -560.177 -380.979 -551.147 -380.958 -539.952L-380.855 -395.865L-529.652 -395.968C-540.836 -395.968 -549.916 -386.938 -549.895 -375.744C-549.895 -364.569 -540.816 -355.498 -529.611 -355.478L-360.633 -355.374ZM-845.055 -37.553L-843.672 -140.614L-884.157 -100.165L-884.137 -56.3962L-927.944 -56.417L-968.43 -15.9677L-864.575 -16.6068C-853.371 -16.5862 -845.034 -26.3583 -845.055 -37.553ZM-613.058 -187.083C-601.874 -187.083 -592.815 -196.134 -592.815 -207.308L-592.857 -271.301L-528.806 -271.26C-517.622 -271.26 -508.564 -280.31 -508.564 -291.484C-508.564 -302.659 -517.643 -311.73 -528.848 -311.75L-592.898 -311.792L-591.515 -374.362C-591.515 -380.176 -594.28 -385.701 -596.468 -387.639L-630.598 -353.54L-630.556 -308.967L-675.148 -308.988L-709.278 -274.888C-707.318 -272.723 -701.787 -269.961 -695.989 -269.94L-632.64 -270.6L-632.95 -206.958C-632.971 -195.804 -624.242 -187.083 -613.058 -187.083ZM-274.008 992.398C-262.824 992.398 -253.766 983.347 -253.766 972.173L-253.807 908.18L-189.757 908.221C-178.572 908.221 -169.514 899.171 -169.514 887.997C-169.514 876.823 -178.593 867.752 -189.798 867.731L-253.848 867.69L-253.889 803.697C-253.889 792.523 -262.969 783.451 -274.173 783.431C-285.357 783.431 -294.416 792.481 -294.416 803.655L-294.375 867.648L-358.425 867.607C-369.609 867.607 -378.668 876.658 -378.668 887.832C-378.668 899.006 -369.588 908.077 -358.384 908.098L-294.333 908.139L-294.292 972.132C-294.292 983.306 -285.213 992.377 -274.008 992.398ZM60.3575 -861.011C65.9702 -861.011 71.0049 -863.279 74.6572 -866.928C78.2477 -870.515 80.4969 -875.442 80.5794 -880.885L80.5796 -881.586L80.4556 -1053.03C80.4556 -1053.28 81.9206 -1052.1 81.9206 -1052.35L83.3651 -1066.82L83.3239 -1066.78L42.8385 -1026.33L42.921 -898.636L-84.8701 -898.739L-125.355 -858.289L-110.684 -859.712L60.3575 -861.011Z" fill="url(#paint0_linear)"/>
</g>
<defs>
<linearGradient id="paint0_linear" x1="871.019" y1="8.96274" x2="8.08963" y2="563.528" gradientUnits="userSpaceOnUse">
<stop stop-color="#851226"/>
<stop offset="1" stop-color="#C31331"/>
</linearGradient>
</defs>
</svg>
