<svg width="154" height="154" viewBox="0 0 154 154" fill="none" xmlns="http://www.w3.org/2000/svg">
<path d="M124.096 124.208L124.243 124.062V124.055C130.006 118.276 134.708 111.433 138.192 103.453L138.211 103.46C141.681 95.4053 143.608 86.5305 143.608 77.2059C143.608 40.5469 113.89 10.8356 77.2375 10.8356C40.5784 10.8356 10.8672 40.5469 10.8672 77.2059C10.8672 113.865 40.5853 143.576 77.2375 143.576C95.5259 143.576 112.094 136.177 124.096 124.208ZM47.8035 68.6966L41.3419 75.9643L34.4885 69.8689L40.9501 62.6012L41.2824 62.2275L40.9087 61.8953L33.6411 55.4337L39.7364 48.5803L47.0042 55.0419L47.3778 55.3741L47.7101 55.0005L54.1716 47.7328L61.0251 53.8282L54.5634 61.096L54.2312 61.4696L54.6049 61.8019L61.8725 68.2634L55.7771 75.1169L48.5094 68.6552L48.1357 68.323L47.8035 68.6966ZM116.962 53.8349L110.501 61.1026L110.168 61.4763L110.542 61.8085L117.81 68.27L111.714 75.1235L104.447 68.6618L104.073 68.3296L103.741 68.7033L97.2791 75.9709L90.4257 69.8756L96.8874 62.6078L97.2196 62.2341L96.8459 61.9019L89.5783 55.4404L95.6736 48.5869L102.941 55.0486L103.315 55.3808L103.647 55.0071L110.109 47.7395L116.962 53.8349ZM1.22217 77.111C1.22217 35.2614 35.1505 1.33301 77.0002 1.33301C118.85 1.33301 152.778 35.2614 152.778 77.111C152.778 118.961 118.85 152.889 77.0002 152.889C35.1505 152.889 1.22217 118.961 1.22217 77.111ZM104.469 97.9518V107.122H49.5316V97.9518H104.469Z" fill="#32343E" stroke="url(#paint0_linear)"/>
<defs>
<linearGradient id="paint0_linear" x1="129.848" y1="133.761" x2="41.6414" y2="-18.3197" gradientUnits="userSpaceOnUse">
<stop offset="0.0001" stop-color="#252832" stop-opacity="0"/>
<stop offset="1" stop-color="#53555B"/>
</linearGradient>
</defs>
</svg>
