<svg width="495" height="224" viewBox="0 0 495 224" fill="none" xmlns="http://www.w3.org/2000/svg">
<g clip-path="url(#clip0)">
<path d="M536.236 9.99772V199.94C536.236 209.31 528.764 216.918 519.561 216.918H57.8685C48.6655 216.918 41.1934 209.31 41.1934 199.94V9.99772C41.1934 0.627544 48.6655 -6.98032 57.8685 -6.98032H519.561C528.764 -6.98032 536.236 0.627544 536.236 9.99772Z" fill="white"/>
<path d="M579.08 -36.1614V295.318H-4.71338V-36.1614H579.08Z" fill="#C31331"/>
<path d="M579.08 -36.1614V295.318H-4.71338V-36.1614H579.08Z" stroke="white" stroke-width="5"/>
<path d="M414.543 347.33H-211.066C-211.066 347.33 -238.491 311.704 -225.394 268.99C-212.298 226.272 -178.662 193.637 -189.513 144.212C-190.013 141.93 -190.451 139.662 -190.823 137.414C-190.972 136.513 -191.113 135.616 -191.237 134.723C-191.351 133.949 -191.453 133.175 -191.551 132.405C-191.636 131.712 -191.719 131.019 -191.789 130.33C-191.961 128.725 -192.102 127.131 -192.212 125.545C-192.591 119.909 -192.56 114.415 -192.137 109.106C-192.059 108.167 -191.973 107.231 -191.871 106.303C-191.844 106.057 -191.817 105.807 -191.789 105.56C-191.723 104.983 -191.648 104.405 -191.57 103.832C-191.558 103.747 -191.546 103.659 -191.535 103.574C-191.519 103.435 -191.499 103.297 -191.476 103.158C-191.453 102.996 -191.429 102.831 -191.402 102.665C-191.378 102.492 -191.355 102.319 -191.328 102.146C-191.324 102.13 -191.324 102.115 -191.319 102.099C-191.316 102.061 -191.308 102.022 -191.304 101.984C-187.623 77.7415 -175.364 58.2613 -156.631 48.5594C-153.603 46.989 -150.408 45.6762 -147.051 44.6445C-138.598 42.0301 -129.132 41.1758 -118.794 42.4116C-104.473 44.1248 -90.7977 43.8587 -77.7953 42.1767C-74.5604 41.7571 -71.368 41.2524 -68.2195 40.6672C-62.2073 39.555 -56.3437 38.1494 -50.6405 36.5175C-50.4484 36.4636 -50.2611 36.4097 -50.0733 36.3558C-40.9239 33.711 -32.1774 30.4887 -23.8412 26.9314C-15.0873 23.1932 -6.79066 19.0893 1.0405 14.9045C4.31496 13.1605 7.50687 11.3973 10.6163 9.63795C30.84 -1.78066 47.5624 -12.8951 60.5018 -17.8999C60.7091 -17.9769 60.9125 -18.0581 61.1159 -18.1348C61.3076 -18.2041 61.4993 -18.2772 61.687 -18.3469C61.8826 -18.4158 62.0747 -18.4851 62.266 -18.5544C62.6532 -18.693 63.0327 -18.8239 63.4125 -18.9471C63.6664 -19.0318 63.9206 -19.1126 64.1749 -19.19C64.4291 -19.2705 64.6795 -19.3436 64.9298 -19.4167C65.2115 -19.4976 65.4892 -19.5784 65.7669 -19.6516C65.9864 -19.7093 66.2011 -19.7675 66.4163 -19.8171C66.534 -19.8479 66.6509 -19.8787 66.7687 -19.9018C66.9209 -19.9403 67.0734 -19.975 67.2263 -20.0096C67.4411 -20.0597 67.6562 -20.1059 67.8714 -20.1482C82.7827 -23.178 95.8203 -24.0404 107.399 -23.3012C108.929 -23.205 110.431 -23.0818 111.909 -22.9316C128.925 -21.1838 142.698 -15.9211 154.679 -9.13769C159.733 -6.28112 164.466 -3.1512 168.988 0.101912C191.715 16.4406 209.138 35.8284 235.037 39.3044C256.176 42.1421 274.588 46.1459 290.52 51.3932C293.102 52.2402 295.617 53.1218 298.069 54.0381H298.073C298.547 54.2152 299.012 54.3923 299.477 54.5732H299.485C301.895 55.4933 304.242 56.4442 306.526 57.4294H306.535C307.688 57.9303 308.815 58.4346 309.937 58.9466H309.945C324.352 65.5491 336.185 73.5336 345.749 82.9811C353.999 91.1274 360.558 100.367 365.605 110.746C370.905 121.641 374.542 133.795 376.729 147.27C379.119 161.972 379.784 178.249 379.006 196.174C377.676 226.815 464.257 288.17 414.543 347.33Z" fill="#DB1738"/>
<path d="M11.2891 26.9314V36.3558H-50.0732C-40.9238 33.711 -32.1774 30.4886 -23.8416 26.9314H11.2891Z" fill="#BC203B"/>
<path d="M-154.723 98.5152H11.2897V107.94H-154.723V98.5152Z" fill="#BC203B"/>
<path d="M-154.723 170.099H11.2897V179.525H-154.723V170.099Z" fill="#BC203B"/>
<path d="M10.6163 9.63794V179.523H1.04053V14.9045C4.3146 13.1605 7.50652 11.3973 10.6163 9.63794Z" fill="#BC203B"/>
<path d="M133.918 64.5685L107.716 61.4383L107.716 61.4421C107.115 66.1977 102.723 69.5878 97.9086 69.0126C93.0932 68.4373 89.6756 64.1143 90.2763 59.3587L90.2768 59.3549L64.4741 56.2724C83.8534 45.2085 95.8801 34.4506 100.821 29.6154L107.534 -23.5302C109.036 -23.2536 110.508 -22.9534 111.953 -22.6294L105.287 30.1489C108.876 36.0032 117.869 49.2721 133.918 64.5685Z" fill="#BC203B"/>
<path d="M365.604 110.746C360.558 100.367 353.998 91.1274 345.749 82.9811C336.185 73.5336 324.352 65.5491 309.945 58.9466H309.937C308.815 58.4346 307.688 57.9303 306.534 57.4298H306.526C304.242 56.4442 301.895 55.4933 299.485 54.5732H299.477C299.012 54.3923 298.546 54.2152 298.073 54.0381H298.069C295.617 53.1218 293.101 52.2402 290.52 51.3932C274.587 46.1459 256.175 42.1421 235.037 39.3048C209.137 35.8284 191.715 16.4406 168.988 0.101906C164.466 -3.15121 159.733 -6.28112 154.679 -9.1377V145.903C154.679 146.657 155.301 147.269 156.068 147.269H376.729C374.542 133.795 370.904 121.641 365.604 110.746Z" fill="#BC203B"/>
<path d="M345.749 82.9812C336.185 73.5337 324.352 65.5491 309.946 58.9466H309.937C308.815 58.4346 307.688 57.9303 306.535 57.4298H306.526C304.242 56.4443 301.895 55.4933 299.485 54.5732H299.478C299.012 54.3923 298.547 54.2152 298.073 54.0381H298.069C295.617 53.1218 293.101 52.2402 290.52 51.3933C274.588 46.146 256.176 42.1421 235.037 39.3048C209.138 35.8284 191.715 16.4406 168.988 0.101929V135.993C168.988 136.652 169.532 137.187 170.201 137.187H364.391C365.06 137.187 365.604 136.652 365.604 135.993V110.746C360.558 100.367 353.999 91.1274 345.749 82.9812Z" fill="#DA1738"/>
<path d="M346.73 92.752L295.19 97.7799L290.52 51.3932C293.101 52.2402 295.616 53.1218 298.069 54.0381H298.073C298.546 54.2152 299.012 54.3923 299.477 54.5732H299.485C301.895 55.4933 304.242 56.4442 306.526 57.4298H306.534C307.687 57.9303 308.814 58.4346 309.937 58.9466H309.945C324.352 65.5491 336.184 73.5336 345.748 82.9811L346.73 92.752Z" fill="#BB1F3A"/>
<path d="M268.261 128.679L217.941 116.605L233.311 54.564L283.629 66.6378L268.261 128.679Z" fill="#BB1F3A"/>
<path d="M260.868 67.0505C260.868 65.0055 259.184 63.3485 257.108 63.3485C255.032 63.3485 253.347 65.0055 253.347 67.0505C253.347 69.094 255.032 70.7495 257.108 70.7495C259.184 70.7495 260.868 69.094 260.868 67.0505Z" fill="#DA1738"/>
<path d="M272.015 84.476L235.547 75.6861L235.999 73.8751L272.467 82.6651L272.015 84.476Z" fill="#DA1738"/>
<path d="M269.768 91.3684L233.3 82.58L233.751 80.769L270.22 89.559L269.768 91.3684Z" fill="#DA1738"/>
<path d="M267.522 98.2638L231.053 89.4723L231.505 87.6629L267.973 96.4529L267.522 98.2638Z" fill="#DA1738"/>
<path d="M263.028 112.048L226.56 103.259L227.011 101.448L263.479 110.236L263.028 112.048Z" fill="#DA1738"/>
<path d="M260.781 118.942L224.312 110.152L224.765 108.341L261.232 117.131L260.781 118.942Z" fill="#DA1738"/>
<path d="M299.477 54.5732L298.143 54.7118L298.072 54.0381C298.546 54.2152 299.011 54.3923 299.477 54.5732Z" fill="#DA1738"/>
<path d="M309.938 58.9466L298.144 60.1786L297.944 58.3268L306.527 57.4298H306.535C307.688 57.9303 308.815 58.4346 309.938 58.9466Z" fill="#DA1738"/>
<path d="M299.766 81.2044L299.565 79.3504L337.026 75.4435L337.226 77.298L299.766 81.2044Z" fill="#DA1738"/>
<path d="M300.755 86.3948L300.555 84.5407L338.016 80.6339L338.216 82.4868L300.755 86.3948Z" fill="#DA1738"/>
<path d="M226.19 93.0735L195.402 97.353L190.777 65.1168L221.565 60.8373L226.19 93.0735Z" fill="#9A1D33"/>
<path d="M497.286 202.391C499.505 206.298 501.72 210.209 503.923 214.128C504.401 213.875 504.888 213.647 505.367 213.4C502.662 208.597 499.939 203.807 497.211 199.025C490.573 187.392 483.631 175.925 474.417 166.061C465.475 156.49 455.106 148.37 444.807 140.301C443.99 139.661 443.09 140.977 443.904 141.615C454.491 149.909 465.142 158.257 474.216 168.2C483.571 178.451 490.483 190.426 497.286 202.391Z" fill="#ED3D5B"/>
<path d="M500.673 217.279C501.088 216.94 501.517 216.624 501.935 216.292C497.475 211.863 492.76 207.679 487.765 203.816C477.16 195.619 464.144 186.758 450.05 189.665C449.033 189.874 449.577 191.384 450.583 191.177C465.388 188.127 479.568 199.065 490.263 207.85C493.892 210.83 497.354 213.989 500.673 217.279Z" fill="#ED3D5B"/>
<path d="M355.375 128.495C358.573 135.764 377.144 132.418 383.405 132.216C397.261 131.78 410.852 131.497 423.769 137.478C438.99 144.537 453.503 153.907 467.779 162.696C468.684 163.258 469.585 163.168 470.293 162.743C470.425 162.683 470.557 160.172 470.52 156.396C470.423 147.551 469.317 131.736 464.791 124.293C461.611 119.063 457.442 114.524 452.68 110.697C453.121 113.443 453.105 116.239 452.088 118.76C451.841 119.367 446.513 109.32 443.899 104.839C442.707 104.196 441.512 103.59 440.289 103.031C437.487 101.738 434.559 100.662 431.547 99.8211C430.906 99.6337 430.267 99.4469 429.624 99.2961C427.22 98.6875 424.762 98.1939 422.276 97.8327C421.628 97.7391 420.963 97.6516 420.284 97.5707C418.001 97.2962 415.678 97.1271 413.353 97.0665C414.259 100.909 414.794 104.759 414.584 108.769C414.547 109.595 409.972 100.993 408.185 97.0913C406.039 97.1447 403.903 97.3333 401.751 97.5642C402.183 100.102 402.427 102.656 402.241 105.244C402.196 105.864 397.104 100.846 395.063 98.5575C388.441 99.8029 382.031 101.799 376.174 104.515C375.661 104.747 375.148 104.978 374.662 105.231C373.069 106.006 371.524 106.843 370.036 107.726C364.534 111.006 352.231 120.286 355.287 128.271C355.307 128.35 355.34 128.422 355.375 128.495Z" fill="#CF1A39"/>
<path d="M355.342 128.506C358.539 135.774 377.108 132.428 383.367 132.229C397.22 131.791 410.809 131.507 423.722 137.488C438.941 144.546 453.452 153.914 467.724 162.702C468.63 163.264 469.531 163.174 470.239 162.749C470.371 162.689 453.18 131.006 429.136 121.236C405.55 111.652 379.2 121.961 355.342 128.506Z" fill="#B11933"/>
<path d="M428.619 113.725C427.427 108.071 425.38 102.786 422.449 97.8492C421.803 97.7552 421.14 97.6676 420.463 97.5877C423.622 102.669 425.786 108.128 427.023 113.99C427.242 114.983 428.832 114.739 428.619 113.725Z" fill="#E73957"/>
<path d="M435.418 114.383C434.72 109.365 433.498 104.512 431.717 99.7928C431.079 99.6058 430.44 99.4201 429.799 99.2696C431.755 104.246 433.086 109.329 433.812 114.634C433.96 115.661 435.555 115.394 435.418 114.383Z" fill="#E73957"/>
<path d="M382.212 116.814C382.518 117.802 384.099 117.543 383.815 116.564C382.425 111.883 379.55 108.226 376.271 104.731C375.76 104.963 375.249 105.194 374.765 105.446C377.931 108.781 380.89 112.314 382.212 116.814Z" fill="#E73957"/>
<path d="M513.752 209.953C504.02 183.025 496.482 155.445 494.319 126.783C494.242 125.756 492.639 125.902 492.716 126.925C494.888 155.727 502.467 183.443 512.25 210.507C512.749 210.318 513.252 210.14 513.752 209.953Z" fill="#ED3D5B"/>
<path d="M506.556 80.0604C510.229 79.6067 513.41 77.9254 516.072 75.577C517.008 81.6388 517.443 87.7594 517.042 93.8625C513.977 100.589 504.677 113.418 505.402 113.263C508.402 112.642 511.151 111.49 513.841 110.172C512.496 114.18 510.771 118.067 508.658 121.735C504.334 129.338 497.586 135.827 495.883 144.664C495.852 144.869 495.738 145.01 495.605 145.075C495.61 145.551 495.124 145.998 494.638 145.652C478.672 134.098 473.403 114.188 468.855 96.2118C468.639 95.3588 468.427 94.5224 468.226 93.6631C472.674 97.0581 477.33 100.094 482.648 102.131C483.385 102.415 471.78 88.466 466.159 82.075C465.729 77.6831 465.819 73.2503 466.842 68.8224C468.968 59.6226 473.538 50.6928 478.029 42.4374C478.21 42.1 478.425 41.7679 478.604 41.4265C480.628 45.1582 483.125 48.5934 486.18 51.5996C486.713 52.1313 483.676 40.6586 482.06 35.4482C483.213 33.5737 484.368 31.7023 485.586 29.882C487.178 27.4402 489.002 23.4165 492.46 23.4942C495.814 23.5466 505.118 35.9545 506.584 39.6522C507.217 41.2306 507.807 42.8488 508.369 44.4758C508.629 45.1719 508.861 45.8914 509.088 46.5932C511.242 53.1397 512.908 59.9191 514.361 66.5832C514.178 66.9733 513.994 67.3632 513.773 67.7441C511.524 71.7907 505.879 80.1382 506.556 80.0604Z" fill="#CF1A39"/>
<path d="M507.71 61.6917C503.476 66.5093 499.041 71.3518 492.674 73.2565C492.767 62.7767 493.108 52.3007 493.765 41.8388C493.83 40.8098 492.214 40.7631 492.151 41.7867C491.279 55.6533 490.932 69.5443 491.058 83.4304C486.261 78.257 482.361 72.5274 479.318 66.1786C478.873 65.2481 477.467 66.0242 477.913 66.9525C481.129 73.6664 485.322 79.7324 490.466 85.1533C490.656 85.3547 490.877 85.4154 491.087 85.3928C491.125 88.4287 491.194 91.4668 491.278 94.5012C487.867 91.264 485.033 87.6135 482.805 83.4632C482.316 82.5533 480.909 83.3247 481.401 84.2385C483.878 88.8522 487.076 92.9323 490.984 96.4508C491.098 96.5537 491.22 96.6058 491.344 96.638C491.847 112.762 492.994 128.876 494.84 144.933C494.957 145.951 496.523 145.569 496.406 144.559C495.775 139.081 495.234 133.598 494.764 128.11C494.992 128.164 495.241 128.132 495.462 127.936C498.117 125.592 500.245 122.796 501.777 119.616C502.219 118.699 500.837 117.857 500.391 118.782C498.975 121.725 497.042 124.295 494.628 126.498C493.208 109.337 492.561 92.1328 492.663 74.9328C492.685 74.9269 492.705 74.9332 492.729 74.9263C499.574 73.0164 504.318 67.9871 508.839 62.8414C509.512 62.076 508.391 60.9179 507.71 61.6917Z" fill="#E73957"/>
<path d="M400.326 209.449C400.387 212.961 399.138 216.16 397.152 218.956C403.374 219.086 409.581 218.74 415.656 217.61C421.984 213.891 433.569 203.555 433.514 204.259C433.31 207.157 432.536 209.884 431.589 212.58C435.427 210.819 439.089 208.714 442.477 206.273C449.511 201.265 455.086 194.115 463.723 191.42C463.925 191.366 464.052 191.241 464.097 191.107C464.578 191.052 464.957 190.541 464.543 190.126C450.708 176.534 429.975 174.038 411.286 171.983C410.398 171.884 409.526 171.788 408.636 171.706C412.67 175.471 416.367 179.476 419.156 184.226C419.544 184.884 403.914 175.692 396.708 171.193C392.237 171.331 387.798 171.966 383.493 173.476C374.549 176.613 366.218 182.016 358.555 187.262C358.238 187.473 357.936 187.718 357.621 187.928C361.651 189.371 365.45 191.298 368.895 193.797C369.504 194.234 357.557 192.795 352.097 191.919C350.377 193.236 348.657 194.554 346.996 195.923C344.769 197.723 340.98 199.936 341.541 203.18C342.063 206.329 355.826 213.548 359.746 214.471C361.418 214.87 363.128 215.227 364.839 215.554C365.574 215.712 366.328 215.842 367.066 215.969C373.943 217.186 380.984 217.914 387.882 218.458C388.248 218.237 388.613 218.016 388.966 217.763C392.715 215.145 400.311 208.8 400.326 209.449Z" fill="#CF1A39"/>
<path d="M382.048 212.777C386.298 208.196 390.542 203.423 391.568 197.192C381.051 198.577 370.571 200.192 360.151 202.107C359.128 202.296 358.855 200.781 359.873 200.593C373.686 198.057 387.594 196.012 401.564 194.412C395.696 190.537 389.395 187.574 382.593 185.499C381.595 185.193 382.178 183.775 383.173 184.078C390.368 186.276 397.048 189.472 403.213 193.642C403.44 193.795 403.533 193.996 403.54 194.196C406.595 193.857 409.657 193.546 412.717 193.25C408.989 190.44 404.926 188.225 400.445 186.639C399.462 186.292 400.043 184.874 401.028 185.222C406.008 186.981 410.554 189.488 414.637 192.732C414.755 192.825 414.826 192.934 414.874 193.046C431.146 191.524 447.493 190.61 463.887 190.358C464.928 190.344 464.759 191.865 463.729 191.881C458.139 191.965 452.554 192.133 446.976 192.37C447.059 192.578 447.059 192.816 446.895 193.05C444.912 195.837 442.397 198.187 439.418 200.023C438.557 200.552 437.52 199.357 438.388 198.821C441.145 197.123 443.46 194.986 445.334 192.443C427.894 193.231 410.517 194.749 393.249 196.972C393.249 196.998 393.257 197.015 393.254 197.04C392.289 203.716 387.9 208.806 383.362 213.699C382.685 214.427 381.364 213.512 382.048 212.777Z" fill="#ED3D5B"/>
<path d="M366.997 216.086C370.972 213.395 374.419 210.108 377.284 206.28C377.876 205.466 376.564 204.551 375.976 205.35C372.9 209.463 369.155 212.933 364.768 215.67C365.503 215.829 366.259 215.958 366.997 216.086Z" fill="#E73957"/>
<path d="M550.081 194.466C551.433 197.152 552.47 199.916 553.196 202.706C555.842 212.834 554.462 223.359 549.746 232.27L505.56 253.652C495.48 251.901 486.121 246.572 479.528 238.355C477.712 236.092 476.104 233.604 474.752 230.919C473.343 228.12 472.281 225.24 471.555 222.335C470.921 219.86 470.541 217.367 470.384 214.885L539.751 181.318C541.671 182.947 543.452 184.761 545.076 186.758C546.987 189.089 548.672 191.667 550.081 194.466Z" fill="#FFAD00"/>
<path d="M484.085 208.39L470.375 215.027C470.532 217.501 470.91 219.986 471.542 222.454C472.266 225.35 473.323 228.221 474.727 231.011C476.075 233.689 477.678 236.168 479.488 238.423C486.058 246.616 495.386 251.927 505.432 253.673L511.528 250.722C501.482 248.976 485.838 226.38 484.085 208.39Z" fill="#FF9F00"/>
</g>
<defs>
<clipPath id="clip0">
<rect width="495" height="224" rx="10" fill="white"/>
</clipPath>
</defs>
</svg>
